<svg xmlns="http://www.w3.org/2000/svg" xmlns:xlink="http://www.w3.org/1999/xlink" width="1080" zoomAndPan="magnify" viewBox="0 0 810 809.999993" height="1080" preserveAspectRatio="xMidYMid meet" version="1.0"><defs><clipPath id="aa41e00dff"><path d="M 375 263.445312 L 406 263.445312 L 406 294 L 375 294 Z M 375 263.445312 " clip-rule="nonzero"/></clipPath><clipPath id="63f7b7f26c"><path d="M 515 359 L 545.339844 359 L 545.339844 390 L 515 390 Z M 515 359 " clip-rule="nonzero"/></clipPath><clipPath id="50d184e96e"><path d="M 515 419 L 545.339844 419 L 545.339844 450 L 515 450 Z M 515 419 " clip-rule="nonzero"/></clipPath><clipPath id="9a87bb40a3"><path d="M 375 516 L 406 516 L 406 546.195312 L 375 546.195312 Z M 375 516 " clip-rule="nonzero"/></clipPath><clipPath id="b5e110fedf"><path d="M 265.589844 359 L 296 359 L 296 390 L 265.589844 390 Z M 265.589844 359 " clip-rule="nonzero"/></clipPath><clipPath id="f90e25ff73"><path d="M 265.589844 419 L 296 419 L 296 450 L 265.589844 450 Z M 265.589844 419 " clip-rule="nonzero"/></clipPath></defs><path fill="#ffffff" d="M 272.242188 146.726562 L 272.242188 210.363281 L 279.320312 210.363281 L 279.320312 143.800781 L 229.789062 94.261719 L 229.789062 62.988281 C 237.175781 61.363281 242.722656 54.769531 242.722656 46.902344 C 242.722656 37.820312 235.335938 30.429688 226.25 30.429688 C 217.167969 30.429688 209.78125 37.820312 209.78125 46.902344 C 209.78125 54.769531 215.328125 61.363281 222.710938 62.988281 L 222.710938 97.195312 Z M 216.851562 46.902344 C 216.851562 41.722656 221.070312 37.503906 226.25 37.503906 C 231.429688 37.503906 235.644531 41.722656 235.644531 46.902344 C 235.644531 52.082031 231.429688 56.296875 226.25 56.296875 C 221.070312 56.296875 216.851562 52.082031 216.851562 46.902344 " fill-opacity="1" fill-rule="nonzero"/><path fill="#ffffff" d="M 365.417969 102.148438 L 394.980469 72.582031 L 394.980469 32.5625 C 402.367188 30.933594 407.914062 24.339844 407.914062 16.472656 C 407.914062 7.386719 400.527344 0 391.445312 0 C 382.359375 0 374.972656 7.386719 374.972656 16.472656 C 374.972656 24.339844 380.519531 30.933594 387.90625 32.5625 L 387.90625 69.652344 L 358.339844 99.21875 L 358.339844 210.363281 L 365.417969 210.363281 Z M 382.050781 16.472656 C 382.050781 11.292969 386.265625 7.078125 391.445312 7.078125 C 396.625 7.078125 400.839844 11.292969 400.839844 16.472656 C 400.839844 21.652344 396.625 25.871094 391.445312 25.871094 C 386.265625 25.871094 382.050781 21.652344 382.050781 16.472656 " fill-opacity="1" fill-rule="nonzero"/><path fill="#ffffff" d="M 480.214844 146.726562 L 507.65625 119.289062 L 507.65625 58.035156 C 515.042969 56.410156 520.589844 49.820312 520.589844 41.949219 C 520.589844 32.867188 513.199219 25.472656 504.113281 25.472656 C 495.03125 25.472656 487.644531 32.867188 487.644531 41.949219 C 487.644531 49.820312 493.191406 56.410156 500.578125 58.035156 L 500.578125 116.355469 L 473.136719 143.800781 L 473.136719 210.363281 L 480.214844 210.363281 Z M 494.722656 41.949219 C 494.722656 36.765625 498.933594 32.550781 504.113281 32.550781 C 509.296875 32.550781 513.515625 36.765625 513.515625 41.949219 C 513.515625 47.128906 509.296875 51.34375 504.113281 51.34375 C 498.933594 51.34375 494.722656 47.128906 494.722656 41.949219 " fill-opacity="1" fill-rule="nonzero"/><path fill="#ffffff" d="M 300.949219 161.347656 L 300.949219 210.363281 L 308.019531 210.363281 L 308.019531 161.347656 C 315.410156 159.722656 320.957031 153.132812 320.957031 145.261719 C 320.957031 136.179688 313.5625 128.789062 304.484375 128.789062 C 295.402344 128.789062 288.011719 136.179688 288.011719 145.261719 C 288.011719 153.132812 293.558594 159.722656 300.949219 161.347656 Z M 304.484375 135.867188 C 309.664062 135.867188 313.878906 140.082031 313.878906 145.261719 C 313.878906 150.441406 309.664062 154.65625 304.484375 154.65625 C 299.304688 154.65625 295.085938 150.441406 295.085938 145.261719 C 295.085938 140.082031 299.304688 135.867188 304.484375 135.867188 " fill-opacity="1" fill-rule="nonzero"/><path fill="#ffffff" d="M 444.4375 32.5625 L 444.4375 210.363281 L 451.515625 210.363281 L 451.515625 32.5625 C 458.902344 30.933594 464.449219 24.339844 464.449219 16.472656 C 464.449219 7.386719 457.0625 0 447.980469 0 C 438.894531 0 431.507812 7.386719 431.507812 16.472656 C 431.507812 24.339844 437.054688 30.933594 444.4375 32.5625 Z M 447.980469 7.078125 C 453.160156 7.078125 457.371094 11.292969 457.371094 16.472656 C 457.371094 21.652344 453.160156 25.871094 447.980469 25.871094 C 442.796875 25.871094 438.578125 21.652344 438.578125 16.472656 C 438.578125 11.292969 442.796875 7.078125 447.980469 7.078125 " fill-opacity="1" fill-rule="nonzero"/><path fill="#ffffff" d="M 508.914062 210.363281 L 508.914062 181.867188 C 516.300781 180.25 521.847656 173.652344 521.847656 165.78125 C 521.847656 156.699219 514.453125 149.3125 505.375 149.3125 C 496.292969 149.3125 488.90625 156.699219 488.90625 165.78125 C 488.90625 173.652344 494.453125 180.25 501.835938 181.867188 L 501.835938 210.363281 Z M 495.976562 165.78125 C 495.976562 160.601562 500.195312 156.386719 505.375 156.386719 C 510.558594 156.386719 514.769531 160.601562 514.769531 165.78125 C 514.769531 170.96875 510.558594 175.179688 505.375 175.179688 C 500.195312 175.179688 495.976562 170.96875 495.976562 165.78125 " fill-opacity="1" fill-rule="nonzero"/><path fill="#ffffff" d="M 537.613281 80.917969 L 565.570312 52.957031 L 565.570312 32.5625 C 572.957031 30.933594 578.507812 24.339844 578.507812 16.472656 C 578.507812 7.386719 571.117188 0 562.035156 0 C 552.949219 0 545.5625 7.386719 545.5625 16.472656 C 545.5625 24.339844 551.109375 30.933594 558.5 32.5625 L 558.5 50.023438 L 530.535156 77.984375 L 530.535156 210.363281 L 537.613281 210.363281 Z M 552.640625 16.472656 C 552.640625 11.292969 556.855469 7.078125 562.035156 7.078125 C 567.214844 7.078125 571.429688 11.292969 571.429688 16.472656 C 571.429688 21.652344 567.214844 25.871094 562.035156 25.871094 C 556.855469 25.871094 552.640625 21.652344 552.640625 16.472656 " fill-opacity="1" fill-rule="nonzero"/><path fill="#ffffff" d="M 402.964844 74.5 C 402.964844 82.367188 408.511719 88.960938 415.898438 90.585938 L 415.898438 104.328125 L 387.039062 133.183594 L 387.039062 210.363281 L 394.117188 210.363281 L 394.117188 136.117188 L 422.972656 107.257812 L 422.972656 90.585938 C 430.359375 88.960938 435.90625 82.367188 435.90625 74.5 C 435.90625 65.417969 428.519531 58.027344 419.433594 58.027344 C 410.355469 58.027344 402.964844 65.417969 402.964844 74.5 Z M 419.433594 65.101562 C 424.613281 65.101562 428.832031 69.320312 428.832031 74.5 C 428.832031 79.679688 424.613281 83.894531 419.433594 83.894531 C 414.253906 83.894531 410.039062 79.679688 410.039062 74.5 C 410.039062 69.320312 414.253906 65.101562 419.433594 65.101562 " fill-opacity="1" fill-rule="nonzero"/><path fill="#ffffff" d="M 422.816406 210.363281 L 422.816406 181.90625 C 430.28125 180.339844 435.90625 173.707031 435.90625 165.78125 C 435.90625 156.699219 428.519531 149.3125 419.433594 149.3125 C 410.355469 149.3125 402.964844 156.699219 402.964844 165.78125 C 402.964844 173.59375 408.433594 180.148438 415.738281 181.835938 L 415.738281 210.363281 Z M 410.039062 165.78125 C 410.039062 160.601562 414.253906 156.386719 419.433594 156.386719 C 424.613281 156.386719 428.832031 160.601562 428.832031 165.78125 C 428.832031 170.96875 424.613281 175.179688 419.433594 175.179688 C 414.253906 175.179688 410.039062 170.96875 410.039062 165.78125 " fill-opacity="1" fill-rule="nonzero"/><path fill="#ffffff" d="M 329.640625 67.941406 L 329.640625 210.363281 L 336.71875 210.363281 L 336.71875 67.941406 C 344.105469 66.316406 349.65625 59.722656 349.65625 51.855469 C 349.65625 42.773438 342.265625 35.382812 333.183594 35.382812 C 324.097656 35.382812 316.710938 42.773438 316.710938 51.855469 C 316.710938 59.722656 322.253906 66.316406 329.640625 67.941406 Z M 333.183594 42.457031 C 338.363281 42.457031 342.578125 46.675781 342.578125 51.855469 C 342.578125 57.035156 338.363281 61.25 333.183594 61.25 C 328.003906 61.25 323.789062 57.035156 323.789062 51.855469 C 323.789062 46.675781 328.003906 42.457031 333.183594 42.457031 " fill-opacity="1" fill-rule="nonzero"/><path fill="#ffffff" d="M 587.289062 747.011719 L 587.289062 712.808594 L 537.75 663.273438 L 537.757812 599.636719 L 530.679688 599.636719 L 530.679688 666.207031 L 580.210938 715.738281 L 580.210938 747.011719 C 572.824219 748.636719 567.277344 755.230469 567.277344 763.097656 C 567.277344 772.179688 574.664062 779.574219 583.75 779.574219 C 592.832031 779.574219 600.21875 772.179688 600.21875 763.097656 C 600.21875 755.230469 594.671875 748.636719 587.289062 747.011719 Z M 583.75 772.496094 C 578.570312 772.496094 574.355469 768.277344 574.355469 763.097656 C 574.355469 757.917969 578.570312 753.703125 583.75 753.703125 C 588.929688 753.703125 593.144531 757.917969 593.144531 763.097656 C 593.144531 768.277344 588.929688 772.496094 583.75 772.496094 " fill-opacity="1" fill-rule="nonzero"/><path fill="#ffffff" d="M 444.582031 707.855469 L 415.019531 737.417969 L 415.019531 777.445312 C 407.632812 779.066406 402.085938 785.660156 402.085938 793.527344 C 402.085938 802.613281 409.472656 810 418.554688 810 C 427.640625 810 435.027344 802.613281 435.027344 793.527344 C 435.027344 785.660156 429.480469 779.066406 422.09375 777.445312 L 422.09375 740.347656 L 451.660156 710.785156 L 451.660156 599.636719 L 444.582031 599.636719 Z M 427.949219 793.527344 C 427.949219 798.707031 423.734375 802.921875 418.554688 802.921875 C 413.375 802.921875 409.160156 798.707031 409.160156 793.527344 C 409.160156 788.347656 413.375 784.132812 418.554688 784.132812 C 423.734375 784.132812 427.949219 788.347656 427.949219 793.527344 " fill-opacity="1" fill-rule="nonzero"/><path fill="#ffffff" d="M 329.785156 663.273438 L 302.34375 690.710938 L 302.34375 751.964844 C 294.960938 753.589844 289.414062 760.1875 289.414062 768.050781 C 289.414062 777.132812 296.800781 784.527344 305.886719 784.527344 C 314.96875 784.527344 322.355469 777.132812 322.355469 768.050781 C 322.355469 760.1875 316.808594 753.589844 309.421875 751.964844 L 309.421875 693.644531 L 336.863281 666.207031 L 336.863281 599.636719 L 329.785156 599.636719 Z M 315.277344 768.050781 C 315.277344 773.234375 311.066406 777.449219 305.886719 777.449219 C 300.703125 777.449219 296.484375 773.234375 296.484375 768.050781 C 296.484375 762.871094 300.703125 758.65625 305.886719 758.65625 C 311.066406 758.65625 315.277344 762.871094 315.277344 768.050781 " fill-opacity="1" fill-rule="nonzero"/><path fill="#ffffff" d="M 509.050781 648.652344 L 509.050781 599.636719 L 501.980469 599.636719 L 501.980469 648.652344 C 494.589844 650.277344 489.042969 656.867188 489.042969 664.738281 C 489.042969 673.820312 496.433594 681.210938 505.515625 681.210938 C 514.597656 681.210938 521.988281 673.820312 521.988281 664.738281 C 521.988281 656.867188 516.441406 650.277344 509.050781 648.652344 Z M 505.515625 674.136719 C 500.335938 674.136719 496.121094 669.917969 496.121094 664.738281 C 496.121094 659.558594 500.335938 655.34375 505.515625 655.34375 C 510.695312 655.34375 514.914062 659.558594 514.914062 664.738281 C 514.914062 669.917969 510.695312 674.136719 505.515625 674.136719 " fill-opacity="1" fill-rule="nonzero"/><path fill="#ffffff" d="M 365.5625 777.445312 L 365.5625 599.636719 L 358.484375 599.636719 L 358.484375 777.445312 C 351.097656 779.066406 345.550781 785.660156 345.550781 793.527344 C 345.550781 802.613281 352.9375 810 362.019531 810 C 371.105469 810 378.5 802.613281 378.5 793.527344 C 378.5 785.660156 372.949219 779.066406 365.5625 777.445312 Z M 362.019531 802.921875 C 356.839844 802.921875 352.628906 798.707031 352.628906 793.527344 C 352.628906 788.347656 356.839844 784.132812 362.019531 784.132812 C 367.203125 784.132812 371.421875 788.347656 371.421875 793.527344 C 371.421875 798.707031 367.203125 802.921875 362.019531 802.921875 " fill-opacity="1" fill-rule="nonzero"/><path fill="#ffffff" d="M 304.625 660.6875 C 313.707031 660.6875 321.09375 653.300781 321.09375 644.21875 C 321.09375 636.347656 315.554688 629.757812 308.164062 628.128906 L 308.164062 599.636719 L 301.085938 599.636719 L 301.085938 628.128906 C 293.699219 629.75 288.152344 636.347656 288.152344 644.21875 C 288.152344 653.300781 295.546875 660.6875 304.625 660.6875 Z M 304.625 634.820312 C 309.808594 634.820312 314.023438 639.039062 314.023438 644.21875 C 314.023438 649.398438 309.808594 653.613281 304.625 653.613281 C 299.441406 653.613281 295.230469 649.398438 295.230469 644.21875 C 295.230469 639.039062 299.441406 634.820312 304.625 634.820312 " fill-opacity="1" fill-rule="nonzero"/><path fill="#ffffff" d="M 272.386719 729.082031 L 244.429688 757.042969 L 244.429688 777.445312 C 237.042969 779.066406 231.492188 785.660156 231.492188 793.527344 C 231.492188 802.613281 238.882812 810 247.964844 810 C 257.050781 810 264.4375 802.613281 264.4375 793.527344 C 264.4375 785.660156 258.890625 779.066406 251.5 777.445312 L 251.5 759.976562 L 279.464844 732.015625 L 279.464844 599.636719 L 272.386719 599.636719 Z M 257.359375 793.527344 C 257.359375 798.707031 253.144531 802.921875 247.964844 802.921875 C 242.785156 802.921875 238.570312 798.707031 238.570312 793.527344 C 238.570312 788.347656 242.785156 784.132812 247.964844 784.132812 C 253.144531 784.132812 257.359375 788.347656 257.359375 793.527344 " fill-opacity="1" fill-rule="nonzero"/><path fill="#ffffff" d="M 407.035156 735.5 C 407.035156 727.636719 401.488281 721.039062 394.101562 719.414062 L 394.101562 705.675781 L 422.960938 676.820312 L 422.960938 599.636719 L 415.882812 599.636719 L 415.882812 673.886719 L 387.027344 702.742188 L 387.027344 719.414062 C 379.640625 721.039062 374.09375 727.636719 374.09375 735.5 C 374.09375 744.582031 381.480469 751.972656 390.566406 751.972656 C 399.644531 751.972656 407.035156 744.582031 407.035156 735.5 Z M 390.566406 744.898438 C 385.386719 744.898438 381.167969 740.679688 381.167969 735.5 C 381.167969 730.320312 385.386719 726.105469 390.566406 726.105469 C 395.746094 726.105469 399.960938 730.320312 399.960938 735.5 C 399.960938 740.679688 395.746094 744.898438 390.566406 744.898438 " fill-opacity="1" fill-rule="nonzero"/><path fill="#ffffff" d="M 387.183594 599.636719 L 387.183594 628.09375 C 379.71875 629.660156 374.09375 636.292969 374.09375 644.21875 C 374.09375 653.300781 381.480469 660.6875 390.566406 660.6875 C 399.644531 660.6875 407.035156 653.300781 407.035156 644.21875 C 407.035156 636.40625 401.566406 629.851562 394.261719 628.164062 L 394.261719 599.636719 Z M 399.960938 644.21875 C 399.960938 649.398438 395.746094 653.613281 390.566406 653.613281 C 385.386719 653.613281 381.167969 649.398438 381.167969 644.21875 C 381.167969 639.039062 385.386719 634.820312 390.566406 634.820312 C 395.746094 634.820312 399.960938 639.039062 399.960938 644.21875 " fill-opacity="1" fill-rule="nonzero"/><path fill="#ffffff" d="M 480.359375 742.0625 L 480.359375 599.636719 L 473.28125 599.636719 L 473.28125 742.0625 C 465.894531 743.683594 460.34375 750.277344 460.34375 758.144531 C 460.34375 767.226562 467.734375 774.617188 476.816406 774.617188 C 485.902344 774.617188 493.289062 767.226562 493.289062 758.144531 C 493.289062 750.277344 487.746094 743.683594 480.359375 742.0625 Z M 476.816406 767.542969 C 471.636719 767.542969 467.421875 763.324219 467.421875 758.144531 C 467.421875 752.964844 471.636719 748.75 476.816406 748.75 C 481.996094 748.75 486.210938 752.964844 486.210938 758.144531 C 486.210938 763.324219 481.996094 767.542969 476.816406 767.542969 " fill-opacity="1" fill-rule="nonzero"/><path fill="#ffffff" d="M 715.734375 229.789062 L 747.011719 229.789062 C 748.636719 237.175781 755.230469 242.722656 763.097656 242.722656 C 772.179688 242.722656 779.570312 235.335938 779.570312 226.25 C 779.570312 217.167969 772.179688 209.78125 763.097656 209.78125 C 755.230469 209.78125 748.636719 215.328125 747.011719 222.714844 L 712.804688 222.714844 L 663.273438 272.25 L 599.636719 272.25 L 599.636719 279.328125 L 666.207031 279.328125 Z M 763.097656 216.855469 C 768.277344 216.855469 772.496094 221.070312 772.496094 226.25 C 772.496094 231.429688 768.277344 235.648438 763.097656 235.648438 C 757.917969 235.648438 753.703125 231.429688 753.703125 226.25 C 753.703125 221.070312 757.917969 216.855469 763.097656 216.855469 " fill-opacity="1" fill-rule="nonzero"/><path fill="#ffffff" d="M 737.417969 394.984375 L 777.4375 394.984375 C 779.066406 402.375 785.660156 407.914062 793.527344 407.914062 C 802.605469 407.914062 810 400.527344 810 391.445312 C 810 382.359375 802.605469 374.972656 793.527344 374.972656 C 785.660156 374.972656 779.066406 380.519531 777.4375 387.90625 L 740.347656 387.90625 L 710.78125 358.339844 L 599.636719 358.339844 L 599.636719 365.417969 L 707.851562 365.417969 Z M 793.527344 382.050781 C 798.707031 382.050781 802.921875 386.265625 802.921875 391.445312 C 802.921875 396.625 798.707031 400.84375 793.527344 400.84375 C 788.347656 400.84375 784.128906 396.625 784.128906 391.445312 C 784.128906 386.265625 788.347656 382.050781 793.527344 382.050781 " fill-opacity="1" fill-rule="nonzero"/><path fill="#ffffff" d="M 690.710938 507.65625 L 751.964844 507.65625 C 753.589844 515.042969 760.1875 520.589844 768.050781 520.589844 C 777.132812 520.589844 784.527344 513.199219 784.527344 504.113281 C 784.527344 495.035156 777.132812 487.644531 768.050781 487.644531 C 760.1875 487.644531 753.589844 493.191406 751.964844 500.578125 L 693.644531 500.578125 L 666.207031 473.136719 L 599.636719 473.136719 L 599.636719 480.214844 L 663.273438 480.214844 Z M 768.050781 494.722656 C 773.234375 494.722656 777.449219 498.933594 777.449219 504.113281 C 777.449219 509.300781 773.234375 513.515625 768.050781 513.515625 C 762.871094 513.515625 758.65625 509.300781 758.65625 504.113281 C 758.65625 498.933594 762.871094 494.722656 768.050781 494.722656 " fill-opacity="1" fill-rule="nonzero"/><path fill="#ffffff" d="M 664.738281 320.957031 C 673.820312 320.957031 681.210938 313.566406 681.210938 304.484375 C 681.210938 295.402344 673.820312 288.011719 664.738281 288.011719 C 656.867188 288.011719 650.277344 293.558594 648.652344 300.949219 L 599.636719 300.949219 L 599.636719 308.019531 L 648.652344 308.019531 C 650.277344 315.410156 656.867188 320.957031 664.738281 320.957031 Z M 664.738281 295.089844 C 669.917969 295.089844 674.132812 299.304688 674.132812 304.484375 C 674.132812 309.664062 669.917969 313.878906 664.738281 313.878906 C 659.558594 313.878906 655.34375 309.664062 655.34375 304.484375 C 655.34375 299.304688 659.558594 295.089844 664.738281 295.089844 " fill-opacity="1" fill-rule="nonzero"/><path fill="#ffffff" d="M 793.527344 431.507812 C 785.660156 431.507812 779.066406 437.054688 777.4375 444.4375 L 599.636719 444.4375 L 599.636719 451.515625 L 777.4375 451.515625 C 779.066406 458.902344 785.660156 464.449219 793.527344 464.449219 C 802.605469 464.449219 810 457.0625 810 447.980469 C 810 438.894531 802.605469 431.507812 793.527344 431.507812 Z M 793.527344 457.371094 C 788.347656 457.371094 784.128906 453.160156 784.128906 447.980469 C 784.128906 442.796875 788.347656 438.578125 793.527344 438.578125 C 798.707031 438.578125 802.921875 442.796875 802.921875 447.980469 C 802.921875 453.160156 798.707031 457.371094 793.527344 457.371094 " fill-opacity="1" fill-rule="nonzero"/><path fill="#ffffff" d="M 644.21875 521.847656 C 653.300781 521.847656 660.6875 514.460938 660.6875 505.375 C 660.6875 496.292969 653.300781 488.90625 644.21875 488.90625 C 636.347656 488.90625 629.75 494.453125 628.132812 501.835938 L 599.636719 501.835938 L 599.636719 508.914062 L 628.132812 508.914062 C 629.75 516.300781 636.347656 521.847656 644.21875 521.847656 Z M 644.21875 495.976562 C 649.398438 495.976562 653.613281 500.195312 653.613281 505.375 C 653.613281 510.558594 649.398438 514.769531 644.21875 514.769531 C 639.039062 514.769531 634.820312 510.558594 634.820312 505.375 C 634.820312 500.195312 639.039062 495.976562 644.21875 495.976562 " fill-opacity="1" fill-rule="nonzero"/><path fill="#ffffff" d="M 793.527344 545.5625 C 785.660156 545.5625 779.066406 551.109375 777.4375 558.5 L 759.976562 558.5 L 732.015625 530.535156 L 599.636719 530.535156 L 599.636719 537.613281 L 729.082031 537.613281 L 757.042969 565.578125 L 777.4375 565.578125 C 779.066406 572.964844 785.660156 578.507812 793.527344 578.507812 C 802.605469 578.507812 810 571.117188 810 562.035156 C 810 552.949219 802.605469 545.5625 793.527344 545.5625 Z M 793.527344 571.433594 C 788.347656 571.433594 784.128906 567.214844 784.128906 562.035156 C 784.128906 556.855469 788.347656 552.640625 793.527344 552.640625 C 798.707031 552.640625 802.921875 556.855469 802.921875 562.035156 C 802.921875 567.214844 798.707031 571.433594 793.527344 571.433594 " fill-opacity="1" fill-rule="nonzero"/><path fill="#ffffff" d="M 702.742188 422.972656 L 719.414062 422.972656 C 721.039062 430.359375 727.632812 435.90625 735.5 435.90625 C 744.582031 435.90625 751.972656 428.519531 751.972656 419.433594 C 751.972656 410.355469 744.582031 402.964844 735.5 402.964844 C 727.632812 402.964844 721.039062 408.511719 719.414062 415.898438 L 705.671875 415.898438 L 676.816406 387.042969 L 599.636719 387.042969 L 599.636719 394.117188 L 673.882812 394.117188 Z M 735.5 410.039062 C 740.683594 410.039062 744.898438 414.253906 744.898438 419.433594 C 744.898438 424.613281 740.683594 428.832031 735.5 428.832031 C 730.320312 428.832031 726.105469 424.613281 726.105469 419.433594 C 726.105469 414.253906 730.320312 410.039062 735.5 410.039062 " fill-opacity="1" fill-rule="nonzero"/><path fill="#ffffff" d="M 644.21875 435.90625 C 653.300781 435.90625 660.6875 428.519531 660.6875 419.433594 C 660.6875 410.355469 653.300781 402.964844 644.21875 402.964844 C 636.40625 402.964844 629.851562 408.433594 628.164062 415.738281 L 599.636719 415.738281 L 599.636719 422.816406 L 628.09375 422.816406 C 629.660156 430.28125 636.292969 435.90625 644.21875 435.90625 Z M 644.21875 410.039062 C 649.398438 410.039062 653.613281 414.253906 653.613281 419.433594 C 653.613281 424.613281 649.398438 428.832031 644.21875 428.832031 C 639.039062 428.832031 634.820312 424.613281 634.820312 419.433594 C 634.820312 414.253906 639.039062 410.039062 644.21875 410.039062 " fill-opacity="1" fill-rule="nonzero"/><path fill="#ffffff" d="M 758.144531 349.65625 C 767.226562 349.65625 774.617188 342.265625 774.617188 333.183594 C 774.617188 324.097656 767.226562 316.710938 758.144531 316.710938 C 750.28125 316.710938 743.683594 322.257812 742.058594 329.648438 L 599.636719 329.648438 L 599.636719 336.71875 L 742.058594 336.71875 C 743.683594 344.105469 750.28125 349.65625 758.144531 349.65625 Z M 758.144531 323.789062 C 763.324219 323.789062 767.542969 328.003906 767.542969 333.183594 C 767.542969 338.363281 763.324219 342.578125 758.144531 342.578125 C 752.964844 342.578125 748.75 338.363281 748.75 333.183594 C 748.75 328.003906 752.964844 323.789062 758.144531 323.789062 " fill-opacity="1" fill-rule="nonzero"/><path fill="#ffffff" d="M 94.261719 580.210938 L 62.988281 580.210938 C 61.363281 572.824219 54.769531 567.277344 46.902344 567.277344 C 37.820312 567.277344 30.425781 574.664062 30.425781 583.75 C 30.425781 592.832031 37.820312 600.226562 46.902344 600.226562 C 54.765625 600.226562 61.363281 594.679688 62.988281 587.289062 L 97.191406 587.289062 L 146.726562 537.757812 L 210.363281 537.757812 L 210.363281 530.679688 L 143.792969 530.679688 Z M 46.902344 593.148438 C 41.722656 593.148438 37.503906 588.929688 37.503906 583.75 C 37.503906 578.570312 41.722656 574.355469 46.902344 574.355469 C 52.082031 574.355469 56.296875 578.570312 56.296875 583.75 C 56.296875 588.929688 52.082031 593.148438 46.902344 593.148438 " fill-opacity="1" fill-rule="nonzero"/><path fill="#ffffff" d="M 72.582031 415.019531 L 32.554688 415.019531 C 30.933594 407.632812 24.339844 402.085938 16.472656 402.085938 C 7.386719 402.085938 0 409.472656 0 418.554688 C 0 427.640625 7.386719 435.027344 16.472656 435.027344 C 24.339844 435.027344 30.933594 429.480469 32.554688 422.09375 L 69.652344 422.09375 L 99.214844 451.660156 L 210.363281 451.660156 L 210.363281 444.582031 L 102.144531 444.582031 Z M 16.472656 427.949219 C 11.292969 427.949219 7.078125 423.734375 7.078125 418.554688 C 7.078125 413.375 11.292969 409.160156 16.472656 409.160156 C 21.652344 409.160156 25.867188 413.375 25.867188 418.554688 C 25.867188 423.734375 21.652344 427.949219 16.472656 427.949219 " fill-opacity="1" fill-rule="nonzero"/><path fill="#ffffff" d="M 119.289062 302.347656 L 58.035156 302.347656 C 56.410156 294.960938 49.8125 289.414062 41.949219 289.414062 C 32.867188 289.414062 25.472656 296.800781 25.472656 305.886719 C 25.472656 314.96875 32.867188 322.355469 41.949219 322.355469 C 49.8125 322.355469 56.410156 316.808594 58.035156 309.421875 L 116.355469 309.421875 L 143.792969 336.863281 L 210.363281 336.863281 L 210.363281 329.785156 L 146.726562 329.785156 Z M 41.949219 315.277344 C 36.765625 315.277344 32.550781 311.066406 32.550781 305.886719 C 32.550781 300.703125 36.765625 296.492188 41.949219 296.492188 C 47.128906 296.492188 51.34375 300.703125 51.34375 305.886719 C 51.34375 311.066406 47.128906 315.277344 41.949219 315.277344 " fill-opacity="1" fill-rule="nonzero"/><path fill="#ffffff" d="M 145.261719 489.042969 C 136.179688 489.042969 128.789062 496.4375 128.789062 505.515625 C 128.789062 514.601562 136.179688 521.988281 145.261719 521.988281 C 153.132812 521.988281 159.722656 516.441406 161.347656 509.058594 L 210.363281 509.058594 L 210.363281 501.980469 L 161.347656 501.980469 C 159.722656 494.589844 153.132812 489.042969 145.261719 489.042969 Z M 145.261719 514.914062 C 140.082031 514.914062 135.863281 510.695312 135.863281 505.515625 C 135.863281 500.335938 140.082031 496.121094 145.261719 496.121094 C 150.441406 496.121094 154.65625 500.335938 154.65625 505.515625 C 154.65625 510.695312 150.441406 514.914062 145.261719 514.914062 " fill-opacity="1" fill-rule="nonzero"/><path fill="#ffffff" d="M 16.472656 345.550781 C 7.386719 345.550781 0 352.9375 0 362.023438 C 0 371.105469 7.386719 378.5 16.472656 378.5 C 24.339844 378.5 30.933594 372.949219 32.554688 365.5625 L 210.363281 365.5625 L 210.363281 358.484375 L 32.554688 358.484375 C 30.933594 351.097656 24.339844 345.550781 16.472656 345.550781 Z M 16.472656 371.421875 C 11.292969 371.421875 7.078125 367.207031 7.078125 362.023438 C 7.078125 356.839844 11.292969 352.628906 16.472656 352.628906 C 21.652344 352.628906 25.867188 356.839844 25.867188 362.023438 C 25.867188 367.207031 21.652344 371.421875 16.472656 371.421875 " fill-opacity="1" fill-rule="nonzero"/><path fill="#ffffff" d="M 165.78125 288.15625 C 156.699219 288.15625 149.3125 295.546875 149.3125 304.625 C 149.3125 313.707031 156.699219 321.101562 165.78125 321.101562 C 173.652344 321.101562 180.242188 315.554688 181.867188 308.164062 L 210.363281 308.164062 L 210.363281 301.085938 L 181.867188 301.085938 C 180.25 293.699219 173.652344 288.15625 165.78125 288.15625 Z M 165.78125 314.023438 C 160.601562 314.023438 156.386719 309.808594 156.386719 304.625 C 156.386719 299.445312 160.601562 295.230469 165.78125 295.230469 C 170.960938 295.230469 175.179688 299.445312 175.179688 304.625 C 175.179688 309.808594 170.960938 314.023438 165.78125 314.023438 " fill-opacity="1" fill-rule="nonzero"/><path fill="#ffffff" d="M 52.957031 244.429688 L 32.554688 244.429688 C 30.933594 237.042969 24.339844 231.492188 16.472656 231.492188 C 7.386719 231.492188 0 238.882812 0 247.964844 C 0 257.050781 7.386719 264.4375 16.472656 264.4375 C 24.339844 264.4375 30.933594 258.890625 32.554688 251.5 L 50.023438 251.5 L 77.984375 279.464844 L 210.363281 279.464844 L 210.363281 272.386719 L 80.917969 272.386719 Z M 16.472656 257.359375 C 11.292969 257.359375 7.078125 253.144531 7.078125 247.964844 C 7.078125 242.785156 11.292969 238.570312 16.472656 238.570312 C 21.652344 238.570312 25.867188 242.785156 25.867188 247.964844 C 25.867188 253.144531 21.652344 257.359375 16.472656 257.359375 " fill-opacity="1" fill-rule="nonzero"/><path fill="#ffffff" d="M 107.257812 387.027344 L 90.585938 387.027344 C 88.960938 379.640625 82.363281 374.09375 74.5 374.09375 C 65.417969 374.09375 58.027344 381.480469 58.027344 390.566406 C 58.027344 399.648438 65.417969 407.035156 74.5 407.035156 C 82.363281 407.035156 88.960938 401.488281 90.585938 394.101562 L 104.328125 394.101562 L 133.183594 422.960938 L 210.363281 422.960938 L 210.363281 415.882812 L 136.113281 415.882812 Z M 74.5 399.960938 C 69.320312 399.960938 65.101562 395.746094 65.101562 390.566406 C 65.101562 385.386719 69.320312 381.171875 74.5 381.171875 C 79.679688 381.171875 83.894531 385.386719 83.894531 390.566406 C 83.894531 395.746094 79.679688 399.960938 74.5 399.960938 " fill-opacity="1" fill-rule="nonzero"/><path fill="#ffffff" d="M 165.78125 374.09375 C 156.699219 374.09375 149.3125 381.480469 149.3125 390.566406 C 149.3125 399.648438 156.699219 407.035156 165.78125 407.035156 C 173.59375 407.035156 180.148438 401.566406 181.835938 394.261719 L 210.363281 394.261719 L 210.363281 387.183594 L 181.90625 387.183594 C 180.339844 379.71875 173.707031 374.09375 165.78125 374.09375 Z M 165.78125 399.960938 C 160.601562 399.960938 156.386719 395.746094 156.386719 390.566406 C 156.386719 385.386719 160.601562 381.171875 165.78125 381.171875 C 170.960938 381.171875 175.179688 385.386719 175.179688 390.566406 C 175.179688 395.746094 170.960938 399.960938 165.78125 399.960938 " fill-opacity="1" fill-rule="nonzero"/><path fill="#ffffff" d="M 51.855469 460.34375 C 42.773438 460.34375 35.382812 467.734375 35.382812 476.816406 C 35.382812 485.902344 42.773438 493.292969 51.855469 493.292969 C 59.71875 493.292969 66.316406 487.746094 67.941406 480.359375 L 210.363281 480.359375 L 210.363281 473.28125 L 67.941406 473.28125 C 66.316406 465.894531 59.71875 460.34375 51.855469 460.34375 Z M 51.855469 486.214844 C 46.675781 486.214844 42.457031 481.996094 42.457031 476.816406 C 42.457031 471.636719 46.675781 467.421875 51.855469 467.421875 C 57.035156 467.421875 61.25 471.636719 61.25 476.816406 C 61.25 481.996094 57.035156 486.214844 51.855469 486.214844 " fill-opacity="1" fill-rule="nonzero"/><path fill="#ffffff" d="M 583.75 226.25 L 226.25 226.25 L 226.25 583.75 L 583.75 583.75 Z M 557.582031 557.582031 L 252.417969 557.582031 L 252.417969 252.417969 L 557.582031 252.417969 L 557.582031 557.582031 " fill-opacity="1" fill-rule="nonzero"/><path fill="#ffffff" d="M 543.433594 266.566406 L 266.566406 266.566406 L 266.566406 543.433594 L 543.433594 543.433594 L 543.433594 266.566406 " fill-opacity="1" fill-rule="nonzero"/><path fill="#000000" d="M 451.351562 459.234375 L 359.410156 459.234375 C 349.953125 459.234375 342.152344 451.449219 342.152344 442.007812 L 342.152344 367.632812 C 342.152344 358.027344 349.953125 350.242188 359.410156 350.242188 L 451.351562 350.242188 C 460.976562 350.242188 468.777344 358.027344 468.777344 367.632812 L 468.777344 442.007812 C 468.777344 451.449219 460.976562 459.234375 451.351562 459.234375 Z M 362.566406 424.78125 C 362.234375 424.78125 361.902344 424.78125 361.570312 424.613281 C 360.074219 424.117188 359.410156 422.460938 360.074219 420.972656 L 366.050781 406.0625 L 366.050781 405.898438 L 376.835938 379.0625 C 376.835938 379.0625 376.835938 378.898438 376.835938 378.898438 C 377.003906 378.566406 377.167969 378.234375 377.5 378.070312 C 377.667969 377.738281 378 377.574219 378.332031 377.40625 C 378.332031 377.40625 378.332031 377.40625 378.496094 377.40625 C 378.828125 377.242188 378.996094 377.242188 379.328125 377.242188 C 379.660156 377.242188 379.992188 377.242188 380.324219 377.40625 C 380.324219 377.40625 380.488281 377.40625 380.488281 377.40625 C 380.820312 377.574219 381.152344 377.738281 381.316406 378.070312 C 381.648438 378.234375 381.816406 378.566406 381.980469 378.898438 C 381.980469 378.898438 381.980469 379.0625 381.980469 379.0625 L 392.769531 405.898438 L 392.769531 406.0625 L 398.742188 420.972656 C 399.242188 422.460938 398.578125 424.117188 397.25 424.613281 C 395.757812 425.113281 394.097656 424.449219 393.597656 423.125 L 388.289062 409.871094 L 370.53125 409.871094 L 365.21875 423.125 C 364.722656 424.117188 363.726562 424.78125 362.566406 424.78125 Z M 425.796875 424.945312 L 411.023438 424.945312 C 409.53125 424.945312 408.371094 423.785156 408.371094 422.296875 C 408.371094 420.640625 409.53125 419.480469 411.023438 419.480469 L 422.972656 419.480469 L 422.972656 382.542969 L 411.023438 382.542969 C 409.53125 382.542969 408.371094 381.382812 408.371094 379.890625 C 408.371094 378.234375 409.53125 377.074219 411.023438 377.074219 L 440.398438 377.074219 C 441.894531 377.074219 443.222656 378.234375 443.222656 379.890625 C 443.222656 381.382812 441.894531 382.542969 440.398438 382.542969 L 428.449219 382.542969 L 428.449219 419.480469 L 440.398438 419.480469 C 441.894531 419.480469 443.222656 420.640625 443.222656 422.296875 C 443.222656 423.785156 441.894531 424.945312 440.398438 424.945312 Z M 386.132812 404.242188 L 379.328125 387.511719 L 372.6875 404.242188 Z M 386.132812 404.242188 " fill-opacity="1" fill-rule="evenodd"/><path fill="#000000" d="M 390.777344 355.875 C 389.285156 355.875 387.957031 354.546875 387.957031 353.058594 L 387.957031 290.609375 C 387.957031 289.121094 389.285156 287.796875 390.777344 287.796875 C 392.269531 287.796875 393.433594 289.121094 393.433594 290.609375 L 393.433594 353.058594 C 393.433594 354.546875 392.269531 355.875 390.777344 355.875 Z M 390.777344 355.875 " fill-opacity="1" fill-rule="evenodd"/><g clip-path="url(#aa41e00dff)"><path fill="#000000" d="M 390.777344 293.425781 C 382.480469 293.425781 375.675781 286.636719 375.675781 278.351562 C 375.675781 270.238281 382.480469 263.445312 390.777344 263.445312 C 399.074219 263.445312 405.714844 270.238281 405.714844 278.351562 C 405.714844 286.636719 399.074219 293.425781 390.777344 293.425781 Z M 390.777344 293.425781 " fill-opacity="1" fill-rule="evenodd"/></g><path fill="#000000" d="M 420.152344 355.875 C 418.660156 355.875 417.332031 354.546875 417.332031 353.058594 L 417.332031 327.21875 C 417.332031 325.726562 418.660156 324.402344 420.152344 324.402344 C 421.644531 324.402344 422.972656 325.726562 422.972656 327.21875 L 422.972656 353.058594 C 422.972656 354.546875 421.644531 355.875 420.152344 355.875 Z M 420.152344 355.875 " fill-opacity="1" fill-rule="evenodd"/><path fill="#000000" d="M 420.152344 330.035156 C 411.855469 330.035156 405.214844 323.242188 405.214844 314.960938 C 405.214844 306.84375 411.855469 300.050781 420.152344 300.050781 C 428.449219 300.050781 435.089844 306.84375 435.089844 314.960938 C 435.089844 323.242188 428.449219 330.035156 420.152344 330.035156 Z M 420.152344 330.035156 " fill-opacity="1" fill-rule="evenodd"/><path fill="#000000" d="M 449.527344 355.875 C 448.035156 355.875 446.707031 354.546875 446.707031 353.058594 L 446.707031 312.640625 C 446.707031 304.523438 453.34375 297.898438 461.476562 297.898438 L 479.066406 297.898438 C 480.5625 297.898438 481.890625 299.222656 481.890625 300.714844 C 481.890625 302.207031 480.5625 303.53125 479.066406 303.53125 L 461.476562 303.53125 C 456.496094 303.53125 452.347656 307.507812 452.347656 312.640625 L 452.347656 353.058594 C 452.347656 354.546875 451.019531 355.875 449.527344 355.875 Z M 449.527344 355.875 " fill-opacity="1" fill-rule="evenodd"/><path fill="#000000" d="M 491.347656 315.621094 C 483.050781 315.621094 476.246094 308.996094 476.246094 300.714844 C 476.246094 292.433594 483.050781 285.808594 491.347656 285.808594 C 499.648438 285.808594 506.285156 292.433594 506.285156 300.714844 C 506.285156 308.996094 499.648438 315.621094 491.347656 315.621094 Z M 491.347656 315.621094 " fill-opacity="1" fill-rule="evenodd"/><path fill="#000000" d="M 361.402344 355.875 C 359.742188 355.875 358.582031 354.546875 358.582031 353.058594 L 358.582031 312.640625 C 358.582031 307.507812 354.433594 303.53125 349.453125 303.53125 L 331.863281 303.53125 C 330.203125 303.53125 329.042969 302.207031 329.042969 300.714844 C 329.042969 299.222656 330.203125 297.898438 331.863281 297.898438 L 349.453125 297.898438 C 357.585938 297.898438 364.058594 304.523438 364.058594 312.640625 L 364.058594 353.058594 C 364.058594 354.546875 362.898438 355.875 361.402344 355.875 Z M 361.402344 355.875 " fill-opacity="1" fill-rule="evenodd"/><path fill="#000000" d="M 319.582031 315.621094 C 311.285156 315.621094 304.644531 308.996094 304.644531 300.714844 C 304.644531 292.433594 311.285156 285.808594 319.582031 285.808594 C 327.878906 285.808594 334.519531 292.433594 334.519531 300.714844 C 334.519531 308.996094 327.878906 315.621094 319.582031 315.621094 Z M 319.582031 315.621094 " fill-opacity="1" fill-rule="evenodd"/><path fill="#000000" d="M 518.066406 377.574219 L 465.957031 377.574219 C 464.464844 377.574219 463.136719 376.246094 463.136719 374.757812 C 463.136719 373.265625 464.464844 372.105469 465.957031 372.105469 L 518.066406 372.105469 C 519.5625 372.105469 520.722656 373.265625 520.722656 374.757812 C 520.722656 376.246094 519.5625 377.574219 518.066406 377.574219 Z M 518.066406 377.574219 " fill-opacity="1" fill-rule="evenodd"/><g clip-path="url(#63f7b7f26c)"><path fill="#000000" d="M 530.183594 389.832031 C 522.050781 389.832031 515.246094 383.039062 515.246094 374.757812 C 515.246094 366.476562 522.050781 359.847656 530.183594 359.847656 C 538.480469 359.847656 545.285156 366.476562 545.285156 374.757812 C 545.285156 383.039062 538.480469 389.832031 530.183594 389.832031 Z M 530.183594 389.832031 " fill-opacity="1" fill-rule="evenodd"/></g><path fill="#000000" d="M 481.558594 407.554688 L 465.957031 407.554688 C 464.464844 407.554688 463.136719 406.394531 463.136719 404.738281 C 463.136719 403.246094 464.464844 402.085938 465.957031 402.085938 L 481.558594 402.085938 C 483.050781 402.085938 484.210938 403.246094 484.210938 404.738281 C 484.210938 406.394531 483.050781 407.554688 481.558594 407.554688 Z M 481.558594 407.554688 " fill-opacity="1" fill-rule="evenodd"/><path fill="#000000" d="M 493.671875 419.8125 C 485.539062 419.8125 478.734375 413.019531 478.734375 404.738281 C 478.734375 396.621094 485.539062 389.832031 493.671875 389.832031 C 501.96875 389.832031 508.773438 396.621094 508.773438 404.738281 C 508.773438 413.019531 501.96875 419.8125 493.671875 419.8125 Z M 493.671875 419.8125 " fill-opacity="1" fill-rule="evenodd"/><path fill="#000000" d="M 518.066406 437.371094 L 465.957031 437.371094 C 464.464844 437.371094 463.136719 436.210938 463.136719 434.554688 C 463.136719 433.0625 464.464844 431.902344 465.957031 431.902344 L 518.066406 431.902344 C 519.5625 431.902344 520.722656 433.0625 520.722656 434.554688 C 520.722656 436.210938 519.5625 437.371094 518.066406 437.371094 Z M 518.066406 437.371094 " fill-opacity="1" fill-rule="evenodd"/><g clip-path="url(#50d184e96e)"><path fill="#000000" d="M 530.183594 449.625 C 522.050781 449.625 515.246094 442.835938 515.246094 434.554688 C 515.246094 426.4375 522.050781 419.644531 530.183594 419.644531 C 538.480469 419.644531 545.285156 426.4375 545.285156 434.554688 C 545.285156 442.835938 538.480469 449.625 530.183594 449.625 Z M 530.183594 449.625 " fill-opacity="1" fill-rule="evenodd"/></g><path fill="#000000" d="M 390.777344 521.679688 C 389.285156 521.679688 387.957031 520.519531 387.957031 519.03125 L 387.957031 456.582031 C 387.957031 454.925781 389.285156 453.769531 390.777344 453.769531 C 392.269531 453.769531 393.433594 454.925781 393.433594 456.582031 L 393.433594 519.03125 C 393.433594 520.519531 392.269531 521.679688 390.777344 521.679688 Z M 390.777344 521.679688 " fill-opacity="1" fill-rule="evenodd"/><g clip-path="url(#9a87bb40a3)"><path fill="#000000" d="M 390.777344 546.195312 C 382.480469 546.195312 375.675781 539.40625 375.675781 531.121094 C 375.675781 522.839844 382.480469 516.214844 390.777344 516.214844 C 399.074219 516.214844 405.714844 522.839844 405.714844 531.121094 C 405.714844 539.40625 399.074219 546.195312 390.777344 546.195312 Z M 390.777344 546.195312 " fill-opacity="1" fill-rule="evenodd"/></g><path fill="#000000" d="M 420.152344 485.074219 C 418.660156 485.074219 417.332031 483.914062 417.332031 482.421875 L 417.332031 456.582031 C 417.332031 454.925781 418.660156 453.769531 420.152344 453.769531 C 421.644531 453.769531 422.972656 454.925781 422.972656 456.582031 L 422.972656 482.421875 C 422.972656 483.914062 421.644531 485.074219 420.152344 485.074219 Z M 420.152344 485.074219 " fill-opacity="1" fill-rule="evenodd"/><path fill="#000000" d="M 420.152344 509.589844 C 411.855469 509.589844 405.214844 502.796875 405.214844 494.515625 C 405.214844 486.234375 411.855469 479.609375 420.152344 479.609375 C 428.449219 479.609375 435.089844 486.234375 435.089844 494.515625 C 435.089844 502.796875 428.449219 509.589844 420.152344 509.589844 Z M 420.152344 509.589844 " fill-opacity="1" fill-rule="evenodd"/><path fill="#000000" d="M 479.066406 511.578125 L 461.476562 511.578125 C 453.34375 511.578125 446.707031 505.117188 446.707031 497 L 446.707031 456.582031 C 446.707031 454.925781 448.035156 453.769531 449.527344 453.769531 C 451.019531 453.769531 452.347656 454.925781 452.347656 456.582031 L 452.347656 497 C 452.347656 501.96875 456.496094 506.109375 461.476562 506.109375 L 479.066406 506.109375 C 480.5625 506.109375 481.890625 507.269531 481.890625 508.925781 C 481.890625 510.417969 480.5625 511.578125 479.066406 511.578125 Z M 479.066406 511.578125 " fill-opacity="1" fill-rule="evenodd"/><path fill="#000000" d="M 491.347656 523.835938 C 483.050781 523.835938 476.246094 517.042969 476.246094 508.925781 C 476.246094 500.644531 483.050781 493.851562 491.347656 493.851562 C 499.648438 493.851562 506.285156 500.644531 506.285156 508.925781 C 506.285156 517.042969 499.648438 523.835938 491.347656 523.835938 Z M 491.347656 523.835938 " fill-opacity="1" fill-rule="evenodd"/><path fill="#000000" d="M 349.453125 511.578125 L 331.863281 511.578125 C 330.203125 511.578125 329.042969 510.417969 329.042969 508.925781 C 329.042969 507.269531 330.203125 506.109375 331.863281 506.109375 L 349.453125 506.109375 C 354.433594 506.109375 358.582031 501.96875 358.582031 497 L 358.582031 456.582031 C 358.582031 454.925781 359.742188 453.769531 361.402344 453.769531 C 362.898438 453.769531 364.058594 454.925781 364.058594 456.582031 L 364.058594 497 C 364.058594 505.117188 357.585938 511.578125 349.453125 511.578125 Z M 349.453125 511.578125 " fill-opacity="1" fill-rule="evenodd"/><path fill="#000000" d="M 319.582031 523.835938 C 311.285156 523.835938 304.644531 517.042969 304.644531 508.925781 C 304.644531 500.644531 311.285156 493.851562 319.582031 493.851562 C 327.878906 493.851562 334.519531 500.644531 334.519531 508.925781 C 334.519531 517.042969 327.878906 523.835938 319.582031 523.835938 Z M 319.582031 523.835938 " fill-opacity="1" fill-rule="evenodd"/><path fill="#000000" d="M 344.972656 377.574219 L 292.863281 377.574219 C 291.367188 377.574219 290.039062 376.414062 290.039062 374.921875 C 290.039062 373.265625 291.367188 372.105469 292.863281 372.105469 L 344.972656 372.105469 C 346.46875 372.105469 347.628906 373.265625 347.628906 374.921875 C 347.628906 376.414062 346.46875 377.574219 344.972656 377.574219 Z M 344.972656 377.574219 " fill-opacity="1" fill-rule="evenodd"/><g clip-path="url(#b5e110fedf)"><path fill="#000000" d="M 280.582031 389.832031 C 272.449219 389.832031 265.644531 383.203125 265.644531 374.921875 C 265.644531 366.640625 272.449219 359.847656 280.582031 359.847656 C 288.878906 359.847656 295.683594 366.640625 295.683594 374.921875 C 295.683594 383.203125 288.878906 389.832031 280.582031 389.832031 Z M 280.582031 389.832031 " fill-opacity="1" fill-rule="evenodd"/></g><path fill="#000000" d="M 344.972656 407.554688 L 329.375 407.554688 C 327.878906 407.554688 326.550781 406.394531 326.550781 404.902344 C 326.550781 403.414062 327.878906 402.085938 329.375 402.085938 L 344.972656 402.085938 C 346.46875 402.085938 347.628906 403.414062 347.628906 404.902344 C 347.628906 406.394531 346.46875 407.554688 344.972656 407.554688 Z M 344.972656 407.554688 " fill-opacity="1" fill-rule="evenodd"/><path fill="#000000" d="M 317.09375 419.8125 C 308.792969 419.8125 302.15625 413.1875 302.15625 404.902344 C 302.15625 396.621094 308.792969 389.832031 317.09375 389.832031 C 325.390625 389.832031 332.195312 396.621094 332.195312 404.902344 C 332.195312 413.1875 325.390625 419.8125 317.09375 419.8125 Z M 317.09375 419.8125 " fill-opacity="1" fill-rule="evenodd"/><path fill="#000000" d="M 344.972656 437.535156 L 292.863281 437.535156 C 291.367188 437.535156 290.039062 436.210938 290.039062 434.71875 C 290.039062 433.226562 291.367188 431.902344 292.863281 431.902344 L 344.972656 431.902344 C 346.46875 431.902344 347.628906 433.226562 347.628906 434.71875 C 347.628906 436.210938 346.46875 437.535156 344.972656 437.535156 Z M 344.972656 437.535156 " fill-opacity="1" fill-rule="evenodd"/><g clip-path="url(#f90e25ff73)"><path fill="#000000" d="M 280.582031 449.625 C 272.449219 449.625 265.644531 443 265.644531 434.71875 C 265.644531 426.4375 272.449219 419.8125 280.582031 419.8125 C 288.878906 419.8125 295.683594 426.4375 295.683594 434.71875 C 295.683594 443 288.878906 449.625 280.582031 449.625 Z M 280.582031 449.625 " fill-opacity="1" fill-rule="evenodd"/></g></svg>