<svg xmlns="http://www.w3.org/2000/svg" xmlns:xlink="http://www.w3.org/1999/xlink" width="1080" zoomAndPan="magnify" viewBox="0 0 810 809.999993" height="1080" preserveAspectRatio="xMidYMid meet" version="1.0"><defs><clipPath id="6759c3a161"><path d="M 504 514.363281 L 809.347656 514.363281 L 809.347656 635.777344 L 504 635.777344 Z M 504 514.363281 " clip-rule="nonzero"/></clipPath><clipPath id="7776fe9963"><path d="M 90 717 L 153 717 L 153 805.875 L 90 805.875 Z M 90 717 " clip-rule="nonzero"/></clipPath><clipPath id="2b0826c46a"><path d="M 354.019531 623.757812 L 459.402344 623.757812 L 459.402344 728.980469 L 354.019531 728.980469 Z M 354.019531 623.757812 " clip-rule="nonzero"/></clipPath><clipPath id="9371cd6b54"><path d="M 344.292969 685 L 375 685 L 375 716 L 344.292969 716 Z M 344.292969 685 " clip-rule="nonzero"/></clipPath><clipPath id="a4f9abcd9c"><path d="M 419.414062 615.113281 L 465.707031 615.113281 L 465.707031 661.316406 L 419.414062 661.316406 Z M 419.414062 615.113281 " clip-rule="nonzero"/></clipPath></defs><g clip-path="url(#6759c3a161)"><path fill="#ffffff" d="M 504.054688 586.941406 C 504.054688 586.941406 572.351562 598.894531 602.175781 609.210938 C 631.996094 619.53125 703.859375 640.261719 762.453125 585.226562 C 821.054688 530.1875 744.191406 514.699219 744.191406 514.699219 C 744.191406 514.699219 827.902344 520.160156 805.5625 566.238281 C 783.222656 612.316406 713.660156 654.21875 630.78125 626.457031 C 547.90625 598.699219 504.054688 586.941406 504.054688 586.941406 " fill-opacity="1" fill-rule="nonzero"/></g><path fill="#ffffff" d="M 74.386719 622.972656 C 74.386719 622.972656 137.882812 574.914062 244.507812 566.023438 C 244.507812 566.023438 176.980469 561.34375 90.121094 597.160156 C 90.121094 597.160156 90.640625 594.191406 88.464844 577.484375 C 88.464844 577.484375 82.449219 606.019531 74.386719 622.972656 " fill-opacity="1" fill-rule="nonzero"/><path fill="#ffffff" d="M 56.046875 622.828125 C 56.046875 622.828125 71.136719 594.859375 76.851562 562.191406 C 76.851562 562.191406 0.808594 588.679688 21.648438 627.011719 C 21.648438 627.011719 19.046875 601.046875 57.628906 590.457031 C 57.628906 590.457031 59.289062 610.132812 56.046875 622.828125 " fill-opacity="1" fill-rule="nonzero"/><g clip-path="url(#7776fe9963)"><path fill="#ffffff" d="M 152.5625 782.53125 C 152.5625 782.53125 146.871094 750.9375 113.929688 717.628906 C 113.929688 717.628906 58.253906 779.300781 116.855469 805.875 C 116.855469 805.875 92.085938 784.199219 120.144531 746.257812 C 120.144531 746.257812 130.6875 750.144531 152.5625 782.53125 " fill-opacity="1" fill-rule="nonzero"/></g><path fill="#ffffff" d="M 614.5 556.277344 C 626.023438 519.53125 701.753906 512.371094 701.753906 512.371094 C 701.753906 512.371094 637.703125 505.25 600.566406 542.617188 C 563.421875 579.992188 521.375 569.574219 480.792969 562.472656 C 458.207031 558.519531 419.890625 550.566406 374.496094 544.488281 C 408.625 514.390625 447.328125 491.332031 447.328125 491.332031 C 401.789062 509.894531 357.113281 542.769531 341.988281 554.425781 C 348.664062 555.015625 355.261719 555.632812 361.769531 556.285156 C 459.933594 566.082031 537.902344 582.292969 551.664062 583.03125 C 576.929688 584.390625 596.058594 568.359375 596.058594 568.359375 C 599.898438 604.734375 635.753906 603.867188 635.753906 603.867188 C 635.753906 603.867188 602.964844 593.027344 614.5 556.277344 " fill-opacity="1" fill-rule="nonzero"/><path fill="#ffffff" d="M 639.601562 290.328125 C 639.601562 290.328125 583.628906 361.464844 483.835938 403.179688 C 483.835938 403.179688 501.324219 418.277344 517.910156 439.777344 C 438.496094 466.632812 370.660156 502.125 314.832031 538.328125 C 314.839844 538.328125 314.847656 538.320312 314.851562 538.3125 C 295.851562 536.992188 276.351562 536.289062 256.8125 536.546875 C 164.777344 537.789062 99.027344 557.917969 99.027344 557.917969 C 161.726562 547.878906 230.785156 547.332031 295.738281 551.054688 C 295.761719 551.039062 295.78125 551.027344 295.796875 551.011719 C 183.765625 627.644531 125.609375 703.34375 125.609375 703.34375 C 152.3125 731.484375 163.429688 767.089844 163.429688 767.089844 C 185.820312 714.90625 260.726562 624.964844 260.726562 624.964844 C 222.640625 656.050781 166.46875 738.042969 166.46875 738.042969 C 163.601562 725.296875 154.316406 708.371094 154.316406 708.371094 C 270.488281 537.804688 497.207031 456.945312 523.882812 447.898438 C 532.621094 460.34375 540.4375 474.363281 544.382812 488.585938 C 544.382812 488.585938 540.605469 451.871094 510.8125 404.496094 C 510.8125 404.496094 575.019531 364.042969 595.664062 343.167969 C 595.664062 343.167969 593.277344 352.957031 578.253906 372.769531 C 578.253906 372.769531 617.359375 343.5625 639.601562 290.328125 " fill-opacity="1" fill-rule="nonzero"/><path fill="#ffffff" d="M 554.890625 401.324219 C 554.890625 401.324219 648.296875 345.574219 688.351562 295.453125 C 688.351562 295.453125 664.140625 348.351562 604.070312 407.886719 C 604.070312 407.886719 665.570312 375.125 694.984375 346.941406 C 694.984375 346.941406 690.5625 376.09375 626.339844 432.191406 C 626.339844 432.191406 652.03125 402 659.535156 386.308594 C 659.535156 386.308594 628.519531 408.085938 564.988281 433.015625 C 564.988281 433.015625 617.464844 385.753906 635.511719 360.34375 C 635.511719 360.34375 598.753906 383.835938 554.890625 401.324219 " fill-opacity="1" fill-rule="nonzero"/><path fill="#ffffff" d="M 472.285156 258.191406 C 472.285156 258.191406 451.792969 212.886719 445.839844 192.613281 C 445.839844 192.613281 478.609375 185.023438 481.734375 152.347656 C 481.734375 152.347656 471.71875 174.914062 445.332031 174.886719 C 418.945312 174.863281 405.109375 158.214844 406.09375 144.480469 C 407.074219 130.746094 448.457031 81.601562 370.53125 69.171875 C 370.53125 69.171875 398.371094 76.886719 401.351562 92.726562 C 404.328125 108.566406 399.339844 115.507812 391.972656 122.878906 C 382.667969 132.183594 376.914062 148.777344 380.921875 158.714844 C 380.921875 158.714844 338.488281 167.898438 311.699219 154.40625 C 284.917969 140.902344 287.703125 125.402344 294.144531 102.800781 C 300.589844 80.195312 279.136719 68.546875 265.757812 73.203125 C 265.757812 73.203125 280.042969 73.367188 282.121094 84.382812 C 284.191406 95.40625 276.265625 106.78125 270.386719 128.570312 C 264.5 150.359375 273.125 157.753906 287.46875 165.75 C 287.46875 165.75 249.015625 201.632812 211.09375 200.921875 C 173.164062 200.214844 187.457031 142.128906 139.902344 154.648438 C 139.902344 154.648438 162.457031 153.253906 166.683594 168.152344 C 170.917969 183.035156 180.667969 219.703125 200.898438 217.324219 C 200.898438 217.324219 178.9375 286.339844 114.972656 268.441406 C 114.972656 268.441406 141.074219 293.476562 175.492188 275.582031 C 175.492188 275.582031 188.78125 307.847656 199.035156 344.628906 C 162.859375 338.589844 121.476562 332.757812 96.53125 284.328125 C 65.074219 223.226562 115.625 144.644531 153.8125 110.484375 C 181.859375 85.382812 268.472656 28.863281 386.953125 52.195312 C 505.429688 75.539062 541.042969 202.132812 472.285156 258.191406 Z M 524.695312 157.097656 C 505.269531 76.613281 401 -0.0234375 248.605469 46.484375 C 96.203125 92.992188 33.582031 233.839844 83.613281 306.425781 C 125.65625 367.4375 186.539062 367.976562 204.898438 366.59375 C 209.671875 390.28125 209.160156 404.285156 211.425781 437.695312 L 234.460938 433.460938 C 230.875 406.757812 218.351562 333.648438 182.722656 268.519531 C 182.722656 268.519531 214.285156 212.667969 283.703125 187.480469 C 353.113281 162.289062 407.238281 177.0625 437.640625 198.441406 C 437.640625 198.441406 454.335938 253.054688 471.109375 289.113281 C 471.109375 289.113281 544.117188 237.582031 524.695312 157.097656 " fill-opacity="1" fill-rule="nonzero"/><path fill="#ffffff" d="M 466.027344 314.617188 C 466.027344 314.617188 368.441406 272.4375 289.808594 323.121094 C 249.410156 349.160156 230.136719 376.253906 220.929688 396.4375 C 218.394531 402.351562 216.144531 408.597656 214.449219 415 C 212.429688 423.429688 212.566406 423.386719 211.925781 427.441406 C 209.5 445.289062 212.402344 463.644531 225.902344 479.316406 C 237.882812 489.003906 251.660156 492.558594 267.066406 487.371094 C 315.542969 471.058594 320.265625 422.726562 380.859375 399.945312 C 380.859375 399.945312 342.964844 405.808594 318.304688 433.058594 C 293.632812 460.308594 248.410156 492.25 236.28125 449.925781 C 224.152344 407.597656 270.394531 326 353.175781 311.125 C 435.953125 296.25 506.84375 347.316406 459.78125 358.976562 C 459.78125 358.976562 487.175781 362.613281 489.210938 341.761719 C 490.554688 328.019531 476.84375 321.417969 466.027344 314.617188 " fill-opacity="1" fill-rule="nonzero"/><g clip-path="url(#2b0826c46a)"><path fill="#ffffff" d="M 406.644531 623.871094 C 405.277344 673.949219 404.167969 675.058594 354.089844 676.425781 C 404.167969 677.792969 405.277344 678.902344 406.644531 728.980469 C 408.011719 678.902344 409.121094 677.792969 459.199219 676.425781 C 409.121094 675.058594 408.011719 673.949219 406.644531 623.871094 " fill-opacity="1" fill-rule="nonzero"/></g><g clip-path="url(#9371cd6b54)"><path fill="#ffffff" d="M 359.449219 685.300781 C 359.054688 699.742188 358.734375 700.0625 344.292969 700.457031 C 358.734375 700.851562 359.054688 701.171875 359.449219 715.613281 C 359.84375 701.171875 360.164062 700.851562 374.605469 700.457031 C 360.164062 700.0625 359.84375 699.742188 359.449219 685.300781 " fill-opacity="1" fill-rule="nonzero"/></g><g clip-path="url(#a4f9abcd9c)"><path fill="#ffffff" d="M 442.683594 661.164062 C 443.28125 639.222656 443.765625 638.738281 465.707031 638.140625 C 443.765625 637.539062 443.28125 637.054688 442.683594 615.113281 C 442.082031 637.054688 441.597656 637.539062 419.65625 638.140625 C 441.597656 638.738281 442.082031 639.222656 442.683594 661.164062 " fill-opacity="1" fill-rule="nonzero"/></g></svg>