<svg xmlns="http://www.w3.org/2000/svg" xmlns:xlink="http://www.w3.org/1999/xlink" width="1080" zoomAndPan="magnify" viewBox="0 0 810 809.999993" height="1080" preserveAspectRatio="xMidYMid meet" version="1.0"><defs><clipPath id="176b1105d2"><path d="M 396 13.628906 L 418 13.628906 L 418 130 L 396 130 Z M 396 13.628906 " clip-rule="nonzero"/></clipPath><clipPath id="793da37d95"><path d="M 529 527.894531 L 663 527.894531 L 663 632 L 529 632 Z M 529 527.894531 " clip-rule="nonzero"/></clipPath><clipPath id="3bca74533d"><path d="M 498 564 L 674.863281 564 L 674.863281 720.644531 L 498 720.644531 Z M 498 564 " clip-rule="nonzero"/></clipPath><clipPath id="f18659fe60"><path d="M 95.910156 527.894531 L 303.660156 527.894531 L 303.660156 773.894531 L 95.910156 773.894531 Z M 95.910156 527.894531 " clip-rule="nonzero"/></clipPath></defs><path fill="#ffffff" d="M 478.652344 745.976562 L 341.742188 692.253906 C 335.675781 689.652344 329.613281 692.253906 327.878906 698.316406 C 326.144531 704.382812 328.746094 710.449219 333.945312 712.183594 L 470.855469 765.90625 C 473.453125 766.773438 481.253906 768.507812 484.71875 760.707031 C 488.1875 753.777344 482.988281 747.710938 478.652344 745.976562 Z M 478.652344 745.976562 " fill-opacity="1" fill-rule="nonzero"/><path fill="#ffffff" d="M 411.929688 773.707031 L 341.742188 745.976562 C 336.542969 743.378906 329.613281 745.976562 327.011719 751.175781 C 324.414062 756.375 327.011719 763.308594 332.210938 765.90625 C 332.210938 765.90625 403.265625 793.636719 403.265625 793.636719 C 406.730469 794.503906 412.796875 796.234375 417.128906 787.570312 C 419.730469 782.371094 417.128906 775.4375 411.929688 773.707031 Z M 411.929688 773.707031 " fill-opacity="1" fill-rule="nonzero"/><path fill="#ffffff" d="M 490.785156 145.472656 C 491.652344 146.339844 493.386719 146.339844 495.117188 146.339844 C 499.449219 146.339844 503.78125 143.742188 505.515625 139.410156 L 540.175781 51.890625 C 542.777344 46.691406 539.3125 39.757812 534.113281 38.023438 C 528.914062 35.425781 521.980469 38.890625 520.246094 44.089844 L 485.585938 131.609375 C 482.121094 136.808594 484.71875 143.742188 490.785156 145.472656 Z M 490.785156 145.472656 " fill-opacity="1" fill-rule="nonzero"/><g clip-path="url(#176b1105d2)"><path fill="#ffffff" d="M 406.730469 129.011719 C 412.796875 129.011719 417.128906 123.8125 417.128906 118.613281 L 417.128906 24.160156 C 417.128906 18.09375 411.929688 13.761719 406.730469 13.761719 C 401.53125 13.761719 396.332031 18.960938 396.332031 24.160156 L 396.332031 118.613281 C 395.46875 124.675781 400.667969 129.011719 406.730469 129.011719 Z M 406.730469 129.011719 " fill-opacity="1" fill-rule="nonzero"/></g><path fill="#ffffff" d="M 229.960938 195.734375 C 231.695312 197.464844 234.292969 199.199219 237.757812 199.199219 C 240.359375 199.199219 243.824219 198.332031 245.558594 195.734375 C 249.890625 191.398438 249.890625 184.46875 245.558594 180.136719 L 178.835938 113.414062 C 174.503906 109.082031 167.570312 109.945312 163.238281 114.28125 C 159.773438 118.613281 159.773438 124.675781 163.238281 129.011719 Z M 229.960938 195.734375 " fill-opacity="1" fill-rule="nonzero"/><path fill="#ffffff" d="M 194.433594 272.855469 C 197.03125 267.65625 193.566406 260.722656 188.367188 258.988281 L 100.847656 224.328125 C 95.648438 220.863281 88.71875 222.59375 86.117188 227.792969 C 82.652344 232.992188 84.382812 239.925781 89.582031 242.523438 C 90.449219 243.390625 181.433594 278.917969 181.433594 278.917969 C 182.300781 279.785156 184.035156 279.785156 185.769531 279.785156 C 189.234375 279.785156 192.699219 277.1875 194.433594 272.855469 Z M 194.433594 272.855469 " fill-opacity="1" fill-rule="nonzero"/><path fill="#ffffff" d="M 307.949219 139.410156 C 309.679688 143.742188 314.015625 146.339844 318.347656 146.339844 C 320.078125 146.339844 320.945312 146.339844 322.679688 145.472656 C 327.878906 142.875 331.34375 136.808594 328.746094 131.609375 L 294.082031 44.089844 C 291.484375 38.890625 285.417969 35.425781 280.21875 38.023438 C 275.019531 40.625 271.554688 46.691406 274.152344 51.890625 Z M 307.949219 139.410156 " fill-opacity="1" fill-rule="nonzero"/><path fill="#ffffff" d="M 574.839844 199.199219 C 577.4375 199.199219 580.039062 198.332031 582.636719 195.734375 L 649.359375 129.011719 C 653.691406 124.675781 654.558594 118.613281 650.226562 113.414062 C 645.894531 109.082031 639.828125 108.214844 634.628906 112.546875 C 634.628906 112.546875 633.761719 113.414062 633.761719 113.414062 L 567.039062 180.136719 C 562.707031 184.46875 562.707031 191.398438 567.039062 195.734375 C 569.640625 198.332031 572.238281 199.199219 574.839844 199.199219 Z M 574.839844 199.199219 " fill-opacity="1" fill-rule="nonzero"/><path fill="#ffffff" d="M 725.613281 230.394531 C 723.015625 225.195312 716.949219 222.59375 711.75 224.328125 L 624.230469 258.988281 C 619.03125 261.589844 615.566406 267.65625 618.164062 272.855469 C 619.898438 277.1875 623.363281 279.785156 628.5625 279.785156 C 630.296875 279.785156 631.164062 279.785156 632.894531 278.917969 L 720.414062 244.257812 C 724.746094 242.523438 727.347656 235.59375 725.613281 230.394531 Z M 725.613281 230.394531 " fill-opacity="1" fill-rule="nonzero"/><path fill="#ffffff" d="M 361.671875 325.710938 C 361.671875 334.375 370.339844 343.910156 378.136719 346.507812 L 397.199219 354.308594 L 397.199219 271.121094 L 390.269531 271.121094 C 374.671875 271.121094 361.671875 284.117188 361.671875 299.714844 C 361.671875 299.714844 361.671875 325.710938 361.671875 325.710938 Z M 361.671875 325.710938 " fill-opacity="1" fill-rule="nonzero"/><path fill="#ffffff" d="M 419.730469 467.820312 L 422.328125 467.820312 C 437.925781 467.820312 450.925781 454.824219 450.925781 439.226562 L 450.925781 412.363281 C 450.925781 405.433594 445.726562 395.898438 433.59375 390.699219 L 419.730469 386.367188 Z M 419.730469 467.820312 " fill-opacity="1" fill-rule="nonzero"/><path fill="#ffffff" d="M 403.265625 147.207031 C 284.550781 148.941406 188.367188 245.992188 189.234375 364.707031 C 189.234375 426.230469 215.230469 484.285156 260.289062 525.878906 C 262.023438 526.746094 263.753906 529.34375 266.355469 531.078125 C 300.148438 561.40625 320.945312 603.867188 325.277344 648.925781 C 326.144531 652.390625 328.746094 655.859375 332.210938 657.589844 L 469.121094 711.316406 C 469.988281 712.183594 476.054688 713.046875 478.652344 710.449219 C 481.253906 708.714844 483.851562 705.25 483.851562 701.785156 L 487.320312 648.058594 C 491.652344 603 512.449219 561.40625 546.242188 531.078125 L 553.175781 525.878906 C 641.5625 444.425781 647.625 307.515625 567.039062 219.128906 C 527.179688 174.9375 469.988281 149.808594 411.066406 148.941406 C 408.464844 147.207031 404.132812 147.207031 403.265625 147.207031 Z M 471.722656 311.847656 C 471.722656 317.914062 466.523438 322.246094 461.324219 322.246094 C 456.125 322.246094 450.925781 317.046875 450.925781 311.847656 L 450.925781 299.714844 C 450.925781 284.117188 438.792969 271.121094 423.195312 271.121094 L 420.597656 271.121094 L 420.597656 362.972656 C 420.597656 362.972656 444.859375 372.503906 444.859375 372.503906 C 463.921875 381.167969 472.589844 398.5 472.589844 413.230469 L 472.589844 440.09375 C 472.589844 467.820312 450.058594 490.351562 422.328125 490.351562 L 419.730469 490.351562 L 419.730469 506.816406 C 419.730469 512.882812 414.53125 517.214844 409.332031 517.214844 C 404.132812 517.214844 398.933594 512.015625 398.933594 506.816406 L 398.933594 490.351562 L 392 490.351562 C 364.273438 490.351562 341.742188 467.820312 341.742188 440.09375 L 341.742188 427.960938 C 341.742188 421.894531 346.941406 417.5625 352.140625 417.5625 C 357.339844 417.5625 362.539062 422.761719 362.539062 427.960938 L 362.539062 440.09375 C 362.539062 455.691406 375.539062 468.6875 391.136719 468.6875 L 398.066406 468.6875 L 398.066406 377.703125 C 398.066406 377.703125 368.605469 366.4375 367.738281 365.570312 C 349.542969 357.773438 340.875 340.441406 340.875 325.710938 L 340.875 299.714844 C 340.875 271.988281 363.40625 249.457031 391.136719 249.457031 L 398.066406 249.457031 L 398.066406 233.859375 C 398.066406 227.792969 403.265625 223.460938 408.464844 223.460938 C 413.664062 223.460938 418.863281 228.660156 418.863281 233.859375 L 418.863281 249.457031 L 422.328125 249.457031 C 450.058594 249.457031 472.589844 271.988281 471.722656 299.714844 Z M 471.722656 311.847656 " fill-opacity="1" fill-rule="nonzero"/><path fill="#ffffff" d="M 586.320312 687.941406 C 587.925781 687.941406 589.300781 686.796875 589.300781 685.191406 C 589.300781 683.585938 588.15625 682.210938 586.550781 682.210938 C 584.945312 682.210938 583.570312 683.355469 583.570312 684.960938 C 583.570312 686.566406 584.714844 687.714844 586.320312 687.941406 Z M 586.320312 687.941406 " fill-opacity="1" fill-rule="nonzero"/><g clip-path="url(#793da37d95)"><path fill="#ffffff" d="M 640.664062 533.628906 L 653.046875 533.628906 L 588.84375 605.398438 L 563.164062 587.511719 C 561.785156 586.59375 560.179688 586.824219 559.265625 588.199219 L 530.144531 627.410156 C 529.226562 628.785156 529.457031 630.390625 530.832031 631.535156 C 531.289062 631.996094 531.976562 631.996094 532.664062 631.996094 C 533.582031 631.996094 534.5 631.535156 534.957031 630.847656 L 562.472656 593.703125 L 587.695312 611.585938 C 588.84375 612.503906 590.449219 612.277344 591.59375 611.128906 L 656.945312 537.753906 L 656.945312 548.300781 C 656.945312 549.90625 658.089844 551.054688 659.695312 551.054688 C 661.300781 551.054688 662.445312 549.679688 662.445312 548.300781 L 662.445312 530.648438 C 662.445312 529.042969 661.070312 527.894531 659.695312 527.894531 L 640.433594 527.894531 C 638.828125 527.894531 637.683594 529.269531 637.683594 530.648438 C 637.683594 532.023438 639.058594 533.628906 640.664062 533.628906 Z M 640.664062 533.628906 " fill-opacity="1" fill-rule="nonzero"/></g><g clip-path="url(#3bca74533d)"><path fill="#ffffff" d="M 674.140625 571.917969 C 674.140625 567.5625 670.703125 564.125 666.574219 564.125 L 643.1875 564.125 C 641.582031 564.125 640.433594 565.5 640.433594 566.875 C 640.433594 568.25 641.808594 569.625 643.1875 569.625 L 666.34375 569.625 C 667.492188 569.625 668.179688 570.542969 668.179688 571.691406 L 668.179688 671.433594 L 658.320312 671.433594 L 658.320312 587.742188 C 658.320312 586.136719 656.945312 584.988281 655.566406 584.988281 L 639.058594 584.988281 C 637.453125 584.988281 636.308594 586.367188 636.308594 587.742188 L 636.308594 671.664062 L 623.925781 671.664062 L 623.925781 639.5625 C 623.925781 637.957031 622.550781 636.808594 621.171875 636.808594 L 604.207031 636.808594 C 602.601562 636.808594 601.453125 638.1875 601.453125 639.5625 L 601.453125 671.664062 L 589.074219 671.664062 L 589.074219 629.929688 C 589.074219 628.328125 587.695312 627.179688 586.320312 627.179688 L 569.8125 627.179688 C 568.207031 627.179688 567.058594 628.554688 567.058594 629.929688 L 567.058594 671.664062 L 554.679688 671.664062 L 554.679688 653.777344 C 554.679688 652.171875 553.300781 651.027344 551.925781 651.027344 L 535.1875 651.027344 C 533.582031 651.027344 532.4375 652.402344 532.4375 653.777344 L 532.4375 671.664062 L 504.234375 671.664062 L 504.234375 659.511719 L 519.136719 659.511719 C 520.742188 659.511719 521.890625 658.132812 521.890625 656.757812 C 521.890625 655.382812 520.511719 654.007812 519.136719 654.007812 L 504.234375 654.007812 L 504.234375 642.542969 L 519.136719 642.542969 C 520.742188 642.542969 521.890625 641.167969 521.890625 639.792969 C 521.890625 638.414062 520.511719 637.039062 519.136719 637.039062 L 504.234375 637.039062 L 504.234375 625.574219 L 519.136719 625.574219 C 520.742188 625.574219 521.890625 624.199219 521.890625 622.824219 C 521.890625 621.449219 520.511719 620.070312 519.136719 620.070312 L 504.234375 620.070312 L 504.234375 608.605469 L 519.136719 608.605469 C 520.742188 608.605469 521.890625 607.230469 521.890625 605.855469 C 521.890625 604.480469 520.511719 603.105469 519.136719 603.105469 L 504.234375 603.105469 L 504.234375 591.640625 L 519.136719 591.640625 C 520.742188 591.640625 521.890625 590.261719 521.890625 588.886719 C 521.890625 587.28125 520.511719 586.136719 519.136719 586.136719 L 504.234375 586.136719 L 504.234375 573.066406 C 504.234375 571.917969 505.152344 571.003906 506.066406 571.003906 L 611.085938 571.003906 C 612.691406 571.003906 613.835938 569.625 613.835938 568.25 C 613.835938 566.875 612.460938 565.5 611.085938 565.5 L 506.296875 565.5 C 501.941406 565.5 498.730469 568.9375 498.730469 573.296875 L 498.5 689.320312 C 498.730469 694.132812 502.398438 697.804688 507.214844 698.261719 L 564.078125 698.261719 C 564.078125 702.390625 564.078125 709.265625 563.851562 710.871094 C 563.164062 713.164062 561.328125 714.769531 559.035156 715.457031 L 550.320312 715.457031 C 548.714844 715.457031 547.570312 716.835938 547.570312 718.210938 C 547.570312 719.585938 548.945312 720.960938 550.320312 720.960938 L 622.550781 720.960938 C 624.15625 720.960938 625.300781 719.585938 625.300781 718.210938 C 625.300781 716.835938 623.925781 715.457031 622.550781 715.457031 L 613.378906 715.457031 C 611.085938 714.769531 609.480469 713.164062 609.019531 710.871094 C 608.792969 709.265625 608.792969 702.390625 608.5625 698.261719 L 666.804688 698.261719 C 671.390625 698.261719 674.140625 693.90625 674.140625 689.546875 Z M 668.636719 689.546875 C 668.636719 690.925781 667.949219 692.527344 667.03125 692.527344 L 506.984375 692.527344 C 505.378906 692.300781 504.234375 690.925781 504.003906 689.320312 L 504.003906 677.625 L 668.410156 677.625 L 668.410156 689.546875 Z M 668.636719 689.546875 " fill-opacity="1" fill-rule="nonzero"/></g><g clip-path="url(#f18659fe60)"><path fill="#ffffff" d="M 105.917969 740.292969 L 139.78125 740.292969 L 139.78125 774.152344 L 105.917969 774.152344 Z M 146.707031 774.152344 L 180.566406 774.152344 L 180.566406 705.664062 L 146.707031 705.664062 Z M 188.261719 774.152344 L 222.121094 774.152344 L 222.121094 671.800781 L 188.261719 671.800781 Z M 229.046875 774.152344 L 262.910156 774.152344 L 262.910156 637.171875 L 229.046875 637.171875 Z M 269.835938 603.3125 L 269.835938 774.152344 L 303.695312 774.152344 L 303.695312 603.3125 Z M 259.828125 567.914062 L 272.914062 572.53125 L 263.679688 527.894531 L 228.277344 556.367188 L 239.820312 560.984375 C 215.195312 630.246094 162.867188 685.652344 95.914062 715.667969 C 169.792969 691.8125 229.046875 637.171875 259.828125 567.914062 Z M 259.828125 567.914062 " fill-opacity="1" fill-rule="nonzero"/></g></svg>