<svg xmlns="http://www.w3.org/2000/svg" xmlns:xlink="http://www.w3.org/1999/xlink" width="1080" zoomAndPan="magnify" viewBox="0 0 810 809.999993" height="1080" preserveAspectRatio="xMidYMid meet" version="1.0"><defs><clipPath id="b6ae52e612"><path d="M 216 220 L 632.25 220 L 632.25 607.839844 L 216 607.839844 Z M 216 220 " clip-rule="nonzero"/></clipPath><clipPath id="03e12f953a"><path d="M 81 61.089844 L 394 61.089844 L 394 101 L 81 101 Z M 81 61.089844 " clip-rule="nonzero"/></clipPath><clipPath id="4ab9c4372d"><path d="M 504 339.671875 L 587.996094 339.671875 L 587.996094 419 L 504 419 Z M 504 339.671875 " clip-rule="nonzero"/></clipPath><clipPath id="f63bf8dcda"><path d="M 424 401 L 568 401 L 568 470.171875 L 424 470.171875 Z M 424 401 " clip-rule="nonzero"/></clipPath><clipPath id="e5ca38f3e0"><path d="M 423.746094 383 L 430 383 L 430 389 L 423.746094 389 Z M 423.746094 383 " clip-rule="nonzero"/></clipPath></defs><g clip-path="url(#b6ae52e612)"><path fill="#ffffff" d="M 604.425781 220.257812 L 414.746094 220.257812 L 414.746094 251.039062 L 601.257812 251.039062 L 601.257812 484.894531 L 247.296875 484.894531 L 247.296875 377.425781 L 216.515625 377.425781 L 216.515625 488.046875 C 216.515625 493.753906 218.25 499.074219 221.238281 503.480469 C 223.71875 507.15625 227.066406 510.207031 230.964844 512.34375 C 234.878906 514.464844 239.363281 515.675781 244.117188 515.675781 L 410.398438 515.675781 L 410.398438 553.089844 C 389.613281 554.390625 371.636719 558.546875 359.890625 564.359375 C 350.746094 568.886719 345.382812 574.414062 345.382812 580.390625 C 345.382812 595.691406 380.691406 608.109375 424.277344 608.109375 C 467.851562 608.109375 503.175781 595.691406 503.175781 580.390625 C 503.175781 572.710938 494.285156 565.761719 479.941406 560.742188 C 468.792969 556.839844 454.3125 554.105469 438.144531 553.089844 L 438.144531 515.675781 L 604.425781 515.675781 C 613.929688 515.675781 622.34375 510.832031 627.304688 503.480469 C 630.292969 499.074219 632.027344 493.753906 632.027344 488.046875 L 632.027344 247.859375 C 632.027344 232.660156 619.636719 220.257812 604.425781 220.257812 " fill-opacity="1" fill-rule="nonzero"/></g><path fill="#ffffff" d="M 200.992188 194.929688 L 132.464844 234.5 C 131.910156 234.828125 131.910156 235.636719 132.464844 235.964844 L 200.992188 275.53125 C 201.558594 275.859375 202.261719 275.441406 202.261719 274.800781 L 202.261719 256.089844 C 202.261719 255.777344 202.113281 255.507812 201.84375 255.34375 L 168.265625 235.964844 C 167.699219 235.636719 167.699219 234.828125 168.265625 234.5 L 201.84375 215.117188 C 202.113281 214.953125 202.261719 214.671875 202.261719 214.371094 L 202.261719 195.664062 C 202.261719 195.019531 201.558594 194.601562 200.992188 194.929688 " fill-opacity="1" fill-rule="nonzero"/><path fill="#ffffff" d="M 273.640625 275.53125 L 342.167969 235.964844 C 342.738281 235.636719 342.738281 234.828125 342.167969 234.5 L 273.640625 194.929688 C 273.074219 194.601562 272.371094 195.019531 272.371094 195.664062 L 272.371094 214.371094 C 272.371094 214.671875 272.535156 214.953125 272.789062 215.117188 L 306.382812 234.5 C 306.949219 234.828125 306.949219 235.636719 306.382812 235.964844 L 272.789062 255.34375 C 272.535156 255.507812 272.371094 255.777344 272.371094 256.089844 L 272.371094 274.800781 C 272.371094 275.441406 273.074219 275.859375 273.640625 275.53125 " fill-opacity="1" fill-rule="nonzero"/><path fill="#ffffff" d="M 266.589844 180.035156 L 249.078125 179.585938 L 208.042969 290.429688 L 225.453125 291.191406 L 266.589844 180.035156 " fill-opacity="1" fill-rule="nonzero"/><path fill="#ffffff" d="M 104.820312 138.285156 L 369.8125 138.285156 L 369.8125 332.492188 L 104.820312 332.492188 Z M 247.296875 356.328125 L 393.644531 356.328125 L 393.644531 114.464844 L 81 114.464844 L 81 356.328125 L 247.296875 356.328125 " fill-opacity="1" fill-rule="nonzero"/><g clip-path="url(#03e12f953a)"><path fill="#ffffff" d="M 346.695312 88.570312 C 342.316406 88.570312 338.777344 85.011719 338.777344 80.636719 C 338.777344 76.273438 342.316406 72.714844 346.695312 72.714844 C 351.074219 72.714844 354.617188 76.273438 354.617188 80.636719 C 354.617188 85.011719 351.074219 88.570312 346.695312 88.570312 Z M 315.136719 88.570312 C 310.773438 88.570312 307.21875 85.011719 307.21875 80.636719 C 307.21875 76.273438 310.773438 72.714844 315.136719 72.714844 C 319.515625 72.714844 323.058594 76.273438 323.058594 80.636719 C 323.058594 85.011719 319.515625 88.570312 315.136719 88.570312 Z M 283.59375 88.570312 C 279.214844 88.570312 275.675781 85.011719 275.675781 80.636719 C 275.675781 76.273438 279.214844 72.714844 283.59375 72.714844 C 287.972656 72.714844 291.511719 76.273438 291.511719 80.636719 C 291.511719 85.011719 287.972656 88.570312 283.59375 88.570312 Z M 253.976562 88.0625 L 127.441406 88.0625 C 123.347656 88.0625 120.03125 84.746094 120.03125 80.636719 C 120.03125 76.539062 123.347656 73.222656 127.441406 73.222656 L 253.976562 73.222656 C 258.070312 73.222656 261.390625 76.539062 261.390625 80.636719 C 261.390625 84.746094 258.070312 88.0625 253.976562 88.0625 Z M 354.542969 61.089844 L 120.105469 61.089844 C 98.5 61.089844 81 78.601562 81 100.195312 L 393.644531 100.195312 C 393.644531 78.601562 376.132812 61.089844 354.542969 61.089844 " fill-opacity="1" fill-rule="nonzero"/></g><path fill="#ffffff" d="M 429.109375 370.316406 L 424.027344 370.316406 L 424.027344 342.644531 L 435.980469 342.644531 C 438.167969 342.644531 440.226562 343.496094 441.769531 345.042969 C 443.320312 346.59375 444.167969 348.648438 444.167969 350.832031 C 444.167969 353.019531 443.320312 355.074219 441.773438 356.621094 C 440.222656 358.167969 438.167969 359.019531 435.980469 359.019531 L 429.109375 359.019531 Z M 429.109375 353.9375 L 435.980469 353.9375 C 436.808594 353.9375 437.59375 353.613281 438.179688 353.027344 C 438.761719 352.445312 439.085938 351.664062 439.085938 350.832031 C 439.085938 350.003906 438.761719 349.222656 438.175781 348.636719 C 437.59375 348.050781 436.8125 347.726562 435.980469 347.726562 L 429.109375 347.726562 Z M 429.109375 353.9375 " fill-opacity="1" fill-rule="nonzero"/><path fill="#ffffff" d="M 481.8125 370.316406 L 476.730469 370.316406 L 476.730469 342.644531 L 488.683594 342.644531 C 490.871094 342.644531 492.925781 343.496094 494.472656 345.042969 C 496.019531 346.589844 496.871094 348.644531 496.871094 350.832031 C 496.871094 353.019531 496.019531 355.078125 494.472656 356.625 C 492.925781 358.171875 490.867188 359.019531 488.683594 359.019531 L 481.8125 359.019531 Z M 481.8125 353.9375 L 488.683594 353.9375 C 489.511719 353.9375 490.292969 353.613281 490.878906 353.027344 C 491.464844 352.445312 491.789062 351.664062 491.789062 350.832031 C 491.789062 350.003906 491.464844 349.222656 490.878906 348.636719 C 490.292969 348.050781 489.511719 347.726562 488.683594 347.726562 L 481.8125 347.726562 Z M 481.8125 353.9375 " fill-opacity="1" fill-rule="nonzero"/><path fill="#ffffff" d="M 450.378906 342.644531 L 455.460938 342.644531 L 455.460938 370.316406 L 450.378906 370.316406 Z M 450.378906 342.644531 " fill-opacity="1" fill-rule="nonzero"/><path fill="#ffffff" d="M 465.4375 342.644531 L 470.519531 342.644531 L 470.519531 370.316406 L 465.4375 370.316406 Z M 465.4375 342.644531 " fill-opacity="1" fill-rule="nonzero"/><path fill="#ffffff" d="M 450.378906 353.9375 L 470.519531 353.9375 L 470.519531 359.019531 L 450.378906 359.019531 Z M 450.378906 353.9375 " fill-opacity="1" fill-rule="nonzero"/><g clip-path="url(#4ab9c4372d)"><path fill="#ffffff" d="M 566.3125 418.886719 L 563.890625 414.421875 C 575.839844 407.9375 583.265625 395.472656 583.265625 381.890625 C 583.265625 361.492188 566.671875 344.902344 546.277344 344.902344 C 525.886719 344.902344 509.296875 361.496094 509.296875 381.890625 C 509.296875 389.488281 511.585938 396.796875 515.929688 403.023438 L 511.761719 405.929688 C 506.824219 398.847656 504.210938 390.535156 504.210938 381.890625 C 504.210938 358.695312 523.082031 339.820312 546.277344 339.820312 C 569.476562 339.820312 588.347656 358.695312 588.347656 381.890625 C 588.347656 397.339844 579.902344 411.515625 566.3125 418.886719 Z M 566.3125 418.886719 " fill-opacity="1" fill-rule="nonzero"/></g><path fill="#ffffff" d="M 531.222656 395.722656 L 527.457031 395.722656 C 525.265625 395.722656 523.210938 394.871094 521.667969 393.324219 C 520.121094 391.777344 519.265625 389.722656 519.265625 387.535156 L 519.265625 376.242188 C 519.265625 374.054688 520.117188 372 521.667969 370.453125 C 523.210938 368.90625 525.269531 368.054688 527.457031 368.054688 L 531.222656 368.054688 C 533.410156 368.054688 535.464844 368.90625 537.011719 370.453125 C 538.554688 372 539.410156 374.054688 539.410156 376.242188 L 539.410156 378.785156 L 534.328125 378.785156 L 534.328125 376.242188 C 534.328125 375.414062 534.003906 374.632812 533.417969 374.046875 C 532.832031 373.460938 532.050781 373.136719 531.222656 373.136719 L 527.457031 373.136719 C 526.625 373.136719 525.847656 373.460938 525.261719 374.046875 C 524.671875 374.632812 524.347656 375.414062 524.347656 376.242188 L 524.347656 387.535156 C 524.347656 388.363281 524.671875 389.144531 525.261719 389.730469 C 525.84375 390.316406 526.625 390.640625 527.457031 390.640625 L 531.222656 390.640625 C 532.050781 390.640625 532.832031 390.316406 533.417969 389.730469 C 534.003906 389.144531 534.328125 388.363281 534.328125 387.535156 L 534.328125 384.992188 L 539.410156 384.992188 L 539.410156 387.535156 C 539.410156 389.722656 538.558594 391.777344 537.011719 393.324219 C 535.464844 394.875 533.410156 395.722656 531.222656 395.722656 Z M 531.222656 395.722656 " fill-opacity="1" fill-rule="nonzero"/><path fill="#ffffff" d="M 551.265625 368.054688 L 556.347656 368.054688 L 556.347656 395.722656 L 551.265625 395.722656 Z M 551.265625 368.054688 " fill-opacity="1" fill-rule="nonzero"/><path fill="#ffffff" d="M 562.558594 368.054688 L 567.640625 368.054688 L 567.640625 395.722656 L 562.558594 395.722656 Z M 562.558594 368.054688 " fill-opacity="1" fill-rule="nonzero"/><path fill="#ffffff" d="M 545.621094 384.996094 L 573.289062 384.996094 L 573.289062 390.078125 L 545.621094 390.078125 Z M 545.621094 384.996094 " fill-opacity="1" fill-rule="nonzero"/><path fill="#ffffff" d="M 545.621094 373.703125 L 573.289062 373.703125 L 573.289062 378.785156 L 545.621094 378.785156 Z M 545.621094 373.703125 " fill-opacity="1" fill-rule="nonzero"/><g clip-path="url(#f63bf8dcda)"><path fill="#ffffff" d="M 567.644531 470.261719 L 424.027344 470.261719 L 424.027344 401.9375 L 567.644531 401.9375 Z M 429.109375 465.179688 L 562.558594 465.179688 L 562.558594 407.015625 L 429.109375 407.015625 Z M 429.109375 465.179688 " fill-opacity="1" fill-rule="nonzero"/></g><path fill="#ffffff" d="M 547.316406 449.933594 L 535.363281 449.933594 C 533.171875 449.933594 531.117188 449.078125 529.570312 447.53125 C 528.027344 445.988281 527.171875 443.929688 527.171875 441.746094 L 527.171875 422.265625 L 532.253906 422.265625 L 532.253906 441.746094 C 532.253906 442.574219 532.578125 443.355469 533.167969 443.941406 C 533.75 444.527344 534.53125 444.847656 535.359375 444.847656 L 547.3125 444.847656 L 547.3125 449.933594 Z M 547.316406 449.933594 " fill-opacity="1" fill-rule="nonzero"/><path fill="#ffffff" d="M 520.960938 449.933594 L 515.878906 449.933594 L 515.878906 431.824219 L 510.964844 437.726562 C 509.996094 438.882812 508.027344 438.882812 507.058594 437.726562 L 502.140625 431.824219 L 502.140625 449.933594 L 497.058594 449.933594 L 497.058594 424.804688 C 497.058594 423.734375 497.726562 422.78125 498.734375 422.414062 C 499.738281 422.050781 500.863281 422.355469 501.550781 423.179688 L 509.011719 432.128906 L 516.46875 423.179688 C 517.15625 422.355469 518.285156 422.050781 519.285156 422.414062 C 520.292969 422.78125 520.960938 423.734375 520.960938 424.804688 Z M 520.960938 449.933594 " fill-opacity="1" fill-rule="nonzero"/><path fill="#ffffff" d="M 478.234375 422.261719 L 483.320312 422.261719 L 483.320312 449.929688 L 478.234375 449.929688 Z M 478.234375 422.261719 " fill-opacity="1" fill-rule="nonzero"/><path fill="#ffffff" d="M 470.707031 422.261719 L 490.847656 422.261719 L 490.847656 427.34375 L 470.707031 427.34375 Z M 470.707031 422.261719 " fill-opacity="1" fill-rule="nonzero"/><path fill="#ffffff" d="M 444.355469 422.261719 L 449.4375 422.261719 L 449.4375 449.929688 L 444.355469 449.929688 Z M 444.355469 422.261719 " fill-opacity="1" fill-rule="nonzero"/><path fill="#ffffff" d="M 459.414062 422.261719 L 464.496094 422.261719 L 464.496094 449.929688 L 459.414062 449.929688 Z M 459.414062 422.261719 " fill-opacity="1" fill-rule="nonzero"/><path fill="#ffffff" d="M 444.355469 433.554688 L 464.496094 433.554688 L 464.496094 438.636719 L 444.355469 438.636719 Z M 444.355469 433.554688 " fill-opacity="1" fill-rule="nonzero"/><path fill="#ffffff" d="M 446.332031 383.582031 L 451.976562 383.582031 L 451.976562 388.667969 L 446.332031 388.667969 Z M 446.332031 383.582031 " fill-opacity="1" fill-rule="nonzero"/><path fill="#ffffff" d="M 435.039062 383.582031 L 440.683594 383.582031 L 440.683594 388.667969 L 435.039062 388.667969 Z M 435.039062 383.582031 " fill-opacity="1" fill-rule="nonzero"/><g clip-path="url(#e5ca38f3e0)"><path fill="#ffffff" d="M 423.746094 383.582031 L 429.390625 383.582031 L 429.390625 388.667969 L 423.746094 388.667969 Z M 423.746094 383.582031 " fill-opacity="1" fill-rule="nonzero"/></g></svg>