<svg xmlns="http://www.w3.org/2000/svg" xmlns:xlink="http://www.w3.org/1999/xlink" width="1080" zoomAndPan="magnify" viewBox="0 0 810 809.999993" height="1080" preserveAspectRatio="xMidYMid meet" version="1.0"><defs><clipPath id="9383234e7f"><path d="M 635.96875 81 L 729 81 L 729 174.03125 L 635.96875 174.03125 Z M 635.96875 81 " clip-rule="nonzero"/></clipPath><clipPath id="7f7e93c2a0"><path d="M 682.484375 81 L 691.515625 93.816406 L 705.742188 87.230469 L 707.152344 102.847656 L 722.769531 104.257812 L 716.183594 118.484375 L 729 127.515625 L 716.183594 136.546875 L 722.769531 150.773438 L 707.152344 152.183594 L 705.742188 167.800781 L 691.515625 161.214844 L 682.484375 174.03125 L 673.453125 161.214844 L 659.226562 167.800781 L 657.816406 152.183594 L 642.199219 150.773438 L 648.785156 136.546875 L 635.96875 127.515625 L 648.785156 118.484375 L 642.199219 104.257812 L 657.816406 102.847656 L 659.226562 87.230469 L 673.453125 93.816406 Z M 682.484375 81 " clip-rule="nonzero"/></clipPath></defs><path fill="#ffffff" d="M 228.300781 748.046875 C 228.46875 748.667969 228.6875 749.273438 228.957031 749.859375 C 229.222656 750.445312 229.539062 751.003906 229.902344 751.535156 C 230.265625 752.066406 230.671875 752.566406 231.117188 753.03125 C 231.5625 753.496094 232.046875 753.917969 232.5625 754.300781 C 233.082031 754.683594 233.628906 755.023438 234.203125 755.3125 C 234.777344 755.605469 235.371094 755.847656 235.988281 756.039062 C 236.601562 756.230469 237.230469 756.367188 237.867188 756.453125 C 238.503906 756.539062 239.148438 756.570312 239.789062 756.546875 L 569.398438 756.546875 C 570.042969 756.570312 570.683594 756.539062 571.320312 756.453125 C 571.960938 756.367188 572.585938 756.230469 573.203125 756.039062 C 573.816406 755.847656 574.410156 755.605469 574.988281 755.3125 C 575.5625 755.023438 576.109375 754.683594 576.625 754.300781 C 577.144531 753.917969 577.625 753.496094 578.070312 753.03125 C 578.519531 752.566406 578.921875 752.066406 579.285156 751.535156 C 579.648438 751.003906 579.964844 750.445312 580.234375 749.859375 C 580.5 749.273438 580.71875 748.667969 580.886719 748.046875 L 664.753906 436.707031 C 664.921875 436.101562 665.039062 435.484375 665.105469 434.855469 C 665.171875 434.230469 665.183594 433.605469 665.148438 432.976562 C 665.113281 432.347656 665.023438 431.726562 664.882812 431.113281 C 664.746094 430.496094 664.558594 429.898438 664.320312 429.316406 C 664.082031 428.734375 663.800781 428.171875 663.46875 427.636719 C 663.140625 427.101562 662.769531 426.59375 662.355469 426.117188 C 661.945312 425.644531 661.496094 425.203125 661.011719 424.804688 C 660.527344 424.402344 660.011719 424.042969 659.46875 423.722656 L 535.851562 352.839844 C 535.253906 352.496094 534.628906 352.210938 533.980469 351.980469 C 533.328125 351.753906 532.664062 351.582031 531.984375 351.472656 C 531.300781 351.363281 530.617188 351.316406 529.929688 351.328125 C 529.238281 351.339844 528.554688 351.417969 527.878906 351.550781 C 527.203125 351.6875 526.546875 351.882812 525.90625 352.140625 C 525.265625 352.394531 524.652344 352.703125 524.066406 353.066406 C 523.484375 353.433594 522.9375 353.847656 522.425781 354.3125 C 521.914062 354.773438 521.449219 355.28125 521.03125 355.828125 L 404.421875 506.097656 L 286.089844 349.851562 C 285.660156 349.285156 285.179688 348.765625 284.648438 348.285156 C 284.121094 347.808594 283.554688 347.382812 282.945312 347.011719 C 282.339844 346.640625 281.703125 346.328125 281.035156 346.074219 C 280.371094 345.820312 279.6875 345.628906 278.984375 345.503906 C 278.285156 345.375 277.578125 345.316406 276.867188 345.320312 C 276.152344 345.324219 275.449219 345.394531 274.75 345.53125 C 274.050781 345.667969 273.367188 345.867188 272.707031 346.128906 C 272.042969 346.394531 271.414062 346.714844 270.808594 347.097656 L 149.375 423.953125 C 148.859375 424.28125 148.371094 424.648438 147.914062 425.050781 C 147.453125 425.457031 147.03125 425.894531 146.640625 426.367188 C 146.253906 426.839844 145.90625 427.339844 145.597656 427.867188 C 145.289062 428.394531 145.023438 428.945312 144.800781 429.515625 C 144.582031 430.085938 144.40625 430.671875 144.277344 431.269531 C 144.152344 431.867188 144.070312 432.472656 144.039062 433.082031 C 144.007812 433.691406 144.027344 434.300781 144.09375 434.910156 C 144.160156 435.519531 144.273438 436.117188 144.433594 436.707031 Z M 230.371094 529.074219 C 230.375 528.015625 230.429688 526.960938 230.535156 525.90625 C 230.644531 524.855469 230.800781 523.808594 231.011719 522.769531 C 231.222656 521.734375 231.480469 520.707031 231.792969 519.695312 C 232.101562 518.683594 232.460938 517.6875 232.867188 516.710938 C 233.277344 515.734375 233.730469 514.78125 234.234375 513.847656 C 234.734375 512.914062 235.28125 512.011719 235.871094 511.132812 C 236.460938 510.25 237.089844 509.402344 237.765625 508.585938 C 238.4375 507.769531 239.148438 506.988281 239.898438 506.242188 C 240.648438 505.492188 241.433594 504.785156 242.253906 504.113281 C 243.074219 503.445312 243.921875 502.816406 244.804688 502.226562 C 245.683594 501.640625 246.59375 501.097656 247.527344 500.601562 C 248.460938 500.101562 249.417969 499.652344 250.394531 499.246094 C 251.375 498.84375 252.371094 498.488281 253.382812 498.179688 C 254.398438 497.875 255.421875 497.617188 256.460938 497.410156 C 257.5 497.207031 258.546875 497.050781 259.597656 496.945312 C 260.652344 496.84375 261.710938 496.792969 262.769531 496.792969 L 318.027344 496.792969 C 319.085938 496.792969 320.140625 496.84375 321.191406 496.949219 C 322.246094 497.050781 323.289062 497.207031 324.324219 497.414062 C 325.363281 497.617188 326.386719 497.875 327.398438 498.183594 C 328.410156 498.488281 329.40625 498.84375 330.382812 499.25 C 331.359375 499.652344 332.3125 500.105469 333.246094 500.605469 C 334.179688 501.101562 335.085938 501.644531 335.964844 502.234375 C 336.84375 502.820312 337.691406 503.449219 338.507812 504.121094 C 339.324219 504.789062 340.109375 505.5 340.855469 506.246094 C 341.601562 506.996094 342.3125 507.777344 342.984375 508.59375 C 343.652344 509.410156 344.28125 510.261719 344.871094 511.140625 C 345.457031 512.019531 346 512.925781 346.5 513.855469 C 346.996094 514.789062 347.449219 515.742188 347.851562 516.71875 C 348.257812 517.699219 348.613281 518.691406 348.921875 519.703125 C 349.226562 520.714844 349.484375 521.738281 349.691406 522.777344 C 349.898438 523.8125 350.050781 524.859375 350.15625 525.910156 C 350.257812 526.960938 350.3125 528.015625 350.3125 529.074219 L 350.3125 541.484375 C 350.3125 542.539062 350.257812 543.59375 350.15625 544.648438 C 350.050781 545.699219 349.898438 546.742188 349.691406 547.78125 C 349.484375 548.816406 349.226562 549.84375 348.921875 550.855469 C 348.613281 551.867188 348.257812 552.859375 347.851562 553.835938 C 347.449219 554.8125 346.996094 555.769531 346.5 556.699219 C 346 557.632812 345.457031 558.539062 344.871094 559.417969 C 344.28125 560.296875 343.652344 561.144531 342.984375 561.960938 C 342.3125 562.78125 341.601562 563.5625 340.855469 564.308594 C 340.109375 565.058594 339.324219 565.765625 338.507812 566.4375 C 337.691406 567.109375 336.84375 567.738281 335.964844 568.324219 C 335.085938 568.914062 334.179688 569.457031 333.246094 569.953125 C 332.3125 570.453125 331.359375 570.902344 330.382812 571.308594 C 329.40625 571.710938 328.410156 572.070312 327.398438 572.375 C 326.386719 572.683594 325.363281 572.9375 324.324219 573.144531 C 323.289062 573.351562 322.246094 573.507812 321.191406 573.609375 C 320.140625 573.714844 319.085938 573.765625 318.027344 573.765625 L 262.769531 573.765625 C 261.710938 573.765625 260.652344 573.714844 259.597656 573.609375 C 258.546875 573.507812 257.5 573.351562 256.460938 573.144531 C 255.421875 572.941406 254.398438 572.683594 253.382812 572.375 C 252.371094 572.070312 251.375 571.714844 250.394531 571.308594 C 249.417969 570.90625 248.460938 570.453125 247.527344 569.957031 C 246.59375 569.457031 245.683594 568.917969 244.804688 568.328125 C 243.921875 567.742188 243.074219 567.113281 242.253906 566.441406 C 241.433594 565.773438 240.648438 565.0625 239.898438 564.316406 C 239.148438 563.570312 238.4375 562.789062 237.765625 561.96875 C 237.089844 561.152344 236.460938 560.304688 235.871094 559.425781 C 235.28125 558.546875 234.734375 557.640625 234.234375 556.710938 C 233.730469 555.777344 233.277344 554.824219 232.867188 553.84375 C 232.460938 552.867188 232.101562 551.875 231.792969 550.863281 C 231.480469 549.847656 231.222656 548.824219 231.011719 547.785156 C 230.800781 546.75 230.644531 545.703125 230.535156 544.648438 C 230.429688 543.597656 230.375 542.542969 230.371094 541.484375 Z M 230.371094 529.074219 " fill-opacity="1" fill-rule="nonzero"/><path fill="#ffffff" d="M 262.652344 519.769531 L 318.027344 519.769531 C 318.640625 519.769531 319.246094 519.828125 319.84375 519.949219 C 320.441406 520.066406 321.023438 520.242188 321.589844 520.476562 C 322.152344 520.710938 322.691406 520.996094 323.199219 521.335938 C 323.707031 521.675781 324.175781 522.0625 324.609375 522.496094 C 325.039062 522.925781 325.425781 523.398438 325.765625 523.90625 C 326.105469 524.414062 326.390625 524.949219 326.625 525.515625 C 326.859375 526.078125 327.035156 526.660156 327.15625 527.257812 C 327.273438 527.859375 327.332031 528.464844 327.332031 529.074219 L 327.332031 541.484375 C 327.332031 542.09375 327.273438 542.699219 327.15625 543.296875 C 327.035156 543.898438 326.859375 544.480469 326.625 545.042969 C 326.390625 545.609375 326.105469 546.144531 325.765625 546.652344 C 325.425781 547.160156 325.039062 547.628906 324.609375 548.0625 C 324.175781 548.496094 323.707031 548.878906 323.199219 549.21875 C 322.691406 549.558594 322.152344 549.847656 321.589844 550.078125 C 321.023438 550.3125 320.441406 550.492188 319.84375 550.609375 C 319.246094 550.730469 318.640625 550.789062 318.027344 550.789062 L 262.652344 550.789062 C 262.042969 550.789062 261.4375 550.730469 260.835938 550.609375 C 260.238281 550.492188 259.65625 550.3125 259.09375 550.078125 C 258.527344 549.847656 257.992188 549.558594 257.484375 549.21875 C 256.976562 548.878906 256.503906 548.496094 256.074219 548.0625 C 255.640625 547.628906 255.253906 547.160156 254.914062 546.652344 C 254.574219 546.144531 254.289062 545.609375 254.054688 545.042969 C 253.820312 544.480469 253.644531 543.898438 253.527344 543.296875 C 253.40625 542.699219 253.347656 542.09375 253.347656 541.484375 L 253.347656 529.074219 C 253.347656 528.464844 253.40625 527.859375 253.527344 527.257812 C 253.644531 526.660156 253.820312 526.078125 254.054688 525.515625 C 254.289062 524.949219 254.574219 524.414062 254.914062 523.90625 C 255.253906 523.398438 255.640625 522.925781 256.074219 522.496094 C 256.503906 522.0625 256.976562 521.675781 257.484375 521.335938 C 257.992188 520.996094 258.527344 520.710938 259.09375 520.476562 C 259.65625 520.242188 260.238281 520.066406 260.835938 519.949219 C 261.4375 519.828125 262.042969 519.769531 262.652344 519.769531 Z M 262.652344 519.769531 " fill-opacity="1" fill-rule="nonzero"/><path fill="#ffffff" d="M 404.421875 282.644531 C 406.234375 282.644531 408.046875 282.601562 409.859375 282.511719 C 411.667969 282.421875 413.476562 282.289062 415.28125 282.113281 C 417.085938 281.933594 418.882812 281.710938 420.675781 281.445312 C 422.46875 281.179688 424.253906 280.871094 426.03125 280.515625 C 427.8125 280.160156 429.578125 279.765625 431.339844 279.324219 C 433.097656 278.882812 434.84375 278.398438 436.578125 277.875 C 438.3125 277.347656 440.035156 276.777344 441.742188 276.167969 C 443.449219 275.558594 445.136719 274.90625 446.8125 274.210938 C 448.488281 273.515625 450.144531 272.78125 451.785156 272.007812 C 453.421875 271.230469 455.042969 270.417969 456.640625 269.5625 C 458.238281 268.707031 459.816406 267.8125 461.371094 266.882812 C 462.925781 265.949219 464.457031 264.980469 465.964844 263.972656 C 467.46875 262.964844 468.953125 261.921875 470.410156 260.839844 C 471.863281 259.761719 473.292969 258.644531 474.695312 257.496094 C 476.09375 256.34375 477.46875 255.160156 478.8125 253.941406 C 480.152344 252.726562 481.464844 251.476562 482.746094 250.195312 C 484.03125 248.910156 485.277344 247.597656 486.496094 246.253906 C 487.714844 244.910156 488.898438 243.539062 490.046875 242.136719 C 491.195312 240.734375 492.3125 239.304688 493.390625 237.851562 C 494.46875 236.394531 495.515625 234.910156 496.519531 233.40625 C 497.527344 231.898438 498.496094 230.367188 499.429688 228.808594 C 500.359375 227.253906 501.253906 225.679688 502.105469 224.078125 C 502.960938 222.480469 503.777344 220.859375 504.550781 219.222656 C 505.324219 217.582031 506.058594 215.925781 506.753906 214.25 C 507.445312 212.574219 508.097656 210.882812 508.707031 209.175781 C 509.320312 207.46875 509.886719 205.75 510.414062 204.015625 C 510.9375 202.277344 511.421875 200.53125 511.859375 198.773438 C 512.300781 197.015625 512.699219 195.246094 513.050781 193.46875 C 513.402344 191.691406 513.714844 189.90625 513.976562 188.109375 C 514.242188 186.316406 514.464844 184.519531 514.640625 182.714844 C 514.820312 180.910156 514.953125 179.101562 515.039062 177.292969 C 515.128906 175.480469 515.171875 173.667969 515.171875 171.855469 C 515.171875 170.042969 515.125 168.230469 515.035156 166.421875 C 514.945312 164.609375 514.8125 162.804688 514.632812 161 C 514.457031 159.195312 514.234375 157.394531 513.96875 155.601562 C 513.699219 153.808594 513.390625 152.023438 513.035156 150.246094 C 512.679688 148.46875 512.285156 146.699219 511.84375 144.941406 C 511.402344 143.183594 510.917969 141.4375 510.390625 139.703125 C 509.863281 137.96875 509.292969 136.246094 508.683594 134.539062 C 508.070312 132.832031 507.417969 131.144531 506.722656 129.46875 C 506.027344 127.792969 505.292969 126.136719 504.519531 124.5 C 503.742188 122.859375 502.925781 121.242188 502.070312 119.644531 C 501.214844 118.046875 500.320312 116.46875 499.390625 114.914062 C 498.457031 113.359375 497.484375 111.828125 496.476562 110.320312 C 495.46875 108.816406 494.425781 107.332031 493.34375 105.878906 C 492.265625 104.421875 491.148438 102.996094 489.996094 101.59375 C 488.847656 100.191406 487.664062 98.820312 486.445312 97.476562 C 485.226562 96.136719 483.976562 94.824219 482.695312 93.542969 C 481.410156 92.261719 480.097656 91.011719 478.753906 89.796875 C 477.410156 88.578125 476.035156 87.394531 474.632812 86.246094 C 473.234375 85.097656 471.804688 83.984375 470.347656 82.902344 C 468.890625 81.824219 467.40625 80.78125 465.898438 79.773438 C 464.390625 78.769531 462.859375 77.800781 461.304688 76.867188 C 459.75 75.9375 458.171875 75.046875 456.570312 74.191406 C 454.972656 73.339844 453.351562 72.523438 451.714844 71.75 C 450.074219 70.976562 448.417969 70.242188 446.742188 69.550781 C 445.066406 68.855469 443.375 68.207031 441.667969 67.597656 C 439.960938 66.984375 438.238281 66.417969 436.503906 65.894531 C 434.769531 65.367188 433.023438 64.886719 431.261719 64.445312 C 429.503906 64.007812 427.734375 63.613281 425.957031 63.257812 C 424.179688 62.90625 422.394531 62.597656 420.601562 62.332031 C 418.808594 62.066406 417.007812 61.847656 415.203125 61.671875 C 413.398438 61.496094 411.589844 61.363281 409.78125 61.273438 C 407.96875 61.1875 406.160156 61.144531 404.34375 61.144531 C 402.53125 61.144531 400.722656 61.191406 398.910156 61.28125 C 397.097656 61.371094 395.292969 61.507812 393.488281 61.6875 C 391.683594 61.863281 389.886719 62.089844 388.09375 62.355469 C 386.300781 62.621094 384.515625 62.933594 382.734375 63.289062 C 380.957031 63.644531 379.191406 64.042969 377.433594 64.484375 C 375.671875 64.925781 373.925781 65.410156 372.191406 65.9375 C 370.457031 66.464844 368.738281 67.035156 367.03125 67.648438 C 365.324219 68.257812 363.632812 68.914062 361.960938 69.609375 C 360.285156 70.304688 358.628906 71.039062 356.992188 71.816406 C 355.351562 72.59375 353.734375 73.40625 352.136719 74.265625 C 350.539062 75.121094 348.960938 76.015625 347.40625 76.949219 C 345.855469 77.882812 344.324219 78.851562 342.816406 79.859375 C 341.308594 80.867188 339.828125 81.914062 338.375 82.996094 C 336.917969 84.074219 335.492188 85.191406 334.089844 86.34375 C 332.691406 87.496094 331.320312 88.679688 329.976562 89.898438 C 328.632812 91.117188 327.324219 92.367188 326.042969 93.652344 C 324.761719 94.933594 323.511719 96.246094 322.296875 97.589844 C 321.082031 98.9375 319.898438 100.308594 318.75 101.710938 C 317.601562 103.113281 316.488281 104.542969 315.40625 106 C 314.328125 107.457031 313.285156 108.941406 312.28125 110.449219 C 311.273438 111.957031 310.308594 113.488281 309.375 115.046875 C 308.445312 116.601562 307.554688 118.179688 306.699219 119.777344 C 305.847656 121.378906 305.035156 122.996094 304.261719 124.636719 C 303.488281 126.277344 302.753906 127.933594 302.0625 129.609375 C 301.371094 131.285156 300.71875 132.976562 300.109375 134.683594 C 299.5 136.390625 298.933594 138.113281 298.410156 139.847656 C 297.886719 141.585938 297.402344 143.332031 296.964844 145.089844 C 296.527344 146.847656 296.128906 148.617188 295.777344 150.398438 C 295.425781 152.175781 295.117188 153.960938 294.855469 155.753906 C 294.589844 157.546875 294.371094 159.347656 294.195312 161.152344 C 294.019531 162.957031 293.886719 164.761719 293.800781 166.574219 C 293.714844 168.386719 293.671875 170.195312 293.671875 172.011719 C 293.675781 173.820312 293.722656 175.628906 293.816406 177.4375 C 293.910156 179.246094 294.046875 181.050781 294.226562 182.855469 C 294.40625 184.65625 294.632812 186.453125 294.902344 188.242188 C 295.171875 190.035156 295.484375 191.816406 295.839844 193.59375 C 296.195312 195.367188 296.59375 197.132812 297.039062 198.886719 C 297.480469 200.644531 297.964844 202.386719 298.492188 204.121094 C 299.023438 205.851562 299.59375 207.570312 300.203125 209.273438 C 300.816406 210.980469 301.472656 212.667969 302.167969 214.339844 C 302.859375 216.011719 303.597656 217.664062 304.371094 219.300781 C 305.148438 220.9375 305.964844 222.554688 306.820312 224.148438 C 307.675781 225.746094 308.570312 227.320312 309.503906 228.871094 C 310.433594 230.421875 311.40625 231.953125 312.410156 233.457031 C 313.417969 234.960938 314.464844 236.441406 315.542969 237.894531 C 316.621094 239.347656 317.738281 240.773438 318.886719 242.171875 C 320.035156 243.570312 321.21875 244.941406 322.4375 246.28125 C 323.652344 247.625 324.902344 248.933594 326.183594 250.214844 C 327.464844 251.492188 328.777344 252.742188 330.121094 253.957031 C 331.460938 255.171875 332.832031 256.355469 334.234375 257.503906 C 335.632812 258.652344 337.058594 259.765625 338.515625 260.84375 C 339.96875 261.921875 341.449219 262.964844 342.957031 263.96875 C 344.460938 264.976562 345.992188 265.941406 347.542969 266.875 C 349.097656 267.804688 350.671875 268.695312 352.269531 269.550781 C 353.867188 270.40625 355.484375 271.21875 357.121094 271.992188 C 358.757812 272.765625 360.410156 273.5 362.085938 274.195312 C 363.757812 274.886719 365.445312 275.539062 367.152344 276.152344 C 368.855469 276.761719 370.574219 277.332031 372.304688 277.855469 C 374.039062 278.382812 375.785156 278.867188 377.539062 279.308594 C 379.296875 279.75 381.0625 280.144531 382.835938 280.5 C 384.613281 280.855469 386.398438 281.164062 388.1875 281.433594 C 389.980469 281.699219 391.777344 281.921875 393.578125 282.101562 C 395.378906 282.28125 397.183594 282.414062 398.992188 282.507812 C 400.800781 282.597656 402.609375 282.644531 404.421875 282.644531 Z M 404.421875 282.644531 " fill-opacity="1" fill-rule="nonzero"/><g clip-path="url(#9383234e7f)"><g clip-path="url(#7f7e93c2a0)"><path fill="#e2e2e2" d="M 635.96875 81 L 729 81 L 729 174.03125 L 635.96875 174.03125 Z M 635.96875 81 " fill-opacity="1" fill-rule="nonzero"/></g></g></svg>