<svg xmlns="http://www.w3.org/2000/svg" xmlns:xlink="http://www.w3.org/1999/xlink" width="1080" zoomAndPan="magnify" viewBox="0 0 810 809.999993" height="1080" preserveAspectRatio="xMidYMid meet" version="1.0"><defs><clipPath id="989dccaa2e"><path d="M 147 724 L 663 724 L 663 773.15625 L 147 773.15625 Z M 147 724 " clip-rule="nonzero"/></clipPath><clipPath id="24eee4b472"><path d="M 110.324219 454 L 699.824219 454 L 699.824219 479 L 110.324219 479 Z M 110.324219 454 " clip-rule="nonzero"/></clipPath><clipPath id="8649de5f44"><path d="M 355 36.65625 L 479 36.65625 L 479 86 L 355 86 Z M 355 36.65625 " clip-rule="nonzero"/></clipPath><clipPath id="cd7524a24e"><path d="M 634.089844 81 L 729 81 L 729 171.460938 L 634.089844 171.460938 Z M 634.089844 81 " clip-rule="nonzero"/></clipPath><clipPath id="e0b1981f41"><path d="M 681.542969 81 L 692.746094 115.554688 L 729 115.554688 L 699.671875 136.910156 L 710.875 171.460938 L 681.542969 150.105469 L 652.214844 171.460938 L 663.417969 136.910156 L 634.089844 115.554688 L 670.34375 115.554688 Z M 681.542969 81 " clip-rule="nonzero"/></clipPath><clipPath id="338c4a9a9d"><path d="M 81 81 L 176 81 L 176 171.460938 L 81 171.460938 Z M 81 81 " clip-rule="nonzero"/></clipPath><clipPath id="3136ca8e57"><path d="M 128.457031 81 L 139.65625 115.554688 L 175.910156 115.554688 L 146.582031 136.910156 L 157.785156 171.460938 L 128.457031 150.105469 L 99.125 171.460938 L 110.328125 136.910156 L 81 115.554688 L 117.253906 115.554688 Z M 128.457031 81 " clip-rule="nonzero"/></clipPath></defs><path fill="#ffffff" d="M 393.152344 228.609375 C 393.179688 228.609375 393.210938 228.625 393.242188 228.640625 C 400.640625 231.773438 408.757812 233.507812 417.277344 233.507812 C 451.347656 233.507812 479.066406 205.789062 479.066406 171.714844 L 479.066406 113.441406 C 478.804688 112.445312 478.667969 111.402344 478.667969 110.328125 L 478.667969 108.835938 C 464.945312 106.457031 452.222656 100.210938 441.832031 90.652344 C 428.296875 103.097656 410.816406 109.925781 392.320312 109.925781 L 355.886719 109.925781 L 355.886719 110.328125 C 355.886719 111.402344 355.75 112.445312 355.488281 113.441406 L 355.488281 171.714844 C 355.488281 197.238281 371.035156 219.1875 393.152344 228.609375 Z M 393.152344 228.609375 " fill-opacity="1" fill-rule="nonzero"/><g clip-path="url(#989dccaa2e)"><path fill="#ffffff" d="M 147.160156 724.230469 L 662.839844 724.230469 L 662.839844 773.34375 L 147.160156 773.34375 Z M 147.160156 724.230469 " fill-opacity="1" fill-rule="nonzero"/></g><g clip-path="url(#24eee4b472)"><path fill="#ffffff" d="M 110.324219 454.113281 L 699.671875 454.113281 L 699.671875 478.667969 L 110.324219 478.667969 Z M 110.324219 454.113281 " fill-opacity="1" fill-rule="nonzero"/></g><path fill="#ffffff" d="M 147.160156 699.671875 L 662.839844 699.671875 L 662.839844 503.222656 L 147.160156 503.222656 Z M 576.890625 552.335938 C 576.890625 545.554688 582.386719 540.058594 589.171875 540.058594 C 595.953125 540.058594 601.449219 545.554688 601.449219 552.335938 L 601.449219 638.285156 L 626.003906 638.285156 C 632.789062 638.285156 638.28125 643.777344 638.28125 650.5625 C 638.28125 657.34375 632.789062 662.839844 626.003906 662.839844 L 589.171875 662.839844 C 582.386719 662.839844 576.890625 657.34375 576.890625 650.5625 Z M 478.667969 552.335938 C 478.667969 545.554688 484.160156 540.058594 490.945312 540.058594 L 540.058594 540.058594 C 546.839844 540.058594 552.335938 545.554688 552.335938 552.335938 C 552.335938 559.121094 546.839844 564.613281 540.058594 564.613281 L 503.222656 564.613281 L 503.222656 589.171875 L 540.058594 589.171875 C 546.839844 589.171875 552.335938 594.664062 552.335938 601.449219 C 552.335938 608.234375 546.839844 613.726562 540.058594 613.726562 L 503.222656 613.726562 L 503.222656 638.285156 L 540.058594 638.285156 C 546.839844 638.285156 552.335938 643.777344 552.335938 650.5625 C 552.335938 657.34375 546.839844 662.839844 540.058594 662.839844 L 490.945312 662.839844 C 484.160156 662.839844 478.667969 657.34375 478.667969 650.5625 Z M 368.164062 540.058594 L 441.832031 540.058594 C 448.617188 540.058594 454.109375 545.554688 454.109375 552.335938 C 454.109375 559.121094 448.617188 564.613281 441.832031 564.613281 L 417.277344 564.613281 L 417.277344 650.5625 C 417.277344 657.34375 411.78125 662.839844 405 662.839844 C 398.214844 662.839844 392.722656 657.34375 392.722656 650.5625 L 392.722656 564.613281 L 368.164062 564.613281 C 361.382812 564.613281 355.886719 559.121094 355.886719 552.335938 C 355.886719 545.554688 361.382812 540.058594 368.164062 540.058594 Z M 269.941406 576.894531 C 269.941406 556.589844 286.46875 540.058594 306.773438 540.058594 C 327.078125 540.058594 343.609375 556.589844 343.609375 576.894531 L 343.609375 626.003906 C 343.609375 646.308594 327.078125 662.839844 306.773438 662.839844 C 286.46875 662.839844 269.941406 646.308594 269.941406 626.003906 Z M 171.714844 552.335938 C 171.714844 545.554688 177.210938 540.058594 183.992188 540.058594 C 190.777344 540.058594 196.273438 545.554688 196.273438 552.335938 L 196.273438 589.171875 L 220.828125 589.171875 L 220.828125 552.335938 C 220.828125 545.554688 226.320312 540.058594 233.105469 540.058594 C 239.890625 540.058594 245.382812 545.554688 245.382812 552.335938 L 245.382812 650.5625 C 245.382812 657.34375 239.890625 662.839844 233.105469 662.839844 C 226.320312 662.839844 220.828125 657.34375 220.828125 650.5625 L 220.828125 613.726562 L 196.273438 613.726562 L 196.273438 650.5625 C 196.273438 657.34375 190.777344 662.839844 183.992188 662.839844 C 177.210938 662.839844 171.714844 657.34375 171.714844 650.5625 Z M 171.714844 552.335938 " fill-opacity="1" fill-rule="nonzero"/><path fill="#ffffff" d="M 306.773438 638.285156 C 313.542969 638.285156 319.050781 632.773438 319.050781 626.003906 L 319.050781 576.894531 C 319.050781 570.125 313.542969 564.613281 306.773438 564.613281 C 300.007812 564.613281 294.496094 570.125 294.496094 576.894531 L 294.496094 626.003906 C 294.496094 632.773438 300.007812 638.285156 306.773438 638.285156 Z M 306.773438 638.285156 " fill-opacity="1" fill-rule="nonzero"/><g clip-path="url(#8649de5f44)"><path fill="#ffffff" d="M 426.453125 71.40625 L 433.222656 64.742188 C 437.996094 60.03125 445.667969 60.03125 450.441406 64.742188 L 457.210938 71.40625 C 463.273438 77.359375 470.640625 81.550781 478.652344 83.699219 C 478.160156 57.667969 456.84375 36.65625 430.707031 36.65625 L 403.847656 36.65625 C 377.402344 36.65625 355.886719 58.175781 355.886719 84.617188 L 355.886719 85.371094 L 392.320312 85.371094 C 405.167969 85.371094 417.292969 80.414062 426.453125 71.40625 Z M 426.453125 71.40625 " fill-opacity="1" fill-rule="nonzero"/></g><path fill="#ffffff" d="M 355.886719 286.976562 L 355.886719 326.574219 L 405 310.199219 L 405 303.351562 L 372.84375 292.625 Z M 355.886719 286.976562 " fill-opacity="1" fill-rule="nonzero"/><path fill="#ffffff" d="M 348.257812 354.996094 L 347.492188 355.257812 C 346.21875 355.671875 344.914062 355.886719 343.609375 355.886719 C 341.0625 355.886719 338.542969 355.089844 336.425781 353.570312 C 333.234375 351.269531 331.332031 347.554688 331.332031 343.609375 L 331.332031 309.507812 L 286.316406 323.75 C 286.253906 323.765625 286.207031 323.78125 286.148438 323.796875 C 275.234375 327.066406 267.898438 336.933594 267.898438 348.320312 L 267.898438 429.554688 L 384.507812 429.554688 Z M 348.257812 354.996094 " fill-opacity="1" fill-rule="nonzero"/><path fill="#ffffff" d="M 478.667969 326.574219 L 478.667969 286.976562 L 429.554688 303.351562 L 429.554688 310.199219 Z M 478.667969 326.574219 " fill-opacity="1" fill-rule="nonzero"/><path fill="#ffffff" d="M 417.277344 258.0625 C 410.355469 258.0625 403.617188 257.25 397.15625 255.699219 L 392.199219 273.195312 L 417.277344 281.558594 L 442.539062 273.132812 L 437.859375 255.574219 C 431.257812 257.203125 424.367188 258.0625 417.277344 258.0625 Z M 417.277344 258.0625 " fill-opacity="1" fill-rule="nonzero"/><path fill="#ffffff" d="M 566.65625 429.554688 L 566.65625 348.320312 C 566.65625 336.933594 559.320312 327.082031 548.40625 323.796875 C 548.34375 323.78125 548.300781 323.765625 548.238281 323.75 L 503.222656 309.507812 L 503.222656 343.609375 C 503.222656 347.554688 501.320312 351.269531 498.128906 353.570312 C 496.011719 355.089844 493.492188 355.886719 490.945312 355.886719 C 489.640625 355.886719 488.335938 355.671875 487.0625 355.257812 L 486.296875 354.996094 L 450.042969 429.554688 Z M 566.65625 429.554688 " fill-opacity="1" fill-rule="nonzero"/><path fill="#ffffff" d="M 422.757812 429.554688 L 462.8125 347.171875 L 417.277344 331.992188 L 371.742188 347.171875 L 411.796875 429.554688 Z M 405 380.445312 L 405 368.164062 C 405 361.382812 410.492188 355.886719 417.277344 355.886719 C 424.058594 355.886719 429.554688 361.382812 429.554688 368.164062 L 429.554688 380.445312 C 429.554688 387.226562 424.058594 392.722656 417.277344 392.722656 C 410.492188 392.722656 405 387.226562 405 380.445312 Z M 405 380.445312 " fill-opacity="1" fill-rule="nonzero"/><g clip-path="url(#cd7524a24e)"><g clip-path="url(#e0b1981f41)"><path fill="#dcdcdc" d="M 634.089844 81 L 729.144531 81 L 729.144531 171.460938 L 634.089844 171.460938 Z M 634.089844 81 " fill-opacity="1" fill-rule="nonzero"/></g></g><g clip-path="url(#338c4a9a9d)"><g clip-path="url(#3136ca8e57)"><path fill="#dcdcdc" d="M 81 81 L 176.054688 81 L 176.054688 171.460938 L 81 171.460938 Z M 81 81 " fill-opacity="1" fill-rule="nonzero"/></g></g></svg>