<svg xmlns="http://www.w3.org/2000/svg" xmlns:xlink="http://www.w3.org/1999/xlink" width="1080" zoomAndPan="magnify" viewBox="0 0 810 809.999993" height="1080" preserveAspectRatio="xMidYMid meet" version="1.0"><defs><clipPath id="ec0634028a"><path d="M 375 263.445312 L 406 263.445312 L 406 294 L 375 294 Z M 375 263.445312 " clip-rule="nonzero"/></clipPath><clipPath id="20b3bbd742"><path d="M 515 359 L 545.339844 359 L 545.339844 390 L 515 390 Z M 515 359 " clip-rule="nonzero"/></clipPath><clipPath id="868675ab7c"><path d="M 515 419 L 545.339844 419 L 545.339844 450 L 515 450 Z M 515 419 " clip-rule="nonzero"/></clipPath><clipPath id="999f93ae84"><path d="M 375 516 L 406 516 L 406 546.195312 L 375 546.195312 Z M 375 516 " clip-rule="nonzero"/></clipPath><clipPath id="95c78462ef"><path d="M 265.589844 359 L 296 359 L 296 390 L 265.589844 390 Z M 265.589844 359 " clip-rule="nonzero"/></clipPath><clipPath id="244f9af679"><path d="M 265.589844 419 L 296 419 L 296 450 L 265.589844 450 Z M 265.589844 419 " clip-rule="nonzero"/></clipPath><clipPath id="1e6566d573"><path d="M 252 177 L 558 177 L 558 809.664062 L 252 809.664062 Z M 252 177 " clip-rule="nonzero"/></clipPath><clipPath id="42fea64277"><path d="M 469 369 L 810 369 L 810 809.664062 L 469 809.664062 Z M 469 369 " clip-rule="nonzero"/></clipPath><clipPath id="f78e4516e7"><path d="M 0 369 L 337 369 L 337 809.664062 L 0 809.664062 Z M 0 369 " clip-rule="nonzero"/></clipPath><clipPath id="a51751de6a"><path d="M 603.511719 142.476562 L 707.605469 142.476562 L 707.605469 263.25 L 603.511719 263.25 Z M 603.511719 142.476562 " clip-rule="nonzero"/></clipPath><clipPath id="90912c6b1f"><path d="M 742 149 L 809.898438 149 L 809.898438 230.289062 L 742 230.289062 Z M 742 149 " clip-rule="nonzero"/></clipPath><clipPath id="64fdcfe1d9"><path d="M 783.207031 0 L 809.898438 0 L 809.898438 37.800781 L 783.207031 37.800781 Z M 783.207031 0 " clip-rule="nonzero"/></clipPath></defs><path fill="#000000" d="M 451.351562 459.234375 L 359.410156 459.234375 C 349.953125 459.234375 342.152344 451.449219 342.152344 442.007812 L 342.152344 367.632812 C 342.152344 358.027344 349.953125 350.242188 359.410156 350.242188 L 451.351562 350.242188 C 460.976562 350.242188 468.777344 358.027344 468.777344 367.632812 L 468.777344 442.007812 C 468.777344 451.449219 460.976562 459.234375 451.351562 459.234375 Z M 362.566406 424.78125 C 362.234375 424.78125 361.902344 424.78125 361.570312 424.613281 C 360.074219 424.117188 359.410156 422.460938 360.074219 420.972656 L 366.050781 406.0625 L 366.050781 405.898438 L 376.835938 379.0625 C 376.835938 379.0625 376.835938 378.898438 376.835938 378.898438 C 377.003906 378.566406 377.167969 378.234375 377.5 378.070312 C 377.667969 377.738281 378 377.574219 378.332031 377.40625 C 378.332031 377.40625 378.332031 377.40625 378.496094 377.40625 C 378.828125 377.242188 378.996094 377.242188 379.328125 377.242188 C 379.660156 377.242188 379.992188 377.242188 380.324219 377.40625 C 380.324219 377.40625 380.488281 377.40625 380.488281 377.40625 C 380.820312 377.574219 381.152344 377.738281 381.316406 378.070312 C 381.648438 378.234375 381.816406 378.566406 381.980469 378.898438 C 381.980469 378.898438 381.980469 379.0625 381.980469 379.0625 L 392.769531 405.898438 L 392.769531 406.0625 L 398.742188 420.972656 C 399.242188 422.460938 398.578125 424.117188 397.25 424.613281 C 395.757812 425.113281 394.097656 424.449219 393.597656 423.125 L 388.289062 409.871094 L 370.53125 409.871094 L 365.21875 423.125 C 364.722656 424.117188 363.726562 424.78125 362.566406 424.78125 Z M 425.796875 424.945312 L 411.023438 424.945312 C 409.53125 424.945312 408.371094 423.785156 408.371094 422.296875 C 408.371094 420.640625 409.53125 419.480469 411.023438 419.480469 L 422.972656 419.480469 L 422.972656 382.542969 L 411.023438 382.542969 C 409.53125 382.542969 408.371094 381.382812 408.371094 379.890625 C 408.371094 378.234375 409.53125 377.074219 411.023438 377.074219 L 440.398438 377.074219 C 441.894531 377.074219 443.222656 378.234375 443.222656 379.890625 C 443.222656 381.382812 441.894531 382.542969 440.398438 382.542969 L 428.449219 382.542969 L 428.449219 419.480469 L 440.398438 419.480469 C 441.894531 419.480469 443.222656 420.640625 443.222656 422.296875 C 443.222656 423.785156 441.894531 424.945312 440.398438 424.945312 Z M 386.132812 404.242188 L 379.328125 387.511719 L 372.6875 404.242188 Z M 386.132812 404.242188 " fill-opacity="1" fill-rule="evenodd"/><path fill="#000000" d="M 390.777344 355.875 C 389.285156 355.875 387.957031 354.546875 387.957031 353.058594 L 387.957031 290.609375 C 387.957031 289.121094 389.285156 287.796875 390.777344 287.796875 C 392.269531 287.796875 393.433594 289.121094 393.433594 290.609375 L 393.433594 353.058594 C 393.433594 354.546875 392.269531 355.875 390.777344 355.875 Z M 390.777344 355.875 " fill-opacity="1" fill-rule="evenodd"/><g clip-path="url(#ec0634028a)"><path fill="#000000" d="M 390.777344 293.425781 C 382.480469 293.425781 375.675781 286.636719 375.675781 278.351562 C 375.675781 270.238281 382.480469 263.445312 390.777344 263.445312 C 399.074219 263.445312 405.714844 270.238281 405.714844 278.351562 C 405.714844 286.636719 399.074219 293.425781 390.777344 293.425781 Z M 390.777344 293.425781 " fill-opacity="1" fill-rule="evenodd"/></g><path fill="#000000" d="M 420.152344 355.875 C 418.660156 355.875 417.332031 354.546875 417.332031 353.058594 L 417.332031 327.21875 C 417.332031 325.726562 418.660156 324.402344 420.152344 324.402344 C 421.644531 324.402344 422.972656 325.726562 422.972656 327.21875 L 422.972656 353.058594 C 422.972656 354.546875 421.644531 355.875 420.152344 355.875 Z M 420.152344 355.875 " fill-opacity="1" fill-rule="evenodd"/><path fill="#000000" d="M 420.152344 330.035156 C 411.855469 330.035156 405.214844 323.242188 405.214844 314.960938 C 405.214844 306.84375 411.855469 300.050781 420.152344 300.050781 C 428.449219 300.050781 435.089844 306.84375 435.089844 314.960938 C 435.089844 323.242188 428.449219 330.035156 420.152344 330.035156 Z M 420.152344 330.035156 " fill-opacity="1" fill-rule="evenodd"/><path fill="#000000" d="M 449.527344 355.875 C 448.035156 355.875 446.707031 354.546875 446.707031 353.058594 L 446.707031 312.640625 C 446.707031 304.523438 453.34375 297.898438 461.476562 297.898438 L 479.066406 297.898438 C 480.5625 297.898438 481.890625 299.222656 481.890625 300.714844 C 481.890625 302.207031 480.5625 303.53125 479.066406 303.53125 L 461.476562 303.53125 C 456.496094 303.53125 452.347656 307.507812 452.347656 312.640625 L 452.347656 353.058594 C 452.347656 354.546875 451.019531 355.875 449.527344 355.875 Z M 449.527344 355.875 " fill-opacity="1" fill-rule="evenodd"/><path fill="#000000" d="M 491.347656 315.621094 C 483.050781 315.621094 476.246094 308.996094 476.246094 300.714844 C 476.246094 292.433594 483.050781 285.808594 491.347656 285.808594 C 499.648438 285.808594 506.285156 292.433594 506.285156 300.714844 C 506.285156 308.996094 499.648438 315.621094 491.347656 315.621094 Z M 491.347656 315.621094 " fill-opacity="1" fill-rule="evenodd"/><path fill="#000000" d="M 361.402344 355.875 C 359.742188 355.875 358.582031 354.546875 358.582031 353.058594 L 358.582031 312.640625 C 358.582031 307.507812 354.433594 303.53125 349.453125 303.53125 L 331.863281 303.53125 C 330.203125 303.53125 329.042969 302.207031 329.042969 300.714844 C 329.042969 299.222656 330.203125 297.898438 331.863281 297.898438 L 349.453125 297.898438 C 357.585938 297.898438 364.058594 304.523438 364.058594 312.640625 L 364.058594 353.058594 C 364.058594 354.546875 362.898438 355.875 361.402344 355.875 Z M 361.402344 355.875 " fill-opacity="1" fill-rule="evenodd"/><path fill="#000000" d="M 319.582031 315.621094 C 311.285156 315.621094 304.644531 308.996094 304.644531 300.714844 C 304.644531 292.433594 311.285156 285.808594 319.582031 285.808594 C 327.878906 285.808594 334.519531 292.433594 334.519531 300.714844 C 334.519531 308.996094 327.878906 315.621094 319.582031 315.621094 Z M 319.582031 315.621094 " fill-opacity="1" fill-rule="evenodd"/><path fill="#000000" d="M 518.066406 377.574219 L 465.957031 377.574219 C 464.464844 377.574219 463.136719 376.246094 463.136719 374.757812 C 463.136719 373.265625 464.464844 372.105469 465.957031 372.105469 L 518.066406 372.105469 C 519.5625 372.105469 520.722656 373.265625 520.722656 374.757812 C 520.722656 376.246094 519.5625 377.574219 518.066406 377.574219 Z M 518.066406 377.574219 " fill-opacity="1" fill-rule="evenodd"/><g clip-path="url(#20b3bbd742)"><path fill="#000000" d="M 530.183594 389.832031 C 522.050781 389.832031 515.246094 383.039062 515.246094 374.757812 C 515.246094 366.476562 522.050781 359.847656 530.183594 359.847656 C 538.480469 359.847656 545.285156 366.476562 545.285156 374.757812 C 545.285156 383.039062 538.480469 389.832031 530.183594 389.832031 Z M 530.183594 389.832031 " fill-opacity="1" fill-rule="evenodd"/></g><path fill="#000000" d="M 481.558594 407.554688 L 465.957031 407.554688 C 464.464844 407.554688 463.136719 406.394531 463.136719 404.738281 C 463.136719 403.246094 464.464844 402.085938 465.957031 402.085938 L 481.558594 402.085938 C 483.050781 402.085938 484.210938 403.246094 484.210938 404.738281 C 484.210938 406.394531 483.050781 407.554688 481.558594 407.554688 Z M 481.558594 407.554688 " fill-opacity="1" fill-rule="evenodd"/><path fill="#000000" d="M 493.671875 419.8125 C 485.539062 419.8125 478.734375 413.019531 478.734375 404.738281 C 478.734375 396.621094 485.539062 389.832031 493.671875 389.832031 C 501.96875 389.832031 508.773438 396.621094 508.773438 404.738281 C 508.773438 413.019531 501.96875 419.8125 493.671875 419.8125 Z M 493.671875 419.8125 " fill-opacity="1" fill-rule="evenodd"/><path fill="#000000" d="M 518.066406 437.371094 L 465.957031 437.371094 C 464.464844 437.371094 463.136719 436.210938 463.136719 434.554688 C 463.136719 433.0625 464.464844 431.902344 465.957031 431.902344 L 518.066406 431.902344 C 519.5625 431.902344 520.722656 433.0625 520.722656 434.554688 C 520.722656 436.210938 519.5625 437.371094 518.066406 437.371094 Z M 518.066406 437.371094 " fill-opacity="1" fill-rule="evenodd"/><g clip-path="url(#868675ab7c)"><path fill="#000000" d="M 530.183594 449.625 C 522.050781 449.625 515.246094 442.835938 515.246094 434.554688 C 515.246094 426.4375 522.050781 419.644531 530.183594 419.644531 C 538.480469 419.644531 545.285156 426.4375 545.285156 434.554688 C 545.285156 442.835938 538.480469 449.625 530.183594 449.625 Z M 530.183594 449.625 " fill-opacity="1" fill-rule="evenodd"/></g><path fill="#000000" d="M 390.777344 521.679688 C 389.285156 521.679688 387.957031 520.519531 387.957031 519.03125 L 387.957031 456.582031 C 387.957031 454.925781 389.285156 453.769531 390.777344 453.769531 C 392.269531 453.769531 393.433594 454.925781 393.433594 456.582031 L 393.433594 519.03125 C 393.433594 520.519531 392.269531 521.679688 390.777344 521.679688 Z M 390.777344 521.679688 " fill-opacity="1" fill-rule="evenodd"/><g clip-path="url(#999f93ae84)"><path fill="#000000" d="M 390.777344 546.195312 C 382.480469 546.195312 375.675781 539.40625 375.675781 531.121094 C 375.675781 522.839844 382.480469 516.214844 390.777344 516.214844 C 399.074219 516.214844 405.714844 522.839844 405.714844 531.121094 C 405.714844 539.40625 399.074219 546.195312 390.777344 546.195312 Z M 390.777344 546.195312 " fill-opacity="1" fill-rule="evenodd"/></g><path fill="#000000" d="M 420.152344 485.074219 C 418.660156 485.074219 417.332031 483.914062 417.332031 482.421875 L 417.332031 456.582031 C 417.332031 454.925781 418.660156 453.769531 420.152344 453.769531 C 421.644531 453.769531 422.972656 454.925781 422.972656 456.582031 L 422.972656 482.421875 C 422.972656 483.914062 421.644531 485.074219 420.152344 485.074219 Z M 420.152344 485.074219 " fill-opacity="1" fill-rule="evenodd"/><path fill="#000000" d="M 420.152344 509.589844 C 411.855469 509.589844 405.214844 502.796875 405.214844 494.515625 C 405.214844 486.234375 411.855469 479.609375 420.152344 479.609375 C 428.449219 479.609375 435.089844 486.234375 435.089844 494.515625 C 435.089844 502.796875 428.449219 509.589844 420.152344 509.589844 Z M 420.152344 509.589844 " fill-opacity="1" fill-rule="evenodd"/><path fill="#000000" d="M 479.066406 511.578125 L 461.476562 511.578125 C 453.34375 511.578125 446.707031 505.117188 446.707031 497 L 446.707031 456.582031 C 446.707031 454.925781 448.035156 453.769531 449.527344 453.769531 C 451.019531 453.769531 452.347656 454.925781 452.347656 456.582031 L 452.347656 497 C 452.347656 501.96875 456.496094 506.109375 461.476562 506.109375 L 479.066406 506.109375 C 480.5625 506.109375 481.890625 507.269531 481.890625 508.925781 C 481.890625 510.417969 480.5625 511.578125 479.066406 511.578125 Z M 479.066406 511.578125 " fill-opacity="1" fill-rule="evenodd"/><path fill="#000000" d="M 491.347656 523.835938 C 483.050781 523.835938 476.246094 517.042969 476.246094 508.925781 C 476.246094 500.644531 483.050781 493.851562 491.347656 493.851562 C 499.648438 493.851562 506.285156 500.644531 506.285156 508.925781 C 506.285156 517.042969 499.648438 523.835938 491.347656 523.835938 Z M 491.347656 523.835938 " fill-opacity="1" fill-rule="evenodd"/><path fill="#000000" d="M 349.453125 511.578125 L 331.863281 511.578125 C 330.203125 511.578125 329.042969 510.417969 329.042969 508.925781 C 329.042969 507.269531 330.203125 506.109375 331.863281 506.109375 L 349.453125 506.109375 C 354.433594 506.109375 358.582031 501.96875 358.582031 497 L 358.582031 456.582031 C 358.582031 454.925781 359.742188 453.769531 361.402344 453.769531 C 362.898438 453.769531 364.058594 454.925781 364.058594 456.582031 L 364.058594 497 C 364.058594 505.117188 357.585938 511.578125 349.453125 511.578125 Z M 349.453125 511.578125 " fill-opacity="1" fill-rule="evenodd"/><path fill="#000000" d="M 319.582031 523.835938 C 311.285156 523.835938 304.644531 517.042969 304.644531 508.925781 C 304.644531 500.644531 311.285156 493.851562 319.582031 493.851562 C 327.878906 493.851562 334.519531 500.644531 334.519531 508.925781 C 334.519531 517.042969 327.878906 523.835938 319.582031 523.835938 Z M 319.582031 523.835938 " fill-opacity="1" fill-rule="evenodd"/><path fill="#000000" d="M 344.972656 377.574219 L 292.863281 377.574219 C 291.367188 377.574219 290.039062 376.414062 290.039062 374.921875 C 290.039062 373.265625 291.367188 372.105469 292.863281 372.105469 L 344.972656 372.105469 C 346.46875 372.105469 347.628906 373.265625 347.628906 374.921875 C 347.628906 376.414062 346.46875 377.574219 344.972656 377.574219 Z M 344.972656 377.574219 " fill-opacity="1" fill-rule="evenodd"/><g clip-path="url(#95c78462ef)"><path fill="#000000" d="M 280.582031 389.832031 C 272.449219 389.832031 265.644531 383.203125 265.644531 374.921875 C 265.644531 366.640625 272.449219 359.847656 280.582031 359.847656 C 288.878906 359.847656 295.683594 366.640625 295.683594 374.921875 C 295.683594 383.203125 288.878906 389.832031 280.582031 389.832031 Z M 280.582031 389.832031 " fill-opacity="1" fill-rule="evenodd"/></g><path fill="#000000" d="M 344.972656 407.554688 L 329.375 407.554688 C 327.878906 407.554688 326.550781 406.394531 326.550781 404.902344 C 326.550781 403.414062 327.878906 402.085938 329.375 402.085938 L 344.972656 402.085938 C 346.46875 402.085938 347.628906 403.414062 347.628906 404.902344 C 347.628906 406.394531 346.46875 407.554688 344.972656 407.554688 Z M 344.972656 407.554688 " fill-opacity="1" fill-rule="evenodd"/><path fill="#000000" d="M 317.09375 419.8125 C 308.792969 419.8125 302.15625 413.1875 302.15625 404.902344 C 302.15625 396.621094 308.792969 389.832031 317.09375 389.832031 C 325.390625 389.832031 332.195312 396.621094 332.195312 404.902344 C 332.195312 413.1875 325.390625 419.8125 317.09375 419.8125 Z M 317.09375 419.8125 " fill-opacity="1" fill-rule="evenodd"/><path fill="#000000" d="M 344.972656 437.535156 L 292.863281 437.535156 C 291.367188 437.535156 290.039062 436.210938 290.039062 434.71875 C 290.039062 433.226562 291.367188 431.902344 292.863281 431.902344 L 344.972656 431.902344 C 346.46875 431.902344 347.628906 433.226562 347.628906 434.71875 C 347.628906 436.210938 346.46875 437.535156 344.972656 437.535156 Z M 344.972656 437.535156 " fill-opacity="1" fill-rule="evenodd"/><g clip-path="url(#244f9af679)"><path fill="#000000" d="M 280.582031 449.625 C 272.449219 449.625 265.644531 443 265.644531 434.71875 C 265.644531 426.4375 272.449219 419.8125 280.582031 419.8125 C 288.878906 419.8125 295.683594 426.4375 295.683594 434.71875 C 295.683594 443 288.878906 449.625 280.582031 449.625 Z M 280.582031 449.625 " fill-opacity="1" fill-rule="evenodd"/></g><g clip-path="url(#1e6566d573)"><path fill="#ffffff" d="M 410.066406 343.511719 L 410.066406 262.402344 C 425.171875 259.238281 440.640625 261.664062 456.910156 264.226562 C 468.046875 265.980469 479.394531 267.769531 490.945312 267.769531 C 499.964844 267.863281 508.78125 266.585938 517.40625 263.9375 L 523.335938 262.070312 L 523.335938 178.242188 L 512.3125 181.710938 C 495.335938 187.058594 477.953125 184.324219 459.546875 181.421875 C 440.019531 178.347656 419.828125 175.167969 399.054688 181.710938 L 393.125 183.578125 L 393.125 344.1875 L 252.886719 486.078125 L 252.886719 809.921875 L 335.929688 809.921875 L 335.929688 684.367188 C 335.929688 646.648438 365.628906 614.910156 403.335938 614.019531 C 404.484375 613.992188 405.628906 613.996094 406.777344 614.027344 C 407.925781 614.058594 409.070312 614.117188 410.214844 614.203125 C 411.359375 614.292969 412.5 614.40625 413.636719 614.550781 C 414.777344 614.695312 415.910156 614.871094 417.039062 615.070312 C 418.167969 615.273438 419.292969 615.5 420.410156 615.757812 C 421.527344 616.015625 422.640625 616.300781 423.746094 616.613281 C 424.847656 616.925781 425.945312 617.265625 427.03125 617.628906 C 428.117188 617.996094 429.195312 618.390625 430.261719 618.8125 C 431.332031 619.230469 432.386719 619.679688 433.433594 620.152344 C 434.476562 620.625 435.511719 621.125 436.53125 621.648438 C 437.550781 622.171875 438.558594 622.722656 439.550781 623.296875 C 440.546875 623.871094 441.523438 624.46875 442.488281 625.09375 C 443.449219 625.714844 444.398438 626.363281 445.328125 627.035156 C 446.257812 627.703125 447.171875 628.398438 448.070312 629.113281 C 448.964844 629.828125 449.84375 630.566406 450.703125 631.328125 C 451.566406 632.085938 452.40625 632.867188 453.226562 633.667969 C 454.046875 634.46875 454.847656 635.292969 455.628906 636.132812 C 456.40625 636.972656 457.167969 637.835938 457.902344 638.714844 C 458.640625 639.59375 459.355469 640.488281 460.050781 641.40625 C 460.742188 642.320312 461.410156 643.25 462.058594 644.199219 C 462.703125 645.148438 463.324219 646.109375 463.925781 647.089844 C 464.523438 648.066406 465.097656 649.0625 465.644531 650.070312 C 466.195312 651.078125 466.71875 652.097656 467.214844 653.132812 C 467.714844 654.164062 468.1875 655.210938 468.632812 656.265625 C 469.078125 657.324219 469.496094 658.390625 469.890625 659.46875 C 470.285156 660.546875 470.648438 661.636719 470.988281 662.730469 C 471.328125 663.828125 471.636719 664.929688 471.921875 666.042969 C 472.207031 667.15625 472.460938 668.273438 472.691406 669.398438 C 472.917969 670.523438 473.117188 671.652344 473.289062 672.785156 C 473.460938 673.921875 473.605469 675.058594 473.722656 676.199219 C 473.835938 677.339844 473.921875 678.484375 473.980469 679.632812 C 474.039062 680.777344 474.070312 681.921875 474.070312 683.070312 L 474.070312 809.921875 L 557.109375 809.921875 L 557.109375 486.214844 Z M 405 556.304688 C 403.773438 556.304688 402.550781 556.277344 401.328125 556.214844 C 400.101562 556.15625 398.882812 556.066406 397.660156 555.945312 C 396.441406 555.824219 395.226562 555.675781 394.015625 555.496094 C 392.800781 555.316406 391.59375 555.105469 390.394531 554.867188 C 389.191406 554.628906 387.996094 554.359375 386.808594 554.0625 C 385.621094 553.765625 384.4375 553.4375 383.265625 553.082031 C 382.09375 552.726562 380.929688 552.34375 379.777344 551.929688 C 378.625 551.515625 377.480469 551.074219 376.347656 550.605469 C 375.21875 550.136719 374.097656 549.640625 372.988281 549.117188 C 371.882812 548.59375 370.789062 548.042969 369.707031 547.464844 C 368.625 546.886719 367.5625 546.285156 366.507812 545.65625 C 365.457031 545.023438 364.425781 544.371094 363.40625 543.6875 C 362.386719 543.007812 361.386719 542.300781 360.402344 541.574219 C 359.417969 540.84375 358.449219 540.089844 357.503906 539.3125 C 356.554688 538.535156 355.628906 537.734375 354.722656 536.910156 C 353.8125 536.089844 352.925781 535.242188 352.058594 534.378906 C 351.191406 533.511719 350.347656 532.625 349.527344 531.714844 C 348.703125 530.808594 347.902344 529.882812 347.125 528.933594 C 346.347656 527.988281 345.59375 527.019531 344.863281 526.035156 C 344.136719 525.050781 343.429688 524.050781 342.75 523.03125 C 342.066406 522.015625 341.414062 520.980469 340.78125 519.929688 C 340.152344 518.875 339.550781 517.8125 338.972656 516.730469 C 338.394531 515.648438 337.84375 514.554688 337.320312 513.449219 C 336.796875 512.339844 336.300781 511.222656 335.832031 510.089844 C 335.359375 508.957031 334.921875 507.8125 334.507812 506.660156 C 334.09375 505.507812 333.710938 504.34375 333.355469 503.171875 C 333 502 332.671875 500.816406 332.375 499.628906 C 332.078125 498.441406 331.808594 497.246094 331.570312 496.042969 C 331.332031 494.84375 331.121094 493.636719 330.941406 492.421875 C 330.761719 491.210938 330.613281 489.996094 330.492188 488.777344 C 330.371094 487.558594 330.28125 486.335938 330.222656 485.113281 C 330.160156 483.886719 330.132812 482.664062 330.132812 481.4375 C 330.132812 480.210938 330.160156 478.988281 330.222656 477.765625 C 330.28125 476.539062 330.371094 475.320312 330.492188 474.101562 C 330.613281 472.878906 330.761719 471.664062 330.941406 470.453125 C 331.121094 469.242188 331.332031 468.035156 331.570312 466.832031 C 331.808594 465.628906 332.078125 464.433594 332.375 463.246094 C 332.671875 462.058594 333 460.878906 333.355469 459.707031 C 333.710938 458.53125 334.09375 457.371094 334.507812 456.214844 C 334.921875 455.0625 335.359375 453.917969 335.828125 452.789062 C 336.300781 451.65625 336.796875 450.535156 337.320312 449.429688 C 337.84375 448.320312 338.394531 447.226562 338.972656 446.144531 C 339.550781 445.066406 340.152344 444 340.78125 442.949219 C 341.414062 441.898438 342.066406 440.863281 342.75 439.84375 C 343.429688 438.824219 344.132812 437.824219 344.863281 436.839844 C 345.59375 435.855469 346.347656 434.890625 347.125 433.941406 C 347.902344 432.996094 348.703125 432.066406 349.527344 431.160156 C 350.347656 430.253906 351.191406 429.363281 352.058594 428.5 C 352.925781 427.632812 353.8125 426.789062 354.71875 425.964844 C 355.628906 425.140625 356.554688 424.339844 357.503906 423.5625 C 358.449219 422.785156 359.414062 422.035156 360.398438 421.304688 C 361.382812 420.574219 362.386719 419.867188 363.40625 419.1875 C 364.421875 418.507812 365.457031 417.851562 366.507812 417.222656 C 367.558594 416.59375 368.625 415.988281 369.707031 415.410156 C 370.785156 414.832031 371.882812 414.28125 372.988281 413.757812 C 374.097656 413.234375 375.214844 412.738281 376.347656 412.269531 C 377.480469 411.800781 378.621094 411.359375 379.777344 410.945312 C 380.929688 410.535156 382.09375 410.148438 383.265625 409.792969 C 384.4375 409.4375 385.617188 409.113281 386.808594 408.8125 C 387.996094 408.515625 389.191406 408.246094 390.394531 408.007812 C 391.59375 407.769531 392.800781 407.558594 394.011719 407.378906 C 395.226562 407.199219 396.441406 407.050781 397.660156 406.929688 C 398.878906 406.8125 400.101562 406.71875 401.324219 406.660156 C 402.550781 406.601562 403.773438 406.570312 405 406.570312 C 406.222656 406.570312 407.449219 406.601562 408.671875 406.660156 C 409.894531 406.71875 411.117188 406.808594 412.335938 406.929688 C 413.554688 407.050781 414.773438 407.199219 415.984375 407.378906 C 417.195312 407.558594 418.402344 407.769531 419.605469 408.007812 C 420.808594 408.246094 422 408.515625 423.191406 408.8125 C 424.378906 409.113281 425.558594 409.4375 426.730469 409.792969 C 427.90625 410.148438 429.066406 410.535156 430.222656 410.945312 C 431.375 411.359375 432.519531 411.800781 433.648438 412.269531 C 434.78125 412.738281 435.902344 413.234375 437.007812 413.757812 C 438.117188 414.28125 439.210938 414.832031 440.292969 415.410156 C 441.371094 415.988281 442.4375 416.589844 443.488281 417.222656 C 444.539062 417.851562 445.574219 418.507812 446.59375 419.1875 C 447.613281 419.867188 448.613281 420.574219 449.597656 421.304688 C 450.582031 422.035156 451.546875 422.785156 452.496094 423.5625 C 453.441406 424.339844 454.371094 425.140625 455.277344 425.964844 C 456.183594 426.789062 457.070312 427.632812 457.9375 428.5 C 458.804688 429.363281 459.648438 430.25 460.472656 431.160156 C 461.296875 432.066406 462.09375 432.996094 462.871094 433.941406 C 463.648438 434.890625 464.402344 435.855469 465.132812 436.839844 C 465.863281 437.824219 466.570312 438.824219 467.25 439.84375 C 467.929688 440.863281 468.585938 441.898438 469.214844 442.949219 C 469.84375 444 470.449219 445.066406 471.027344 446.144531 C 471.605469 447.226562 472.15625 448.320312 472.679688 449.429688 C 473.203125 450.535156 473.699219 451.65625 474.167969 452.789062 C 474.636719 453.917969 475.078125 455.0625 475.492188 456.214844 C 475.902344 457.371094 476.289062 458.53125 476.644531 459.703125 C 477 460.878906 477.324219 462.058594 477.625 463.246094 C 477.921875 464.433594 478.1875 465.628906 478.429688 466.832031 C 478.667969 468.035156 478.875 469.242188 479.054688 470.453125 C 479.234375 471.664062 479.386719 472.878906 479.507812 474.101562 C 479.625 475.320312 479.714844 476.539062 479.777344 477.765625 C 479.835938 478.988281 479.867188 480.210938 479.867188 481.4375 C 479.867188 482.664062 479.835938 483.886719 479.773438 485.109375 C 479.710938 486.332031 479.621094 487.554688 479.5 488.773438 C 479.378906 489.992188 479.226562 491.207031 479.046875 492.417969 C 478.863281 493.628906 478.65625 494.835938 478.414062 496.039062 C 478.175781 497.238281 477.90625 498.433594 477.605469 499.621094 C 477.308594 500.808594 476.980469 501.988281 476.625 503.160156 C 476.269531 504.332031 475.882812 505.496094 475.46875 506.648438 C 475.054688 507.800781 474.613281 508.945312 474.144531 510.074219 C 473.675781 511.207031 473.179688 512.324219 472.65625 513.433594 C 472.128906 514.539062 471.578125 515.632812 471 516.714844 C 470.425781 517.792969 469.820312 518.859375 469.191406 519.910156 C 468.558594 520.960938 467.90625 521.992188 467.222656 523.011719 C 466.542969 524.03125 465.835938 525.03125 465.109375 526.015625 C 464.378906 527 463.625 527.964844 462.847656 528.910156 C 462.070312 529.859375 461.269531 530.785156 460.449219 531.691406 C 459.625 532.601562 458.78125 533.488281 457.914062 534.351562 C 457.046875 535.21875 456.160156 536.0625 455.253906 536.886719 C 454.347656 537.707031 453.417969 538.507812 452.472656 539.285156 C 451.527344 540.0625 450.558594 540.816406 449.578125 541.546875 C 448.59375 542.277344 447.59375 542.980469 446.574219 543.664062 C 445.554688 544.34375 444.519531 545 443.472656 545.628906 C 442.421875 546.257812 441.355469 546.863281 440.273438 547.441406 C 439.195312 548.019531 438.101562 548.570312 436.996094 549.09375 C 435.886719 549.617188 434.769531 550.113281 433.636719 550.585938 C 432.507812 551.054688 431.363281 551.496094 430.210938 551.910156 C 429.058594 552.320312 427.894531 552.707031 426.722656 553.0625 C 425.550781 553.417969 424.371094 553.746094 423.183594 554.046875 C 421.996094 554.34375 420.800781 554.613281 419.601562 554.851562 C 418.398438 555.09375 417.191406 555.304688 415.980469 555.484375 C 414.769531 555.664062 413.554688 555.816406 412.335938 555.9375 C 411.117188 556.058594 409.894531 556.148438 408.671875 556.210938 C 407.449219 556.273438 406.226562 556.304688 405 556.304688 Z M 405 556.304688 " fill-opacity="1" fill-rule="nonzero"/></g><path fill="#ffffff" d="M 405 429.160156 C 403.289062 429.160156 401.578125 429.242188 399.875 429.410156 C 398.171875 429.578125 396.480469 429.832031 394.800781 430.164062 C 393.121094 430.5 391.460938 430.914062 389.824219 431.410156 C 388.183594 431.90625 386.574219 432.484375 384.992188 433.140625 C 383.410156 433.792969 381.867188 434.527344 380.355469 435.332031 C 378.84375 436.140625 377.378906 437.019531 375.953125 437.96875 C 374.53125 438.921875 373.15625 439.941406 371.832031 441.027344 C 370.511719 442.113281 369.242188 443.261719 368.03125 444.472656 C 366.820312 445.683594 365.671875 446.949219 364.585938 448.273438 C 363.5 449.597656 362.480469 450.96875 361.53125 452.394531 C 360.578125 453.816406 359.699219 455.285156 358.894531 456.792969 C 358.085938 458.304688 357.355469 459.851562 356.699219 461.433594 C 356.042969 463.015625 355.46875 464.625 354.972656 466.261719 C 354.472656 467.902344 354.058594 469.5625 353.722656 471.238281 C 353.390625 472.917969 353.140625 474.609375 352.972656 476.316406 C 352.804688 478.019531 352.71875 479.726562 352.71875 481.4375 C 352.71875 483.152344 352.804688 484.859375 352.972656 486.5625 C 353.140625 488.265625 353.390625 489.957031 353.722656 491.636719 C 354.058594 493.316406 354.472656 494.976562 354.972656 496.613281 C 355.46875 498.253906 356.042969 499.863281 356.699219 501.445312 C 357.355469 503.027344 358.085938 504.574219 358.894531 506.082031 C 359.699219 507.59375 360.578125 509.058594 361.53125 510.484375 C 362.480469 511.90625 363.5 513.28125 364.585938 514.605469 C 365.671875 515.929688 366.820312 517.195312 368.03125 518.40625 C 369.242188 519.617188 370.507812 520.765625 371.832031 521.851562 C 373.15625 522.9375 374.53125 523.957031 375.953125 524.90625 C 377.378906 525.859375 378.84375 526.738281 380.355469 527.546875 C 381.863281 528.351562 383.410156 529.082031 384.992188 529.738281 C 386.574219 530.394531 388.183594 530.96875 389.824219 531.46875 C 391.460938 531.964844 393.121094 532.378906 394.800781 532.714844 C 396.480469 533.046875 398.171875 533.296875 399.875 533.464844 C 401.578125 533.632812 403.285156 533.71875 405 533.71875 C 406.710938 533.71875 408.417969 533.632812 410.125 533.464844 C 411.828125 533.296875 413.519531 533.046875 415.199219 532.714844 C 416.878906 532.378906 418.535156 531.964844 420.175781 531.46875 C 421.8125 530.96875 423.421875 530.394531 425.003906 529.738281 C 426.585938 529.082031 428.132812 528.351562 429.644531 527.542969 C 431.152344 526.738281 432.621094 525.859375 434.042969 524.90625 C 435.46875 523.957031 436.839844 522.9375 438.164062 521.851562 C 439.488281 520.765625 440.753906 519.617188 441.964844 518.40625 C 443.175781 517.195312 444.324219 515.925781 445.410156 514.605469 C 446.496094 513.28125 447.515625 511.90625 448.46875 510.484375 C 449.417969 509.058594 450.296875 507.59375 451.105469 506.082031 C 451.914062 504.574219 452.644531 503.027344 453.296875 501.445312 C 453.953125 499.863281 454.53125 498.253906 455.027344 496.613281 C 455.523438 494.976562 455.941406 493.316406 456.273438 491.636719 C 456.609375 489.957031 456.859375 488.265625 457.027344 486.5625 C 457.195312 484.859375 457.277344 483.148438 457.277344 481.4375 C 457.277344 479.726562 457.191406 478.019531 457.019531 476.316406 C 456.851562 474.613281 456.597656 472.921875 456.265625 471.242188 C 455.929688 469.566406 455.511719 467.90625 455.015625 466.269531 C 454.515625 464.632812 453.9375 463.023438 453.28125 461.441406 C 452.625 459.859375 451.894531 458.316406 451.085938 456.804688 C 450.28125 455.296875 449.402344 453.832031 448.449219 452.40625 C 447.496094 450.984375 446.480469 449.613281 445.394531 448.289062 C 444.308594 446.964844 443.160156 445.699219 441.949219 444.488281 C 440.738281 443.277344 439.472656 442.128906 438.148438 441.042969 C 436.824219 439.957031 435.453125 438.941406 434.03125 437.988281 C 432.605469 437.039062 431.140625 436.15625 429.632812 435.351562 C 428.121094 434.542969 426.578125 433.8125 424.996094 433.15625 C 423.414062 432.5 421.804688 431.921875 420.167969 431.425781 C 418.53125 430.925781 416.875 430.507812 415.195312 430.175781 C 413.515625 429.839844 411.824219 429.585938 410.121094 429.417969 C 408.417969 429.246094 406.710938 429.160156 405 429.160156 Z M 435.25 488.964844 L 405 488.964844 C 404.503906 488.964844 404.015625 488.914062 403.53125 488.820312 C 403.046875 488.722656 402.574219 488.582031 402.117188 488.390625 C 401.660156 488.203125 401.226562 487.96875 400.816406 487.695312 C 400.40625 487.421875 400.027344 487.109375 399.675781 486.757812 C 399.328125 486.410156 399.015625 486.027344 398.738281 485.617188 C 398.464844 485.207031 398.234375 484.773438 398.042969 484.316406 C 397.855469 483.859375 397.710938 483.386719 397.617188 482.902344 C 397.519531 482.417969 397.46875 481.929688 397.46875 481.433594 L 397.46875 451.1875 C 397.46875 450.695312 397.519531 450.203125 397.613281 449.71875 C 397.710938 449.234375 397.855469 448.761719 398.042969 448.304688 C 398.234375 447.851562 398.464844 447.414062 398.738281 447.003906 C 399.015625 446.59375 399.324219 446.214844 399.675781 445.863281 C 400.023438 445.515625 400.40625 445.203125 400.816406 444.925781 C 401.226562 444.652344 401.660156 444.421875 402.117188 444.230469 C 402.574219 444.042969 403.046875 443.898438 403.53125 443.804688 C 404.015625 443.707031 404.503906 443.660156 405 443.660156 C 405.496094 443.660156 405.984375 443.707031 406.46875 443.804688 C 406.953125 443.898438 407.425781 444.042969 407.882812 444.230469 C 408.339844 444.421875 408.773438 444.652344 409.183594 444.925781 C 409.59375 445.203125 409.972656 445.515625 410.324219 445.863281 C 410.671875 446.214844 410.984375 446.59375 411.261719 447.003906 C 411.535156 447.414062 411.765625 447.851562 411.957031 448.304688 C 412.144531 448.761719 412.289062 449.234375 412.386719 449.71875 C 412.480469 450.203125 412.53125 450.695312 412.53125 451.1875 L 412.53125 473.910156 L 435.25 473.910156 C 435.746094 473.910156 436.234375 473.957031 436.71875 474.054688 C 437.203125 474.148438 437.675781 474.292969 438.132812 474.480469 C 438.589844 474.671875 439.023438 474.902344 439.433594 475.175781 C 439.84375 475.453125 440.226562 475.765625 440.574219 476.113281 C 440.925781 476.464844 441.238281 476.84375 441.511719 477.253906 C 441.785156 477.664062 442.019531 478.101562 442.207031 478.554688 C 442.398438 479.011719 442.539062 479.484375 442.636719 479.96875 C 442.730469 480.453125 442.78125 480.945312 442.78125 481.4375 C 442.78125 481.933594 442.730469 482.421875 442.636719 482.90625 C 442.539062 483.390625 442.398438 483.863281 442.207031 484.320312 C 442.019531 484.777344 441.785156 485.210938 441.511719 485.621094 C 441.238281 486.03125 440.925781 486.414062 440.574219 486.761719 C 440.226562 487.113281 439.84375 487.425781 439.433594 487.699219 C 439.023438 487.972656 438.589844 488.207031 438.132812 488.394531 C 437.675781 488.582031 437.203125 488.726562 436.71875 488.824219 C 436.234375 488.917969 435.746094 488.96875 435.25 488.96875 Z M 435.25 488.964844 " fill-opacity="1" fill-rule="nonzero"/><g clip-path="url(#42fea64277)"><path fill="#ffffff" d="M 798.058594 787.332031 L 758.242188 787.332031 L 758.242188 492.738281 L 795.292969 492.738281 C 796.035156 492.738281 796.769531 492.664062 797.496094 492.519531 C 798.222656 492.375 798.929688 492.160156 799.617188 491.878906 C 800.300781 491.59375 800.953125 491.246094 801.566406 490.835938 C 802.183594 490.421875 802.753906 489.953125 803.28125 489.429688 C 803.804688 488.90625 804.273438 488.335938 804.683594 487.71875 C 805.097656 487.101562 805.445312 486.449219 805.726562 485.765625 C 806.011719 485.082031 806.226562 484.375 806.371094 483.648438 C 806.515625 482.917969 806.585938 482.183594 806.585938 481.445312 L 806.585938 456.675781 C 806.585938 455.050781 806.253906 453.5 805.585938 452.023438 C 804.914062 450.542969 803.972656 449.265625 802.753906 448.195312 L 716.675781 372.480469 C 715.644531 371.574219 714.488281 370.878906 713.203125 370.394531 C 711.917969 369.910156 710.589844 369.667969 709.214844 369.667969 L 469.453125 369.667969 L 572.988281 470.144531 L 576.273438 473.328125 C 577.367188 474.394531 578.214844 475.628906 578.808594 477.035156 C 579.40625 478.441406 579.703125 479.90625 579.703125 481.433594 L 579.703125 809.921875 L 798.058594 809.921875 C 798.804688 809.929688 799.542969 809.863281 800.277344 809.726562 C 801.011719 809.585938 801.722656 809.375 802.414062 809.09375 C 803.105469 808.816406 803.765625 808.46875 804.386719 808.058594 C 805.011719 807.648438 805.585938 807.179688 806.117188 806.65625 C 806.648438 806.128906 807.121094 805.558594 807.539062 804.9375 C 807.957031 804.320312 808.308594 803.664062 808.59375 802.976562 C 808.882812 802.289062 809.097656 801.578125 809.246094 800.84375 C 809.390625 800.113281 809.464844 799.375 809.464844 798.628906 C 809.464844 797.882812 809.390625 797.144531 809.246094 796.410156 C 809.097656 795.679688 808.882812 794.96875 808.59375 794.28125 C 808.308594 793.589844 807.957031 792.9375 807.539062 792.316406 C 807.121094 791.699219 806.648438 791.125 806.117188 790.601562 C 805.585938 790.078125 805.011719 789.609375 804.386719 789.199219 C 803.765625 788.789062 803.105469 788.441406 802.414062 788.160156 C 801.722656 787.878906 801.011719 787.671875 800.277344 787.53125 C 799.542969 787.390625 798.804688 787.328125 798.058594 787.332031 Z M 699.34375 721.34375 C 699.34375 722.085938 699.273438 722.820312 699.128906 723.546875 C 698.984375 724.273438 698.769531 724.980469 698.484375 725.664062 C 698.199219 726.351562 697.851562 727 697.441406 727.617188 C 697.027344 728.234375 696.558594 728.804688 696.035156 729.328125 C 695.511719 729.855469 694.941406 730.320312 694.324219 730.734375 C 693.707031 731.144531 693.054688 731.492188 692.371094 731.777344 C 691.683594 732.0625 690.976562 732.273438 690.25 732.417969 C 689.523438 732.5625 688.789062 732.636719 688.046875 732.636719 L 630.273438 732.636719 C 629.53125 732.636719 628.796875 732.5625 628.070312 732.417969 C 627.339844 732.273438 626.636719 732.058594 625.949219 731.777344 C 625.265625 731.492188 624.613281 731.144531 623.996094 730.730469 C 623.382812 730.320312 622.808594 729.851562 622.285156 729.328125 C 621.761719 728.804688 621.292969 728.234375 620.882812 727.617188 C 620.46875 727 620.121094 726.347656 619.835938 725.664062 C 619.554688 724.976562 619.339844 724.273438 619.195312 723.542969 C 619.050781 722.816406 618.976562 722.082031 618.976562 721.339844 L 618.976562 663.5625 C 618.976562 662.820312 619.050781 662.085938 619.195312 661.359375 C 619.339844 660.632812 619.554688 659.925781 619.839844 659.242188 C 620.121094 658.554688 620.46875 657.90625 620.882812 657.289062 C 621.292969 656.671875 621.761719 656.101562 622.285156 655.578125 C 622.808594 655.050781 623.382812 654.585938 623.996094 654.171875 C 624.613281 653.761719 625.265625 653.414062 625.949219 653.128906 C 626.636719 652.84375 627.339844 652.628906 628.070312 652.484375 C 628.796875 652.339844 629.53125 652.269531 630.273438 652.269531 L 688.046875 652.269531 C 688.789062 652.269531 689.523438 652.339844 690.25 652.484375 C 690.976562 652.628906 691.683594 652.84375 692.367188 653.128906 C 693.054688 653.414062 693.703125 653.761719 694.320312 654.171875 C 694.9375 654.585938 695.507812 655.050781 696.03125 655.578125 C 696.558594 656.101562 697.027344 656.671875 697.4375 657.289062 C 697.847656 657.90625 698.199219 658.554688 698.480469 659.242188 C 698.765625 659.925781 698.980469 660.632812 699.125 661.359375 C 699.269531 662.085938 699.339844 662.820312 699.339844 663.5625 Z M 699.34375 614.988281 C 699.34375 615.730469 699.273438 616.464844 699.128906 617.191406 C 698.984375 617.917969 698.769531 618.625 698.484375 619.3125 C 698.199219 619.996094 697.851562 620.648438 697.441406 621.261719 C 697.027344 621.878906 696.558594 622.449219 696.035156 622.972656 C 695.511719 623.5 694.941406 623.96875 694.324219 624.378906 C 693.707031 624.789062 693.054688 625.136719 692.371094 625.421875 C 691.683594 625.707031 690.976562 625.917969 690.25 626.0625 C 689.523438 626.207031 688.789062 626.28125 688.046875 626.28125 L 630.273438 626.28125 C 629.53125 626.28125 628.796875 626.207031 628.070312 626.0625 C 627.339844 625.917969 626.636719 625.703125 625.949219 625.421875 C 625.265625 625.136719 624.613281 624.789062 623.996094 624.375 C 623.382812 623.964844 622.8125 623.496094 622.285156 622.972656 C 621.761719 622.449219 621.292969 621.878906 620.882812 621.261719 C 620.46875 620.644531 620.121094 619.992188 619.839844 619.308594 C 619.554688 618.625 619.339844 617.917969 619.195312 617.191406 C 619.050781 616.460938 618.976562 615.726562 618.976562 614.988281 L 618.976562 557.207031 C 618.976562 556.464844 619.050781 555.730469 619.195312 555.003906 C 619.339844 554.277344 619.554688 553.570312 619.835938 552.886719 C 620.121094 552.199219 620.46875 551.550781 620.882812 550.933594 C 621.292969 550.316406 621.761719 549.746094 622.285156 549.222656 C 622.808594 548.699219 623.382812 548.230469 623.996094 547.816406 C 624.613281 547.40625 625.265625 547.058594 625.949219 546.773438 C 626.636719 546.488281 627.339844 546.273438 628.070312 546.128906 C 628.796875 545.984375 629.53125 545.914062 630.273438 545.914062 L 688.046875 545.914062 C 688.789062 545.914062 689.523438 545.984375 690.25 546.128906 C 690.976562 546.273438 691.683594 546.488281 692.371094 546.773438 C 693.054688 547.058594 693.707031 547.40625 694.320312 547.816406 C 694.9375 548.230469 695.507812 548.699219 696.03125 549.222656 C 696.558594 549.746094 697.027344 550.316406 697.4375 550.933594 C 697.847656 551.550781 698.199219 552.199219 698.480469 552.886719 C 698.765625 553.570312 698.980469 554.277344 699.125 555.003906 C 699.269531 555.730469 699.339844 556.464844 699.339844 557.207031 Z M 699.34375 614.988281 " fill-opacity="1" fill-rule="nonzero"/></g><g clip-path="url(#f78e4516e7)"><path fill="#ffffff" d="M 336.183594 369.667969 L 100.78125 369.667969 C 99.40625 369.667969 98.078125 369.910156 96.792969 370.394531 C 95.511719 370.878906 94.351562 371.574219 93.320312 372.480469 L 7.242188 448.195312 C 6.023438 449.265625 5.082031 450.542969 4.414062 452.023438 C 3.742188 453.5 3.410156 455.050781 3.410156 456.675781 L 3.410156 481.4375 C 3.410156 482.179688 3.480469 482.914062 3.625 483.640625 C 3.769531 484.371094 3.984375 485.078125 4.269531 485.761719 C 4.550781 486.445312 4.898438 487.097656 5.3125 487.714844 C 5.722656 488.332031 6.191406 488.902344 6.714844 489.429688 C 7.238281 489.953125 7.808594 490.421875 8.425781 490.832031 C 9.042969 491.246094 9.695312 491.59375 10.378906 491.878906 C 11.066406 492.160156 11.773438 492.375 12.5 492.519531 C 13.226562 492.664062 13.960938 492.738281 14.703125 492.738281 L 51.757812 492.738281 L 51.757812 787.332031 L 11.941406 787.332031 C 11.195312 787.328125 10.457031 787.390625 9.722656 787.53125 C 8.988281 787.671875 8.277344 787.878906 7.585938 788.160156 C 6.894531 788.441406 6.234375 788.785156 5.613281 789.199219 C 4.988281 789.609375 4.414062 790.078125 3.882812 790.601562 C 3.351562 791.125 2.878906 791.699219 2.460938 792.316406 C 2.042969 792.9375 1.691406 793.589844 1.40625 794.28125 C 1.117188 794.96875 0.902344 795.679688 0.753906 796.410156 C 0.609375 797.144531 0.535156 797.882812 0.535156 798.628906 C 0.535156 799.375 0.609375 800.113281 0.753906 800.84375 C 0.902344 801.578125 1.117188 802.289062 1.40625 802.976562 C 1.691406 803.664062 2.042969 804.320312 2.460938 804.9375 C 2.878906 805.558594 3.351562 806.128906 3.882812 806.65625 C 4.414062 807.179688 4.988281 807.648438 5.613281 808.058594 C 6.234375 808.46875 6.894531 808.816406 7.585938 809.09375 C 8.277344 809.375 8.988281 809.585938 9.722656 809.726562 C 10.457031 809.863281 11.195312 809.929688 11.941406 809.921875 L 230.296875 809.921875 L 230.296875 481.4375 C 230.296875 479.953125 230.582031 478.519531 231.144531 477.144531 C 231.710938 475.773438 232.515625 474.554688 233.558594 473.5 L 236.875 470.144531 Z M 191.023438 721.339844 C 191.023438 722.082031 190.949219 722.816406 190.804688 723.542969 C 190.660156 724.273438 190.445312 724.976562 190.164062 725.664062 C 189.878906 726.347656 189.53125 727 189.121094 727.617188 C 188.707031 728.234375 188.238281 728.804688 187.714844 729.328125 C 187.191406 729.851562 186.621094 730.320312 186.003906 730.734375 C 185.386719 731.144531 184.734375 731.492188 184.050781 731.777344 C 183.363281 732.058594 182.660156 732.273438 181.929688 732.417969 C 181.203125 732.5625 180.46875 732.636719 179.726562 732.636719 L 121.953125 732.636719 C 121.210938 732.636719 120.476562 732.5625 119.75 732.417969 C 119.023438 732.273438 118.316406 732.058594 117.628906 731.777344 C 116.945312 731.492188 116.292969 731.144531 115.679688 730.734375 C 115.0625 730.320312 114.492188 729.851562 113.964844 729.328125 C 113.441406 728.804688 112.972656 728.234375 112.5625 727.617188 C 112.148438 727 111.800781 726.347656 111.519531 725.664062 C 111.234375 724.976562 111.019531 724.273438 110.875 723.542969 C 110.730469 722.816406 110.660156 722.082031 110.660156 721.339844 L 110.660156 663.5625 C 110.660156 662.820312 110.730469 662.085938 110.875 661.359375 C 111.019531 660.632812 111.234375 659.925781 111.519531 659.242188 C 111.800781 658.554688 112.152344 657.90625 112.5625 657.289062 C 112.972656 656.671875 113.441406 656.101562 113.96875 655.578125 C 114.492188 655.050781 115.0625 654.585938 115.679688 654.171875 C 116.296875 653.761719 116.945312 653.414062 117.632812 653.128906 C 118.316406 652.84375 119.023438 652.628906 119.75 652.484375 C 120.476562 652.339844 121.210938 652.269531 121.953125 652.269531 L 179.730469 652.269531 C 180.472656 652.269531 181.207031 652.339844 181.933594 652.484375 C 182.660156 652.628906 183.367188 652.84375 184.050781 653.128906 C 184.738281 653.414062 185.386719 653.761719 186.003906 654.171875 C 186.621094 654.585938 187.191406 655.050781 187.714844 655.578125 C 188.242188 656.101562 188.710938 656.671875 189.121094 657.289062 C 189.535156 657.90625 189.882812 658.554688 190.164062 659.242188 C 190.449219 659.925781 190.664062 660.632812 190.808594 661.359375 C 190.953125 662.085938 191.023438 662.820312 191.023438 663.5625 Z M 191.023438 614.988281 C 191.023438 615.726562 190.949219 616.460938 190.804688 617.191406 C 190.660156 617.917969 190.445312 618.625 190.164062 619.308594 C 189.878906 619.992188 189.53125 620.644531 189.117188 621.261719 C 188.707031 621.878906 188.238281 622.449219 187.714844 622.972656 C 187.191406 623.496094 186.621094 623.964844 186.003906 624.378906 C 185.386719 624.789062 184.734375 625.136719 184.050781 625.421875 C 183.363281 625.703125 182.660156 625.917969 181.929688 626.0625 C 181.203125 626.207031 180.46875 626.28125 179.726562 626.28125 L 121.953125 626.28125 C 121.210938 626.28125 120.476562 626.207031 119.75 626.0625 C 119.023438 625.917969 118.316406 625.703125 117.632812 625.421875 C 116.945312 625.136719 116.292969 624.789062 115.679688 624.378906 C 115.0625 623.964844 114.492188 623.496094 113.96875 622.972656 C 113.441406 622.449219 112.972656 621.878906 112.5625 621.261719 C 112.148438 620.644531 111.800781 619.992188 111.519531 619.308594 C 111.234375 618.625 111.019531 617.917969 110.875 617.191406 C 110.730469 616.460938 110.660156 615.726562 110.660156 614.988281 L 110.660156 557.207031 C 110.660156 556.464844 110.730469 555.730469 110.875 555.003906 C 111.019531 554.277344 111.234375 553.570312 111.519531 552.886719 C 111.800781 552.199219 112.148438 551.550781 112.5625 550.933594 C 112.972656 550.316406 113.441406 549.746094 113.964844 549.222656 C 114.492188 548.695312 115.0625 548.230469 115.679688 547.816406 C 116.292969 547.40625 116.945312 547.058594 117.628906 546.773438 C 118.316406 546.488281 119.023438 546.273438 119.75 546.128906 C 120.476562 545.984375 121.210938 545.914062 121.953125 545.914062 L 179.730469 545.914062 C 180.472656 545.914062 181.207031 545.984375 181.933594 546.128906 C 182.660156 546.273438 183.367188 546.488281 184.050781 546.773438 C 184.738281 547.058594 185.386719 547.40625 186.003906 547.816406 C 186.621094 548.230469 187.191406 548.695312 187.71875 549.222656 C 188.242188 549.746094 188.710938 550.316406 189.121094 550.933594 C 189.535156 551.550781 189.882812 552.199219 190.164062 552.886719 C 190.449219 553.570312 190.664062 554.277344 190.808594 555.003906 C 190.953125 555.730469 191.023438 556.464844 191.023438 557.207031 Z M 191.023438 614.988281 " fill-opacity="1" fill-rule="nonzero"/></g><g clip-path="url(#a51751de6a)"><path fill="#ffffff" d="M 641.957031 157.933594 C 639.644531 152.710938 636.164062 148.578125 632.917969 147.003906 C 632.125 146.617188 631.367188 146.390625 630.621094 146.9375 C 629.863281 147.496094 629.988281 148.269531 630.117188 149.140625 C 630.621094 152.503906 632.53125 155.183594 634.203125 157.984375 C 635.9375 160.878906 636.421875 161.035156 639.398438 159.664062 C 640.253906 159.269531 641.179688 158.960938 641.957031 157.933594 Z M 662.253906 202.304688 C 664.1875 205.402344 664.820312 208.265625 663.824219 211.503906 C 662.726562 215.074219 663.714844 216.148438 667.503906 216.402344 C 671.039062 216.644531 674.097656 215.191406 677.546875 213.957031 C 676.410156 209.832031 679.230469 205.890625 677.640625 201.496094 C 672.539062 202.207031 667.546875 200.210938 662.253906 202.304688 Z M 636.027344 196.734375 C 635.910156 196.363281 635.8125 195.96875 635.652344 195.597656 C 635.492188 195.226562 635.339844 194.800781 635.058594 194.53125 C 631.5 191.121094 631.507812 187.167969 632.996094 182.816406 C 634.378906 178.777344 632.875 175.222656 628.773438 172.363281 C 627.316406 174.660156 625.71875 176.875 624.449219 179.269531 C 623.105469 181.792969 621.886719 184.421875 620.945312 187.121094 C 617.683594 196.441406 618.496094 205.386719 623.839844 213.796875 C 624.75 215.226562 625.539062 216.886719 627.648438 216.972656 C 627.980469 213.734375 627.980469 213.734375 626.136719 210.78125 C 623.738281 206.941406 624.292969 204.59375 628.195312 202.351562 C 629.5 201.601562 630.882812 200.996094 632.234375 200.332031 C 633.851562 199.53125 635.304688 198.5625 636.027344 196.734375 Z M 656.078125 162.140625 C 657.039062 163.476562 657.835938 164.730469 658.777344 165.867188 C 663.179688 171.179688 663.988281 176.785156 660.460938 182.90625 C 659.652344 184.304688 659.019531 185.894531 658.710938 187.476562 C 658.179688 190.1875 660.027344 193.03125 661.960938 192.441406 C 664.492188 191.667969 666.785156 192.324219 669.191406 192.574219 C 671.285156 192.792969 673.523438 192.828125 674.566406 190.582031 C 676.203125 187.046875 678.980469 184.792969 682.15625 182.777344 C 684.433594 181.335938 684.59375 180.398438 683.300781 178.003906 C 679.179688 170.371094 673.074219 164.890625 664.996094 161.765625 C 662.25 160.703125 659.273438 159.582031 656.078125 162.140625 Z M 628.625 155.0625 C 626.851562 154.332031 626.078125 155.515625 625.222656 156.296875 C 622.382812 158.886719 619.808594 161.714844 617.46875 164.78125 C 610.933594 173.332031 607.480469 182.929688 607.429688 193.710938 C 607.382812 203.691406 610.742188 212.769531 615.03125 221.5625 C 615.921875 223.386719 617.359375 224.914062 618.746094 226.449219 C 622.65625 230.777344 627.820312 233.101562 632.972656 235.261719 C 640.8125 238.550781 649.003906 239.578125 657.488281 238.03125 C 661.957031 237.21875 666.308594 236.121094 670.464844 234.304688 C 671.707031 233.761719 672.796875 233.53125 673.84375 234.597656 C 675.863281 236.652344 677.984375 238.617188 679.878906 240.777344 C 681.320312 242.421875 681.023438 243.621094 679.128906 244.746094 C 676.773438 246.144531 674.328125 247.386719 671.976562 248.789062 C 668.605469 250.800781 665.203125 252.792969 662.628906 255.804688 C 665.652344 260.007812 666.085938 260.191406 669.882812 257.589844 C 680.128906 250.5625 690.335938 243.476562 700.503906 236.339844 C 703.558594 234.199219 703.515625 233.636719 700.996094 230.074219 C 699.808594 230.039062 699.050781 230.890625 698.136719 231.457031 C 695.347656 233.191406 692.582031 234.980469 689.714844 236.578125 C 684.503906 239.472656 684.324219 239.320312 680.707031 234.703125 C 679.132812 232.691406 678.089844 230.199219 675.921875 228.820312 C 674.421875 228.796875 673.429688 229.578125 672.367188 230.179688 C 664.910156 234.382812 656.71875 236.332031 648.347656 235.964844 C 638.761719 235.542969 629.933594 232.398438 622.621094 225.597656 C 618.820312 222.0625 615.867188 218.148438 613.914062 213.363281 C 610.480469 204.949219 609.195312 196.375 610.578125 187.289062 C 612.363281 175.566406 617.316406 165.753906 626.464844 158.113281 C 627.363281 157.363281 628.566406 156.746094 628.625 155.0625 Z M 631.214844 220.257812 C 641.648438 231.195312 668.484375 226.359375 672.757812 219.972656 C 670.859375 219.4375 668.941406 219.777344 667.046875 219.734375 C 660.78125 219.582031 658.40625 216.40625 660.363281 210.425781 C 660.972656 208.558594 661 207.191406 659.660156 205.554688 C 657.660156 203.125 658.085938 201.023438 660.652344 199.371094 C 662.132812 198.414062 663.699219 197.5 665.582031 197.507812 C 669.144531 197.527344 672.714844 197.386719 676.265625 197.589844 C 680.347656 197.828125 682.277344 200.417969 681.75 204.523438 C 681.480469 206.648438 681.175781 208.765625 680.886719 210.882812 C 686.335938 203.113281 686.871094 194.476562 686.183594 185.253906 C 682.40625 186.785156 679.871094 188.738281 678.039062 191.878906 C 675.761719 195.785156 672.375 197.6875 667.628906 196.0625 C 666.085938 195.53125 664.410156 195.757812 662.765625 196.152344 C 659.242188 196.996094 657.742188 196.226562 656.207031 193.019531 C 654.15625 188.738281 655.085938 184.683594 657.492188 180.953125 C 659.875 177.257812 659.484375 173.726562 657.515625 170.128906 C 656.988281 169.171875 656.414062 168.210938 655.679688 167.414062 C 653.90625 165.472656 652.464844 163.382812 652.488281 160.4375 C 644.105469 160.480469 637.484375 163.214844 632.304688 168.914062 C 632.335938 169.457031 632.308594 169.609375 632.363281 169.726562 C 632.539062 170.089844 632.695312 170.480469 632.945312 170.792969 C 636.714844 175.496094 638.386719 180.519531 635.683594 186.402344 C 634.960938 187.976562 635.351562 189.605469 636.625 190.957031 C 637.277344 191.648438 637.804688 192.464844 638.316406 193.269531 C 640.191406 196.226562 639.96875 198.0625 637.726562 200.640625 C 635.757812 202.90625 633.082031 203.964844 630.503906 205.222656 C 628.855469 206.03125 628.125 207.296875 629.269531 208.84375 C 631.910156 212.402344 632.597656 216.21875 631.214844 220.257812 Z M 669.992188 227.128906 C 668.28125 226.992188 666.808594 227.855469 665.242188 228.304688 C 651.945312 232.140625 639.28125 231.617188 627.792969 222.9375 C 620.113281 217.132812 616.105469 209.378906 615.605469 199.789062 C 615.121094 190.507812 618.566406 182.429688 623.121094 174.625 C 625.71875 170.175781 629.464844 166.785156 633.109375 163.0625 C 632.460938 161.636719 632.464844 160.097656 631.136719 158.796875 C 627.625 160.796875 624.859375 163.496094 622.664062 166.578125 C 614.300781 178.308594 611.332031 191.144531 614.882812 205.382812 C 617.734375 216.820312 624.671875 225.121094 634.941406 229.945312 C 645.78125 235.042969 657.101562 232.984375 668.058594 229.152344 C 668.929688 228.847656 669.664062 228.105469 669.984375 227.121094 C 670.316406 226.953125 671.203125 227.496094 670.847656 226.527344 C 670.777344 226.339844 670.15625 226.714844 669.992188 227.128906 Z M 677.265625 223.710938 C 679.871094 227.132812 682.117188 231.03125 685.363281 234.605469 C 689.460938 233.023438 693.023438 230.515625 696.625 228.113281 C 702.589844 224.136719 702.550781 224.085938 705.746094 230.542969 C 707.84375 234.773438 707.738281 235.410156 703.738281 238.261719 C 693.285156 245.714844 682.796875 253.121094 672.304688 260.527344 C 671.300781 261.234375 670.242188 261.886719 669.144531 262.425781 C 665.867188 264.03125 664.484375 263.78125 661.832031 261.207031 C 660.945312 260.351562 660.023438 259.515625 659.246094 258.5625 C 657.410156 256.316406 657.519531 254.828125 659.789062 252.976562 C 663.394531 250.039062 667.058594 247.179688 671.25 245.074219 C 672.824219 244.285156 674.394531 243.464844 675.570312 242.117188 C 675.507812 240.625 674.261719 240.042969 673.5 239.132812 C 672.394531 237.804688 671.121094 237.421875 669.523438 238.351562 C 664.144531 241.484375 657.976562 241.621094 652.085938 242.398438 C 648.703125 242.84375 645.09375 241.578125 641.585938 241.074219 C 634.140625 240.007812 627.496094 236.988281 621.058594 233.183594 C 616.480469 230.476562 613.246094 226.695312 610.917969 222.171875 C 606.421875 213.441406 603.550781 204.03125 603.578125 194.257812 C 603.609375 183.320312 606.574219 172.957031 613.4375 164.011719 C 616.707031 159.746094 620.394531 155.90625 624.414062 152.386719 C 625.757812 151.214844 626.417969 150.164062 626.472656 148.304688 C 626.632812 143.402344 630.355469 141.507812 634.789062 143.976562 C 638.335938 145.957031 641.191406 148.816406 643.050781 152.355469 C 644.839844 155.757812 647.25 156.757812 650.941406 156.460938 C 657.550781 155.933594 664.027344 156.527344 670.101562 159.703125 C 678.574219 164.136719 684.59375 170.898438 688.605469 179.367188 C 690.546875 183.460938 690.707031 188.101562 690.464844 192.65625 C 690.015625 201.121094 688.242188 209.15625 683.21875 216.226562 C 682.175781 217.699219 680.910156 218.929688 679.722656 220.246094 C 678.820312 221.242188 677.535156 221.957031 677.265625 223.710938 " fill-opacity="1" fill-rule="nonzero"/></g><path fill="#ffffff" d="M 556.949219 68.597656 C 557.972656 70.394531 559.078125 69.976562 560.144531 69.140625 C 564.03125 66.078125 568.113281 63.34375 572.578125 61.1875 C 573.132812 60.917969 573.855469 60.554688 573.589844 59.644531 C 570.699219 59.917969 559.492188 65.890625 556.949219 68.597656 Z M 597.96875 94.617188 C 598.3125 93.097656 597.496094 92.453125 597.011719 91.664062 C 593.214844 85.503906 588.265625 80.148438 584.59375 73.902344 C 582.859375 70.949219 580.894531 68.183594 578.425781 65.792969 C 577.460938 64.855469 576.535156 63.886719 575.21875 64.140625 C 574.515625 64.875 574.675781 65.488281 575.011719 65.855469 C 583.082031 74.75 589.984375 84.523438 596.679688 94.460938 C 596.816406 94.664062 597.421875 94.558594 597.96875 94.617188 Z M 589.023438 109.820312 C 593.132812 112.042969 596.882812 114.886719 600.644531 117.554688 C 604.574219 115.265625 604.769531 115.234375 604.445312 113.214844 C 603.816406 109.308594 602.984375 105.429688 602.140625 101.558594 C 601.785156 99.941406 600.816406 98.890625 598.835938 99.183594 C 597.769531 100.996094 598.4375 103.644531 596.199219 104.929688 C 594.699219 105.289062 593.429688 103.617188 591.648438 104.515625 C 590.492188 105.789062 589.800781 107.554688 589.023438 109.820312 Z M 585.796875 106.636719 C 588.296875 103.832031 588.363281 103.546875 586.910156 100.902344 C 584.664062 96.8125 582.175781 92.871094 579.132812 89.335938 C 574.753906 84.253906 570.425781 79.140625 566.421875 73.753906 C 565.648438 72.714844 564.855469 71.53125 563.441406 71.226562 C 561.738281 72.296875 562.097656 73.460938 563.03125 74.722656 C 568.742188 82.421875 573.480469 90.761719 578.890625 98.664062 C 580.882812 101.570312 583.089844 104.324219 585.796875 106.636719 Z M 593.789062 100.867188 C 595.441406 99.257812 594.496094 98.054688 593.792969 96.917969 C 592.574219 94.9375 591.179688 93.0625 589.988281 91.066406 C 585.183594 83.039062 579.34375 75.8125 573.066406 68.921875 C 570.425781 66.019531 569.726562 66.148438 567.136719 69.367188 C 570.96875 73.636719 573.90625 78.644531 577.953125 82.753906 C 582.308594 87.175781 585.988281 92.09375 588.941406 97.53125 C 590.027344 99.53125 591.488281 100.648438 593.789062 100.867188 Z M 571.589844 55.539062 C 570.613281 52.789062 569.523438 50.441406 567.710938 48.546875 C 566.050781 46.8125 564.128906 45.578125 561.535156 46.296875 C 558.386719 47.171875 555.242188 48.058594 552.085938 48.917969 C 550.328125 49.398438 548.839844 50.34375 547.519531 51.550781 C 545.53125 53.359375 545.285156 55.121094 546.789062 57.328125 C 548.417969 59.707031 550.617188 61.578125 552.738281 63.488281 C 554.058594 64.679688 555.523438 64.941406 557.160156 63.699219 C 559.113281 62.214844 561.359375 61.21875 563.617188 60.222656 C 566.347656 59.023438 568.949219 57.515625 571.589844 55.539062 Z M 567.179688 43.140625 C 570.539062 45.441406 572.867188 48.625 574.441406 52.3125 C 576.335938 56.75 578.734375 60.820312 582.042969 64.34375 C 582.789062 65.140625 583.574219 65.925781 584.1875 66.824219 C 590.546875 76.070312 596.824219 85.375 603.246094 94.578125 C 606.140625 98.726562 606.15625 103.625 607.234375 108.242188 C 608.261719 112.628906 609.070312 117.066406 609.96875 121.484375 C 610.105469 122.152344 610.289062 122.824219 610.320312 123.5 C 610.378906 124.742188 610.410156 126.003906 608.964844 126.636719 C 607.714844 127.183594 606.664062 127.101562 605.582031 126.128906 C 601.320312 122.28125 596.523438 119.125 591.871094 115.78125 C 591.542969 115.542969 591.320312 115.117188 590.964844 114.957031 C 581.402344 110.597656 576.738281 101.722656 571.253906 93.609375 C 568.496094 89.523438 565.828125 85.382812 563.054688 81.308594 C 561.207031 78.59375 558.976562 76.230469 556.652344 73.882812 C 552.332031 69.519531 548.664062 64.550781 544.414062 60.082031 C 540.21875 55.667969 541.339844 50.585938 546.789062 47.414062 C 551.355469 44.761719 556.65625 43.351562 561.9375 42.421875 C 563.664062 42.121094 565.511719 42.144531 567.179688 43.140625 " fill-opacity="1" fill-rule="nonzero"/><path fill="#ffffff" d="M 756.945312 144.535156 C 755.011719 143.636719 753.199219 144.125 751.453125 143.957031 C 750.457031 143.859375 749.382812 143.660156 749.296875 142.496094 C 749.1875 141.042969 750.382812 140.796875 751.527344 140.695312 C 753.539062 140.515625 755.609375 141.015625 757.695312 140.277344 C 758.035156 138.351562 758.355469 136.519531 758.667969 134.738281 C 756.769531 133.625 754.914062 134.34375 753.203125 133.96875 C 750.78125 133.4375 750.1875 132.71875 750.242188 130.125 C 752.898438 129.730469 755.527344 131.683594 758.457031 130.320312 C 758.925781 129.179688 759.800781 127.953125 759.261719 126.261719 C 757.5 125.773438 755.710938 125.46875 754.347656 124.242188 C 753.625 123.59375 752.855469 122.863281 753.589844 121.800781 C 754.140625 121.003906 754.925781 121.066406 755.78125 121.421875 C 756.859375 121.875 757.839844 122.917969 759.375 122.070312 C 760 120.066406 759.472656 118.78125 757.085938 118.476562 C 756.007812 118.339844 754.960938 117.875 753.886719 117.824219 C 750.488281 117.671875 747.402344 115.652344 743.78125 116.105469 C 742.3125 120.039062 741.914062 124.113281 741.171875 128.113281 C 739.402344 137.632812 737.085938 147.050781 735.6875 156.644531 C 734.664062 163.65625 733.371094 170.640625 732.652344 177.683594 C 732.183594 182.292969 731.347656 186.886719 731.527344 191.574219 C 731.597656 193.417969 732.300781 194.519531 733.976562 194.773438 C 736.941406 195.21875 739.9375 195.679688 742.921875 195.699219 C 746.097656 195.71875 746.574219 194.820312 746.039062 191.25 C 743.730469 189.96875 740.984375 190.214844 738.578125 189.222656 C 737.632812 188.828125 736.691406 188.382812 737.011719 187.210938 C 737.304688 186.132812 738.332031 185.882812 739.355469 186.023438 C 740.023438 186.113281 740.675781 186.539062 741.328125 186.515625 C 743.464844 186.441406 745.445312 188.070312 747.652344 187.269531 C 748.128906 185.820312 748.566406 184.554688 748.566406 183.65625 C 746.941406 180.78125 742.171875 183.480469 741.539062 179.097656 C 744.308594 177.789062 746.6875 179.082031 749.085938 179.1875 C 750.875 177.460938 750.609375 175.242188 751.101562 173.179688 C 748.738281 172.214844 745.824219 173.609375 744.171875 170.886719 C 746.570312 167.839844 750.117188 170.636719 752.882812 168.742188 C 752.703125 167.054688 754.355469 165.460938 753.613281 163.425781 C 752.339844 162.054688 750.640625 162.246094 749.03125 162.015625 C 746.589844 161.664062 746.109375 160.957031 746.175781 158.160156 C 748.929688 157.582031 751.707031 160.03125 754.480469 158.28125 C 755.597656 156.441406 755.855469 154.511719 755.191406 152.5625 C 753.382812 151.671875 751.59375 151.574219 749.863281 151.195312 C 748.691406 150.933594 747.925781 150.019531 748.351562 148.726562 C 748.699219 147.65625 749.566406 147.421875 750.679688 147.734375 C 751.589844 147.992188 752.558594 148.050781 753.507812 148.152344 C 755.984375 148.425781 757.015625 147.210938 756.945312 144.535156 Z M 741.160156 199.089844 C 738.390625 199.4375 735.304688 198.722656 732.222656 198.128906 C 728.683594 197.453125 727.679688 196.109375 727.632812 192.515625 C 727.585938 188.953125 728.230469 185.4375 728.585938 181.921875 C 730.394531 164.011719 733.308594 146.265625 737.160156 128.667969 C 738.148438 124.148438 738.726562 119.535156 739.867188 115.035156 C 740.871094 111.085938 741.519531 110.75 745.625 111.78125 C 750.125 112.910156 754.636719 114 759.136719 115.121094 C 762.960938 116.070312 763.808594 116.875 763.5625 120.746094 C 763.175781 126.867188 762.65625 132.996094 761.808594 139.066406 C 760.738281 146.753906 759.132812 154.371094 758.046875 162.054688 C 757.140625 168.453125 754.765625 174.449219 753.449219 180.726562 C 752.492188 185.261719 750.960938 189.652344 750.445312 194.304688 C 749.980469 198.472656 749.199219 198.96875 744.859375 199.085938 C 743.765625 199.113281 742.667969 199.089844 741.160156 199.089844 " fill-opacity="1" fill-rule="nonzero"/><g clip-path="url(#90912c6b1f)"><path fill="#ffffff" d="M 753.214844 226.910156 C 757.050781 223.9375 759.308594 221.054688 761.667969 218.226562 C 771.476562 206.453125 781.4375 194.808594 790.65625 182.558594 C 795.355469 176.316406 799.527344 169.722656 803.863281 163.234375 C 805.476562 160.820312 805.34375 160.308594 803.234375 158.320312 C 802.046875 157.203125 800.691406 156.25 799.375 155.273438 C 796.425781 153.089844 795.851562 153.191406 793.863281 156.117188 C 791.925781 158.964844 791.980469 159.375 794.585938 161.445312 C 795.121094 161.871094 795.691406 162.265625 796.167969 162.75 C 796.925781 163.519531 797.929688 164.3125 796.84375 165.511719 C 795.96875 166.480469 795.101562 165.796875 794.253906 165.375 C 792.589844 164.53125 791.523438 162.667969 789.1875 162.425781 C 788.246094 163.976562 786.265625 164.78125 786.0625 166.199219 C 786.542969 169.921875 791.75 170.105469 790.613281 174.332031 C 787.878906 174.320312 786.53125 172.40625 784.804688 171.183594 C 782.886719 169.824219 781.40625 170.425781 781.027344 172.691406 C 780.835938 173.835938 781.042969 174.828125 781.878906 175.71875 C 782.699219 176.59375 783.871094 177.230469 784.117188 178.832031 C 781.425781 182.335938 779.988281 177.191406 777.4375 177.835938 C 775.636719 178.933594 774.648438 181.019531 773.6875 182.738281 C 773.953125 185.980469 778.59375 185.183594 778.449219 188.546875 C 776.894531 189.699219 775.539062 189.390625 774.175781 188.515625 C 773.371094 187.996094 772.566406 187.472656 771.730469 187.007812 C 771.0625 186.640625 770.375 186.703125 769.890625 187.324219 C 769.414062 187.941406 769.488281 188.6875 770.03125 189.179688 C 770.933594 190.003906 771.972656 190.679688 772.921875 191.457031 C 773.769531 192.15625 774.8125 192.914062 773.902344 194.15625 C 773 195.398438 771.941406 194.570312 770.984375 194.097656 C 769.550781 193.378906 768.515625 191.882812 766.621094 191.875 C 765.007812 193.136719 763.675781 194.632812 763.074219 196.523438 C 763.617188 199.113281 767.308594 199.558594 766.867188 202.546875 C 765.578125 203.605469 764.511719 203.179688 763.421875 202.40625 C 762.347656 201.648438 761.753906 200.15625 760.15625 200.1875 C 757.308594 203.613281 757.320312 203.601562 760.0625 206.542969 C 760.949219 207.496094 762.375 208.210938 761.789062 210.105469 C 758.601562 211.949219 757.6875 207.742188 755.175781 207.425781 C 754.703125 207.839844 754.144531 208.230469 753.710938 208.730469 C 751.433594 211.339844 751.640625 212.667969 754.566406 214.65625 C 755.425781 215.238281 756.730469 215.324219 756.902344 216.734375 C 756.003906 218.515625 754.863281 219.25 753.050781 217.753906 C 752.320312 217.144531 751.515625 216.597656 750.6875 216.121094 C 749.101562 215.207031 747.765625 215.800781 747.332031 217.585938 C 746.96875 219.050781 747.476562 220.222656 748.476562 221.324219 C 750.042969 223.050781 751.5 224.875 753.214844 226.910156 Z M 809.824219 160.5 C 809.859375 161.398438 809.242188 161.980469 808.816406 162.675781 C 801.355469 174.953125 792.972656 186.5625 783.761719 197.582031 C 775.972656 206.902344 768.242188 216.273438 760.484375 225.621094 C 760.308594 225.832031 760.109375 226.023438 759.929688 226.226562 C 755.148438 231.488281 753.808594 231.53125 748.804688 226.535156 C 747.15625 224.890625 745.515625 223.238281 743.941406 221.527344 C 741.96875 219.378906 741.824219 218.894531 743.492188 216.589844 C 750.128906 207.410156 756.84375 198.285156 763.566406 189.167969 C 766.160156 185.652344 769.0625 182.347656 771.460938 178.714844 C 776.152344 171.621094 781.992188 165.476562 787.292969 158.886719 C 789.347656 156.335938 790.925781 153.421875 793.277344 151.101562 C 795.410156 148.992188 796.410156 148.605469 798.625 150.148438 C 802.085938 152.566406 805.671875 154.871094 808.558594 158.027344 C 809.214844 158.738281 809.886719 159.425781 809.824219 160.5 " fill-opacity="1" fill-rule="nonzero"/></g><path fill="#ffffff" d="M 637.441406 80.546875 C 644.769531 85.464844 650.667969 84.230469 656.988281 76.648438 C 650.1875 77.441406 644.398438 79.644531 637.441406 80.546875 Z M 693.136719 100.59375 C 693.257812 96.410156 693.007812 92.21875 689.90625 88.78125 C 684.0625 82.292969 673.707031 80.769531 665.484375 88.710938 C 664.207031 89.945312 663.121094 90.558594 661.414062 90.894531 C 656.640625 91.828125 653.101562 94.433594 652.152344 99.507812 C 651.707031 101.90625 650.964844 104.273438 651.078125 106.777344 C 651.320312 112.128906 653.085938 116.570312 657.886719 119.546875 C 660.273438 121.027344 662.882812 121.621094 665.5 122.40625 C 676.25 125.636719 695.292969 115.605469 693.136719 100.59375 Z M 659.0625 81.234375 C 657.292969 82.039062 656.082031 83.136719 654.75 84.070312 C 648.734375 88.296875 643.730469 88.386719 637.066406 84.949219 C 635.703125 84.25 634.648438 83.148438 633.890625 81.8125 C 632.523438 79.402344 633.34375 77.25 636.066406 77.007812 C 641.554688 76.523438 646.804688 75.070312 652.089844 73.699219 C 652.484375 73.597656 652.921875 73.5 653.3125 73.5625 C 657.4375 74.222656 660.445312 73.042969 661.613281 68.675781 C 661.667969 68.480469 662.042969 68.367188 662.429688 68.109375 C 664.839844 68.75 664.382812 70.589844 663.921875 72.277344 C 662.925781 75.929688 663.328125 79.601562 663.574219 83.277344 C 663.589844 83.484375 663.894531 83.667969 664.214844 84.039062 C 667.324219 82.601562 670.222656 80.613281 673.753906 79.835938 C 684.695312 77.429688 695.609375 84.515625 696.953125 95.601562 C 697.65625 101.414062 697.660156 107.324219 694.777344 112.855469 C 692.992188 116.289062 690.222656 118.589844 687.234375 120.789062 C 678.496094 127.222656 669.015625 128.816406 659.015625 124.421875 C 652.699219 121.648438 647.132812 115.859375 647.75 107.894531 C 648.027344 104.367188 647.464844 100.765625 648.820312 97.34375 C 650.449219 93.238281 652.9375 89.988281 657.265625 88.378906 C 660.421875 87.203125 660.585938 86.78125 659.828125 83.523438 C 659.675781 82.863281 659.398438 82.234375 659.0625 81.234375 " fill-opacity="1" fill-rule="nonzero"/><path fill="#ffffff" d="M 766.839844 32.65625 C 765.613281 30.667969 766.554688 29.386719 768.035156 28.449219 C 770.027344 27.183594 771.789062 25.664062 773.191406 23.804688 C 775.351562 20.933594 774.488281 18.308594 771.148438 17.066406 C 770.113281 16.683594 769.078125 16.363281 767.957031 16.425781 C 763.945312 16.652344 760.132812 17.683594 756.640625 19.640625 C 754.265625 20.972656 753.863281 23.230469 755.003906 25.972656 C 757.894531 32.925781 761.621094 39.457031 765.101562 46.113281 C 766.933594 49.609375 768.554688 50.128906 772.089844 48.523438 C 776.558594 46.488281 779.171875 42.683594 781.550781 38.621094 C 782.949219 36.230469 783.054688 33.992188 781.28125 31.789062 C 779.71875 29.84375 777.796875 29.523438 774.640625 30.46875 C 772.078125 31.238281 769.675781 32.65625 766.839844 32.65625 Z M 776.667969 26.027344 C 785.226562 27.132812 788.566406 33.972656 784.195312 41.195312 C 781.800781 45.152344 779.222656 49.011719 774.804688 51.179688 C 769.164062 53.9375 764.402344 53.203125 761.570312 47.140625 C 758.328125 40.210938 754.566406 33.535156 751.597656 26.46875 C 749.761719 22.101562 751.433594 17.574219 755.949219 15.71875 C 759.484375 14.265625 763.167969 12.902344 766.960938 12.695312 C 775.246094 12.246094 780.199219 18.1875 776.835938 25 C 776.722656 25.230469 776.742188 25.527344 776.667969 26.027344 " fill-opacity="1" fill-rule="nonzero"/><path fill="#ffffff" d="M 738.171875 69.660156 C 739.265625 69.40625 739.753906 68.890625 739.871094 68.203125 C 740.183594 66.429688 739.816406 64.710938 739.46875 62.949219 C 738.507812 58.03125 741.800781 54.925781 746.621094 56.058594 C 747.546875 56.273438 748.4375 56.648438 749.339844 56.972656 C 751.320312 57.691406 753.546875 58.332031 755.078125 56.605469 C 756.449219 55.054688 755.667969 52.96875 754.964844 51.15625 C 751.664062 42.644531 744.601562 38.074219 736.933594 34.261719 C 734.8125 33.207031 732.234375 34.519531 731.171875 36.742188 C 730.46875 38.210938 730.113281 39.796875 730.011719 41.476562 C 729.503906 49.972656 731.300781 58.007812 734.59375 65.78125 C 735.320312 67.492188 736.496094 68.738281 738.171875 69.660156 Z M 744.4375 59.203125 C 742.570312 61.328125 743.195312 63.308594 743.683594 65.292969 C 744.117188 67.046875 744.308594 68.757812 743.117188 70.382812 C 740.113281 74.488281 734.742188 74.121094 732.496094 69.390625 C 729.734375 63.570312 727.847656 57.425781 726.890625 51.035156 C 726.285156 46.996094 725.867188 42.996094 726.769531 38.855469 C 728.464844 31.085938 734.890625 28.15625 741.539062 32.417969 C 747.324219 36.128906 752.878906 40.109375 756.609375 46.0625 C 758.441406 48.984375 759.8125 52.113281 759.664062 55.691406 C 759.546875 58.566406 758.148438 60.160156 755.351562 60.824219 C 752.898438 61.40625 750.535156 61.464844 748.171875 60.410156 C 747.066406 59.917969 745.855469 59.652344 744.4375 59.203125 " fill-opacity="1" fill-rule="nonzero"/><g clip-path="url(#64fdcfe1d9)"><path fill="#ffffff" d="M 806.5625 24.964844 C 804.582031 25.835938 803.847656 27.265625 802.640625 28.144531 C 798.414062 31.238281 793.945312 29.800781 792.277344 24.898438 C 790.925781 20.925781 790.734375 16.84375 790.992188 12.730469 C 791.210938 9.257812 792.988281 7.65625 796.53125 7.386719 C 797.59375 7.308594 798.738281 7.695312 799.679688 6.878906 C 799.707031 4.082031 798.371094 2.953125 795.480469 3.332031 C 791.644531 3.828125 787.902344 7.128906 787.160156 11.429688 C 785.972656 18.316406 787.148438 24.871094 791.648438 30.421875 C 795.460938 35.125 801.511719 34.8125 804.960938 29.945312 C 805.914062 28.605469 806.429688 27.085938 806.5625 24.964844 Z M 796.210938 0 C 799.769531 0.046875 802.542969 1.679688 803.445312 4.257812 C 804.742188 7.984375 802.980469 10.890625 799.132812 11.375 C 794.1875 12 793.679688 12.554688 794.347656 17.417969 C 794.664062 19.707031 795.191406 21.988281 795.882812 24.191406 C 796.570312 26.363281 797.59375 26.652344 799.628906 25.730469 C 800.675781 25.257812 801.394531 24.496094 801.996094 23.539062 C 802.664062 22.476562 803.601562 21.695312 804.769531 21.179688 C 807.34375 20.035156 809.542969 21.113281 809.824219 23.949219 C 810.292969 28.664062 808.527344 32.453125 804.640625 35.257812 C 800.773438 38.039062 796.933594 38.144531 792.800781 35.71875 C 787.773438 32.765625 785.75 27.996094 784.238281 22.757812 C 782.832031 17.878906 782.933594 13.070312 784.585938 8.316406 C 786.261719 3.507812 791.371094 -0.0625 796.210938 0 " fill-opacity="1" fill-rule="nonzero"/></g><path fill="#ffffff" d="M 567.0625 9.75 C 567.085938 11.667969 567.476562 12.433594 568.8125 13.164062 C 570.324219 13.992188 573.105469 13.199219 574.691406 11.488281 C 576.304688 9.75 576.550781 7.558594 575.351562 5.859375 C 574.675781 4.90625 573.734375 4.34375 572.613281 4.253906 C 570.085938 4.054688 567.03125 7.128906 567.0625 9.75 Z M 570.246094 17.089844 C 566.226562 16.996094 562.992188 13.558594 563.175781 9.566406 C 563.371094 5.171875 567.945312 0.890625 572.445312 0.890625 C 576.4375 0.886719 579.453125 3.886719 579.414062 7.875 C 579.359375 13.621094 574.492188 16.65625 570.246094 17.089844 " fill-opacity="1" fill-rule="nonzero"/><path fill="#ffffff" d="M 647.679688 33.410156 C 637.640625 37.640625 629.019531 43.984375 620.789062 50.863281 C 618.933594 49.960938 618.574219 48.902344 619.699219 47.503906 C 620.296875 46.757812 620.992188 46.074219 621.722656 45.464844 C 628.058594 40.195312 634.773438 35.511719 642.277344 32.019531 C 643.417969 31.488281 644.558594 31.105469 645.839844 31.320312 C 646.78125 31.476562 647.195312 32.097656 647.679688 33.410156 " fill-opacity="1" fill-rule="nonzero"/><path fill="#ffffff" d="M 666.566406 26.9375 C 664.890625 25.527344 664.984375 24.429688 666.164062 23.496094 C 666.902344 22.917969 667.792969 22.476562 668.675781 22.136719 C 676.0625 19.285156 683.65625 17.101562 691.363281 15.300781 C 692.292969 15.082031 692.992188 15.203125 693.425781 16.058594 C 693.960938 17.113281 693.527344 17.949219 692.59375 18.460938 C 691.882812 18.847656 691.082031 19.109375 690.289062 19.292969 C 686.160156 20.230469 682.101562 21.375 678.109375 22.792969 C 674.261719 24.15625 670.3125 25.230469 666.566406 26.9375 " fill-opacity="1" fill-rule="nonzero"/><path fill="#ffffff" d="M 597.894531 28.664062 C 599.441406 28.464844 600.066406 27.558594 600.066406 26.128906 C 600.066406 24.632812 599.640625 23.367188 597.964844 23.105469 C 596.679688 22.910156 594.988281 24.722656 595.207031 26.070312 C 595.449219 27.574219 596.421875 28.449219 597.894531 28.664062 Z M 597.761719 32.007812 C 594.582031 32.0625 592.15625 29.308594 591.753906 25.984375 C 591.394531 22.992188 595.421875 19.386719 597.382812 19.277344 C 600.050781 19.125 603.835938 23.085938 603.972656 26.136719 C 604.105469 29.121094 601.113281 31.949219 597.761719 32.007812 " fill-opacity="1" fill-rule="nonzero"/><path fill="#ffffff" d="M 564.40625 107.28125 C 566.617188 107.945312 566.484375 109.566406 566.042969 110.96875 C 564.316406 116.449219 564.03125 122.179688 562.964844 127.769531 C 562.890625 128.171875 562.949219 128.605469 562.824219 128.984375 C 562.414062 130.183594 561.765625 131.503906 560.351562 131.214844 C 558.753906 130.886719 559.144531 129.519531 559.359375 128.226562 C 560.125 123.683594 560.578125 119.078125 561.484375 114.566406 C 561.992188 112.027344 562.238281 109.21875 564.40625 107.28125 " fill-opacity="1" fill-rule="nonzero"/><path fill="#ffffff" d="M 573.039062 170.960938 C 570.011719 170.933594 569.09375 169.558594 568.570312 168.007812 C 566.703125 162.460938 564.929688 156.882812 563.171875 151.300781 C 562.8125 150.167969 563.039062 149.128906 564.28125 148.539062 C 565.90625 148.4375 566.308594 149.789062 566.695312 150.867188 C 569 157.316406 571.164062 163.8125 573.039062 170.960938 " fill-opacity="1" fill-rule="nonzero"/><path fill="#ffffff" d="M 711.398438 12.550781 C 717.773438 12.019531 723.949219 12.121094 729.996094 14.140625 C 730.929688 14.453125 731.664062 15.089844 732.152344 15.945312 C 732.582031 16.703125 732.683594 17.546875 732.125 18.253906 C 731.53125 19.011719 730.574219 19.03125 729.894531 18.550781 C 725.324219 15.324219 719.984375 16.121094 714.898438 15.609375 C 713.128906 15.429688 711.246094 15.597656 711.398438 12.550781 " fill-opacity="1" fill-rule="nonzero"/><path fill="#ffffff" d="M 613.066406 56.089844 C 612.984375 57.304688 612.179688 58.054688 611.304688 58.71875 C 607.917969 61.28125 605.039062 64.324219 602.402344 67.648438 C 601.488281 68.804688 600.261719 70.855469 598.507812 69.210938 C 596.855469 67.664062 598.648438 66.203125 599.691406 65.113281 C 602.789062 61.855469 606.023438 58.730469 609.210938 55.554688 C 609.792969 54.972656 610.414062 54.425781 611.296875 54.386719 C 612.460938 54.339844 613.078125 54.898438 613.066406 56.089844 " fill-opacity="1" fill-rule="nonzero"/><path fill="#ffffff" d="M 585.769531 186.859375 C 585.582031 187.601562 585.003906 188.308594 583.839844 187.988281 C 582.679688 187.664062 581.519531 187.363281 580.542969 186.515625 C 578.671875 184.890625 577.472656 182.746094 575.90625 180.882812 C 575.222656 180.066406 575.304688 179.085938 576.171875 178.355469 C 577.050781 177.621094 578.066406 177.714844 578.675781 178.585938 C 580.476562 181.171875 582.566406 183.414062 585.238281 185.113281 C 585.699219 185.40625 585.878906 185.964844 585.769531 186.859375 " fill-opacity="1" fill-rule="nonzero"/><path fill="#ffffff" d="M 659.882812 107.34375 C 660 104.046875 661.113281 101.902344 661.46875 99.566406 C 660.257812 98.746094 659.160156 98.796875 657.929688 99.703125 C 657.847656 102.070312 658.355469 104.328125 659.882812 107.34375 Z M 660.855469 115.289062 C 658.769531 114.332031 657.753906 112.449219 656.917969 110.394531 C 655.464844 106.824219 654.433594 103.160156 654.386719 99.277344 C 654.375 98.027344 654.332031 96.390625 655.730469 96.148438 C 658.257812 95.703125 660.765625 94.710938 663.386719 95.132812 C 665.53125 95.476562 666.609375 97.019531 665.65625 99.03125 C 663.710938 103.128906 663.125 107.363281 663.308594 111.808594 C 663.371094 113.449219 662.746094 114.742188 660.855469 115.289062 " fill-opacity="1" fill-rule="nonzero"/><path fill="#ffffff" d="M 764.074219 18.921875 C 765.601562 18.800781 766.738281 19.449219 767.488281 20.75 C 768.273438 22.113281 767.464844 23.109375 766.589844 24.015625 C 765.925781 24.703125 765.246094 25.4375 764.433594 25.902344 C 762.65625 26.917969 760.675781 26.367188 759.84375 24.769531 C 758.636719 22.449219 758.921875 21.148438 760.984375 19.898438 C 761.921875 19.332031 762.917969 18.847656 764.074219 18.921875 " fill-opacity="1" fill-rule="nonzero"/><path fill="#ffffff" d="M 776.734375 37.753906 C 776.765625 39.519531 774.679688 41.59375 772.726562 41.738281 C 770.5625 41.894531 768.691406 40.191406 768.730469 38.097656 C 768.769531 36.023438 770.972656 33.914062 773.011719 34 C 774.703125 34.074219 776.703125 36.085938 776.734375 37.753906 " fill-opacity="1" fill-rule="nonzero"/><path fill="#ffffff" d="M 744.03125 46.625 C 743.957031 49.433594 741.753906 51.828125 739.300781 51.773438 C 736.707031 51.710938 734.988281 49.730469 735.015625 46.84375 C 735.046875 44.070312 737.300781 41.828125 739.914062 41.980469 C 742.402344 42.125 744.101562 44.042969 744.03125 46.625 " fill-opacity="1" fill-rule="nonzero"/></svg>